<svg width="1297" height="642" viewBox="0 0 1297 642" fill="none" xmlns="http://www.w3.org/2000/svg">
  <path 
    d="M1037.5 562C1042.7 562 1048 560.333 1050 559.5L1055.5 566H1061.5L1067.5 571V576.5H1079.5L1083.5 585L1095.5 582.5L1106.5 592L1110 604.5L1118 601.5L1131 604.5L1149.5 611.5L1170.5 620L1185 611.5L1193 609V592L1203.5 585H1217L1212.5 576.5L1208.5 562L1181 538L1178.5 530L1167.5 522V515L1152 499H1131L1118 502H1099.5L1079.5 496.5H1072V507.5H1061.5L1055.5 515L1046.5 522V511.5V507.5L1055.5 499L1052.5 491.5L1029.5 488L1027 502L1008.5 504.5L1012 515H1029.5L1040.5 507.5V511.5L1029.5 518.5H1021L1019 528.5L1021 530H1029.5L1043 518.5V525L1027 541L1029.5 549.5L1034 553V559.5L1037.5 562Z" 
    fill="currentColor"
  />
  <path 
    d="M4.26223 43.6399C5.25155 34.7361 12.7775 28 21.7361 28H50.6498C58.5176 28 66.0224 31.3102 71.3274 37.1205L91.6762 59.4073C93.1731 61.0468 92.8879 63.6285 91.0691 64.9016C90.0857 65.59 89.5 66.7149 89.5 67.9154V68.0543C89.5 70.2335 91.2665 72 93.4457 72H95.816C96.9194 72 98.0035 71.7109 98.9605 71.1616L123.678 56.9716C124.217 56.6626 124.827 56.5 125.447 56.5C127.409 56.5 129 58.0906 129 60.0527V60.7842C129 63.2938 131.522 65.0191 133.861 64.1095L134.752 63.763C136.42 63.1145 137.06 61.0894 136.067 59.6006C135.033 58.0492 135.776 55.9393 137.554 55.3778L155.002 49.8679C158.936 48.6255 163.048 51.1973 163.652 55.2783C164.139 58.5656 166.961 61 170.284 61H173.041C174.656 61 176.246 60.605 177.673 59.8495L182.568 57.2582C183.504 56.7626 184.283 56.0151 184.817 55.1002C186.326 52.513 189.608 51.5541 192.287 52.8936C193.081 53.2904 193.962 53.5 194.849 53.5H200.25C202.866 53.5 205.269 54.9418 206.5 57.25L207.265 58.6838C208.025 60.1095 209.509 61 211.125 61H214.008C214.832 61 215.5 60.332 215.5 59.508C215.5 58.2741 216.912 57.5735 217.895 58.3201L226.918 65.1773C227.633 65.7208 228.444 66.124 229.31 66.3655L242.465 70.0367C247.047 71.3154 251.909 71.174 256.409 69.6312C263.109 67.334 270.488 68.1799 276.494 71.9339L278.172 72.9824C281.357 74.9733 284.915 76.2946 288.627 76.8657L302.986 79.0748C306.919 79.6799 310.61 81.356 313.654 83.9194C316.819 86.5841 320.679 88.2878 324.78 88.8295L345 91.5C358.333 94.6667 385.4 101.2 387 102C387.932 102.466 389.475 103.633 390.897 104.79C392.604 106.178 394.715 107 396.915 107H400.137C401.293 107 402.364 106.394 402.958 105.403C404.019 103.635 406.425 103.267 407.966 104.636L412.588 108.745C413.135 109.231 414 108.843 414 108.111C414 107.551 414.532 107.145 415.072 107.292L423.979 109.722C424.657 109.906 425.356 110 426.058 110H447.699C452.119 110 456.425 108.6 460 106L461.674 104.782C464.161 102.974 467.156 102 470.23 102C472.703 102 475.134 101.37 477.295 100.169L478.5 99.5C481.451 97.8604 484.772 97 488.148 97H563.5C566.14 97 568.753 96.47 571.184 95.4414L577.134 92.9239C579.328 91.996 581.192 90.4312 582.485 88.4319C584.677 85.045 588.469 83 592.503 83C595.686 83 598.764 81.7356 601.015 79.4849L603.784 76.7157C604.593 75.9065 605.466 75.1634 606.394 74.4934L609.794 72.038C612.528 70.063 615.816 69 619.189 69C623.245 69 627.151 67.4638 630.12 64.7006L658.282 38.4943C660.35 36.5698 663.07 35.5 665.895 35.5C668.239 35.5 670.523 34.7632 672.425 33.3938L689.294 21.2482C692.679 18.8112 696.744 17.5 700.915 17.5C704.251 17.5 707.534 16.6606 710.461 15.059L727.529 5.71974C730.81 3.92477 734.417 2.80508 738.137 2.42675L756.341 0.575542C760.075 0.195727 763.848 0.570841 767.435 1.67858L796 10.5L807.258 15.2763C810.717 16.7437 814.436 17.5 818.194 17.5H827.053C829.342 17.5 831.623 17.7808 833.844 18.336L848.046 21.8864C850.996 22.6239 853.806 23.8369 856.365 25.4778L865.093 31.0726C869.603 33.9634 874.847 35.5 880.204 35.5H885.382C889.052 35.5 892.647 36.5402 895.75 38.5C898.853 40.4598 902.448 41.5 906.118 41.5H908.941C914.798 41.5 920.474 43.5322 925 47.25C929.526 50.9678 935.202 53 941.059 53H941.425C946.048 53 950.605 54.3159 954.526 56.7665C958.413 59.1956 962.93 60.5 967.513 60.5C971.446 60.5 975.321 61.4486 978.81 63.2654L991.421 69.8336C995.415 71.9138 999.851 73 1004.35 73H1004.72C1008.53 73 1012.31 73.7793 1015.81 75.2901L1033.99 83.1328C1035.33 83.7101 1036.62 84.3909 1037.85 85.1691L1051.21 93.6089C1053.69 95.1709 1056.55 96 1059.48 96H1061.18C1064.56 96 1067.78 97.4581 1070 100L1070.7 100.802C1072.48 102.834 1075.05 104 1077.75 104C1080.45 104 1083.02 105.166 1084.8 107.198L1088.97 111.966C1091.29 114.621 1094.19 116.714 1097.44 118.089L1139.58 135.917C1142.75 137.259 1145.31 139.72 1146.79 142.832C1148.22 145.845 1150.67 148.251 1153.71 149.62L1154.82 150.119C1157.56 151.352 1159.93 153.275 1161.7 155.7L1172.33 170.239C1176 175.269 1181.77 178.145 1186.73 181.921C1187.8 182.737 1188.5 183.614 1188.5 184.5C1188.5 185.317 1189.15 186.182 1190.17 187.03C1195.51 191.479 1201.21 195.925 1203.25 202.569C1205.01 208.273 1209.02 213.01 1214.36 215.679L1218.09 217.544C1221.98 219.488 1226.26 220.5 1230.61 220.5H1235.56C1240.12 220.5 1244.61 221.614 1248.64 223.745L1274.65 237.492C1276.54 238.494 1278.32 239.711 1279.94 241.118L1286.05 246.438C1288.01 248.138 1289.72 250.101 1291.13 252.271L1291.95 253.528C1294.92 258.078 1296.5 263.392 1296.5 268.824V269.642C1296.5 276.326 1294.11 282.789 1289.76 287.864L1284.15 294.409C1282.39 296.459 1280.35 298.244 1278.08 299.708L1260 311.386C1258.34 312.459 1256.57 313.353 1254.72 314.053L1227.45 324.371C1222.89 326.094 1218.87 328.974 1215.77 332.727L1213.25 335.777C1211.76 337.582 1210.01 339.16 1208.06 340.46L1208.06 340.46L1205.32 342.283C1202.22 344.356 1199.97 347.494 1199.02 351.106L1198.73 352.204C1197.12 358.273 1191.63 362.5 1185.35 362.5C1183.15 362.5 1180.98 363.025 1179.02 364.032L1174.65 366.279C1168.14 369.626 1160.58 370.292 1153.59 368.135L1126.33 359.723C1120.62 357.961 1114.47 358.211 1108.92 360.431L1095.3 365.88C1093.61 366.556 1092.5 368.194 1092.5 370.015C1092.5 370.979 1092.81 371.917 1093.39 372.688L1099.25 380.505C1099.74 381.151 1100 381.936 1100 382.744C1100 384.382 1098.93 385.829 1097.37 386.311L1096.14 386.688C1094.52 387.187 1093.31 388.547 1093.01 390.215C1092.7 391.92 1091.44 393.299 1089.78 393.771L1069.74 399.442C1067.26 400.144 1064.69 400.5 1062.11 400.5H1059.23C1053.24 400.5 1047.4 402.425 1042.58 405.992L1031.64 414.088C1027.3 417.295 1022.14 419.182 1016.76 419.524L972.965 422.311C970.994 422.437 969.015 422.353 967.062 422.062L960.45 421.078C951.675 419.771 942.8 422.7 936.527 428.973L933.72 431.78C931.915 433.585 929.872 435.134 927.648 436.386L883 461.5L870 471L855.257 482.74C847.719 488.742 844.129 498.426 845.932 507.891L846.208 509.341C846.73 512.081 846.65 514.901 845.973 517.607C844.16 524.862 838.306 530.408 830.965 531.829L827.5 532.5L807.348 538.124C806.451 538.374 805.577 538.701 804.737 539.102L800.217 541.254C797.336 542.626 795.5 545.533 795.5 548.725V551.129C795.5 554.371 792.871 557 789.629 557H787.932C786.748 557 785.666 556.331 785.136 555.272C784.277 553.554 782.086 553.01 780.523 554.126L778.638 555.473C777.296 556.431 776.5 557.979 776.5 559.627V563.855C776.5 565.923 776.981 567.963 777.906 569.813L783.084 580.169C783.36 580.72 783.712 581.23 784.13 581.683L784.987 582.611C788.729 586.664 795.5 584.017 795.5 578.5V565.667C795.5 564.329 797.004 563.541 798.104 564.303C799.395 565.196 801.089 563.965 800.638 562.462L799.251 557.837C799.086 557.288 799.065 556.706 799.19 556.147L800.379 550.796C801.404 546.18 804.479 542.261 808.708 540.146C810.865 539.067 813.256 538.5 815.668 538.5H819.708C821.792 538.5 823.768 539.432 825.093 541.042C827.719 544.23 827.015 548.99 823.578 551.282L815 557C809.28 560.496 805.089 566.145 803.463 572.649C802.501 576.497 802.448 580.516 803.308 584.388L803.757 586.406C804.567 590.052 806.447 593.374 809.155 595.947L811.347 598.03C813.679 600.245 813.679 600.245 811.347 598.03C813.679 600.245 815 603.321 815 606.538C815 609.108 814.157 611.607 812.599 613.651L805.03 623.586C801.129 628.705 795.584 632.324 789.328 633.835L755.5 642H689C685.799 642 674.699 634.742 666.464 628.938C663.207 626.643 661.981 622.426 663.399 618.703C664.405 616.061 666.61 614.056 669.336 613.304L691.267 607.254C692.882 606.809 694 605.34 694 603.665C694 602.327 694.718 601.091 695.882 600.429L718.067 587.807C721.3 585.967 724.956 585 728.676 585H734.328C738.17 585 741.744 583.03 743.796 579.781L744.154 579.214C745.645 576.853 746.048 573.964 745.26 571.285L745.043 570.548C744.381 568.296 742.768 566.446 740.628 565.483C736.864 563.789 734.993 559.521 736.298 555.605L737.048 553.355C737.348 552.456 737.766 551.6 738.292 550.811L742.494 544.509C745.054 540.668 745.946 535.953 744.966 531.443C744.333 528.532 742.948 525.838 740.948 523.629L713.524 493.34C711.521 491.127 709.177 489.25 706.581 487.777L682.847 474.316C679.004 472.136 675.731 469.078 673.296 465.391L662.143 448.503C660.394 445.854 658.207 443.521 655.675 441.605L622.5 416.5L575.5 387L515.61 343.271C513.547 341.764 511.302 340.553 508.908 339.66C482.962 329.985 436.79 312.882 434.5 312.5C432.578 312.18 417.066 310.129 405.056 308.554C399.792 307.863 394.841 305.688 390.732 302.326C382.398 295.507 371.873 287.124 370 286.5C367.718 285.739 335.422 279.193 317.207 275.542C315.399 275.18 313.571 275 311.727 275H251.127C249.711 275 248.297 275.107 246.898 275.321L215.102 280.179C213.703 280.393 212.289 280.5 210.873 280.5H160.08C155.845 280.5 151.761 278.927 148.621 276.085L145.913 273.636C144.058 271.957 143 269.573 143 267.071C143 264.487 141.871 262.032 139.909 260.35L117.479 241.125C115.833 239.714 114.378 238.096 113.151 236.31C110.756 232.827 107.517 230.009 103.737 228.118L97.999 225.25C96.3438 224.422 94.8329 223.333 93.5243 222.024L89.7412 218.241C87.4483 215.948 86.6477 212.557 87.6731 209.481C88.7771 206.169 87.7594 202.518 85.1011 200.255L56.817 176.175C53.9775 173.758 51.7356 170.716 50.2666 167.289C48.7764 163.811 46.4909 160.732 43.5941 158.299L35.5 151.5L24.5151 139.636C23.5066 138.547 22.5864 137.38 21.763 136.144L14.9183 125.877C12.9896 122.984 11.6167 119.758 10.8696 116.362L7.10764 99.262C6.71516 97.478 5.70629 95.8895 4.25843 94.7757L2.86285 93.7022C1.14034 92.3772 0.418892 90.1236 1.05164 88.0446C2.17887 84.3408 6.80416 83.1098 9.6234 85.7632L11.2349 87.2799C11.7404 87.7557 12.1518 88.3225 12.4474 88.9506C14.1323 92.5311 18.9248 93.2311 21.5634 90.2821L24.5 87C26.271 85.4504 25.6901 82.5634 23.4577 81.8192L19.5195 80.5065C18.5277 80.1759 17.6525 79.5657 16.9994 78.7493L16.9187 78.6483C16.3156 77.8945 15.908 77.0033 15.7322 76.054L14.6339 70.1229C13.8878 66.0941 12.2323 62.2886 9.79351 58.9962L7.60845 56.0464C4.9676 52.4813 3.77228 48.0495 4.26223 43.6399Z" 
    fill="currentColor"
  />
</svg>