<svg width="1297" height="642" viewBox="0 0 1297 642" fill="none" xmlns="http://www.w3.org/2000/svg">
<path d="M1037.5 562C1042.7 562 1048 560.333 1050 559.5L1055.5 566H1061.5L1067.5 571V576.5H1079.5L1083.5 585L1095.5 582.5L1106.5 592L1110 604.5L1118 601.5L1131 604.5L1149.5 611.5L1170.5 620L1185 611.5L1193 609V592L1203.5 585H1217L1212.5 576.5L1208.5 562L1181 538L1178.5 530L1167.5 522V515L1152 499H1131L1118 502H1099.5L1079.5 496.5H1072V507.5H1061.5L1055.5 515L1046.5 522V511.5V507.5L1055.5 499L1052.5 491.5L1029.5 488L1027 502L1008.5 504.5L1012 515H1029.5L1040.5 507.5V511.5L1029.5 518.5H1021L1019 528.5L1021 530H1029.5L1043 518.5V525L1027 541L1029.5 549.5L1034 553V559.5L1037.5 562Z" stroke="black" stroke-width="4"/>
<mask id="path-2-inside-1_265_21" fill="white">
<path d="M4.26223 43.6399C5.25155 34.7361 12.7775 28 21.7361 28H50.6498C58.5176 28 66.0224 31.3102 71.3274 37.1205L91.6762 59.4073C93.1731 61.0468 92.8879 63.6285 91.0691 64.9016C90.0857 65.59 89.5 66.7149 89.5 67.9154V68.0543C89.5 70.2335 91.2665 72 93.4457 72H95.816C96.9194 72 98.0035 71.7109 98.9605 71.1616L123.678 56.9716C124.217 56.6626 124.827 56.5 125.447 56.5C127.409 56.5 129 58.0906 129 60.0527V60.7842C129 63.2938 131.522 65.0191 133.861 64.1095L134.752 63.763C136.42 63.1145 137.06 61.0894 136.067 59.6006C135.033 58.0492 135.776 55.9393 137.554 55.3778L155.002 49.8679C158.936 48.6255 163.048 51.1973 163.652 55.2783C164.139 58.5656 166.961 61 170.284 61H173.041C174.656 61 176.246 60.605 177.673 59.8495L182.568 57.2582C183.504 56.7626 184.283 56.0151 184.817 55.1002C186.326 52.513 189.608 51.5541 192.287 52.8936C193.081 53.2904 193.962 53.5 194.849 53.5H200.25C202.866 53.5 205.269 54.9418 206.5 57.25L207.265 58.6838C208.025 60.1095 209.509 61 211.125 61H214.008C214.832 61 215.5 60.332 215.5 59.508C215.5 58.2741 216.912 57.5735 217.895 58.3201L226.918 65.1773C227.633 65.7208 228.444 66.124 229.31 66.3655L242.465 70.0367C247.047 71.3154 251.909 71.174 256.409 69.6312C263.109 67.334 270.488 68.1799 276.494 71.9339L278.172 72.9824C281.357 74.9733 284.915 76.2946 288.627 76.8657L302.986 79.0748C306.919 79.6799 310.61 81.356 313.654 83.9194C316.819 86.5841 320.679 88.2878 324.78 88.8295L345 91.5C358.333 94.6667 385.4 101.2 387 102C387.932 102.466 389.475 103.633 390.897 104.79C392.604 106.178 394.715 107 396.915 107H400.137C401.293 107 402.364 106.394 402.958 105.403C404.019 103.635 406.425 103.267 407.966 104.636L412.588 108.745C413.135 109.231 414 108.843 414 108.111C414 107.551 414.532 107.145 415.072 107.292L423.979 109.722C424.657 109.906 425.356 110 426.058 110H447.699C452.119 110 456.425 108.6 460 106L461.674 104.782C464.161 102.974 467.156 102 470.23 102C472.703 102 475.134 101.37 477.295 100.169L478.5 99.5C481.451 97.8604 484.772 97 488.148 97H563.5C566.14 97 568.753 96.47 571.184 95.4414L577.134 92.9239C579.328 91.996 581.192 90.4312 582.485 88.4319C584.677 85.045 588.469 83 592.503 83C595.686 83 598.764 81.7356 601.015 79.4849L603.784 76.7157C604.593 75.9065 605.466 75.1634 606.394 74.4934L609.794 72.038C612.528 70.063 615.816 69 619.189 69C623.245 69 627.151 67.4638 630.12 64.7006L658.282 38.4943C660.35 36.5698 663.07 35.5 665.895 35.5C668.239 35.5 670.523 34.7632 672.425 33.3938L689.294 21.2482C692.679 18.8112 696.744 17.5 700.915 17.5C704.251 17.5 707.534 16.6606 710.461 15.059L727.529 5.71974C730.81 3.92477 734.417 2.80508 738.137 2.42675L756.341 0.575542C760.075 0.195727 763.848 0.570841 767.435 1.67858L796 10.5L807.258 15.2763C810.717 16.7437 814.436 17.5 818.194 17.5H827.053C829.342 17.5 831.623 17.7808 833.844 18.336L848.046 21.8864C850.996 22.6239 853.806 23.8369 856.365 25.4778L865.093 31.0726C869.603 33.9634 874.847 35.5 880.204 35.5H885.382C889.052 35.5 892.647 36.5402 895.75 38.5C898.853 40.4598 902.448 41.5 906.118 41.5H908.941C914.798 41.5 920.474 43.5322 925 47.25C929.526 50.9678 935.202 53 941.059 53H941.425C946.048 53 950.605 54.3159 954.526 56.7665C958.413 59.1956 962.93 60.5 967.513 60.5C971.446 60.5 975.321 61.4486 978.81 63.2654L991.421 69.8336C995.415 71.9138 999.851 73 1004.35 73H1004.72C1008.53 73 1012.31 73.7793 1015.81 75.2901L1033.99 83.1328C1035.33 83.7101 1036.62 84.3909 1037.85 85.1691L1051.21 93.6089C1053.69 95.1709 1056.55 96 1059.48 96H1061.18C1064.56 96 1067.78 97.4581 1070 100L1070.7 100.802C1072.48 102.834 1075.05 104 1077.75 104C1080.45 104 1083.02 105.166 1084.8 107.198L1088.97 111.966C1091.29 114.621 1094.19 116.714 1097.44 118.089L1139.58 135.917C1142.75 137.259 1145.31 139.72 1146.79 142.832C1148.22 145.845 1150.67 148.251 1153.71 149.62L1154.82 150.119C1157.56 151.352 1159.93 153.275 1161.7 155.7L1172.33 170.239C1176 175.269 1181.77 178.145 1186.73 181.921C1187.8 182.737 1188.5 183.614 1188.5 184.5C1188.5 185.317 1189.15 186.182 1190.17 187.03C1195.51 191.479 1201.21 195.925 1203.25 202.569C1205.01 208.273 1209.02 213.01 1214.36 215.679L1218.09 217.544C1221.98 219.488 1226.26 220.5 1230.61 220.5H1235.56C1240.12 220.5 1244.61 221.614 1248.64 223.745L1274.65 237.492C1276.54 238.494 1278.32 239.711 1279.94 241.118L1286.05 246.438C1288.01 248.138 1289.72 250.101 1291.13 252.271L1291.95 253.528C1294.92 258.078 1296.5 263.392 1296.5 268.824V269.642C1296.5 276.326 1294.11 282.789 1289.76 287.864L1284.15 294.409C1282.39 296.459 1280.35 298.244 1278.08 299.708L1260 311.386C1258.34 312.459 1256.57 313.353 1254.72 314.053L1227.45 324.371C1222.89 326.094 1218.87 328.974 1215.77 332.727L1213.25 335.777C1211.76 337.582 1210.01 339.16 1208.06 340.46L1205.32 342.283C1202.22 344.356 1199.97 347.494 1199.02 351.106L1198.73 352.204C1197.12 358.273 1191.63 362.5 1185.35 362.5C1183.15 362.5 1180.98 363.025 1179.02 364.032L1174.65 366.279C1168.14 369.626 1160.58 370.292 1153.59 368.135L1126.33 359.723C1120.62 357.961 1114.47 358.211 1108.92 360.431L1095.3 365.88C1093.61 366.556 1092.5 368.194 1092.5 370.015C1092.5 370.979 1092.81 371.917 1093.39 372.688L1099.25 380.505C1099.74 381.151 1100 381.936 1100 382.744C1100 384.382 1098.93 385.829 1097.37 386.311L1096.14 386.688C1094.52 387.187 1093.31 388.547 1093.01 390.215C1092.7 391.92 1091.44 393.299 1089.78 393.771L1069.74 399.442C1067.26 400.144 1064.69 400.5 1062.11 400.5H1059.23C1053.24 400.5 1047.4 402.425 1042.58 405.992L1031.64 414.088C1027.3 417.295 1022.14 419.182 1016.76 419.524L972.965 422.311C970.994 422.437 969.015 422.353 967.062 422.062L960.45 421.078C951.675 419.771 942.8 422.7 936.527 428.973L933.72 431.78C931.915 433.585 929.872 435.134 927.648 436.386L883 461.5L870 471L855.257 482.74C847.719 488.742 844.129 498.426 845.932 507.891L846.208 509.341C846.73 512.081 846.65 514.901 845.973 517.607C844.16 524.862 838.306 530.408 830.965 531.829L827.5 532.5L807.348 538.124C806.451 538.374 805.577 538.701 804.737 539.102L800.217 541.254C797.336 542.626 795.5 545.533 795.5 548.725V551.129C795.5 554.371 792.871 557 789.629 557H787.932C786.748 557 785.666 556.331 785.136 555.272C784.277 553.554 782.086 553.01 780.523 554.126L778.638 555.473C777.296 556.431 776.5 557.979 776.5 559.627V563.855C776.5 565.923 776.981 567.963 777.906 569.813L783.084 580.169C783.36 580.72 783.712 581.23 784.13 581.683L784.987 582.611C788.729 586.664 795.5 584.017 795.5 578.5V565.667C795.5 564.329 797.004 563.541 798.104 564.303C799.395 565.196 801.089 563.965 800.638 562.462L799.251 557.837C799.086 557.288 799.065 556.706 799.19 556.147L800.379 550.796C801.404 546.18 804.479 542.261 808.708 540.146C810.865 539.067 813.256 538.5 815.668 538.5H819.708C821.792 538.5 823.768 539.432 825.093 541.042C827.719 544.23 827.015 548.99 823.578 551.282L815 557C809.28 560.496 805.089 566.145 803.463 572.649C802.501 576.497 802.448 580.516 803.308 584.388L803.757 586.406C804.567 590.052 806.447 593.374 809.155 595.947L811.347 598.03C813.679 600.245 815 603.321 815 606.538C815 609.108 814.157 611.607 812.599 613.651L805.03 623.586C801.129 628.705 795.584 632.324 789.328 633.835L755.5 642H689C685.799 642 674.699 634.742 666.464 628.938C663.207 626.643 661.981 622.426 663.399 618.703C664.405 616.061 666.61 614.056 669.336 613.304L691.267 607.254C692.882 606.809 694 605.34 694 603.665C694 602.327 694.718 601.091 695.882 600.429L718.067 587.807C721.3 585.967 724.956 585 728.676 585H734.328C738.17 585 741.744 583.03 743.796 579.781L744.154 579.214C745.645 576.853 746.048 573.964 745.26 571.285L745.043 570.548C744.381 568.296 742.768 566.446 740.628 565.483C736.864 563.789 734.993 559.521 736.298 555.605L737.048 553.355C737.348 552.456 737.766 551.6 738.292 550.811L742.494 544.509C745.054 540.668 745.946 535.953 744.966 531.443C744.333 528.532 742.948 525.838 740.948 523.629L713.524 493.34C711.521 491.127 709.177 489.25 706.581 487.777L682.847 474.316C679.004 472.136 675.731 469.078 673.296 465.391L662.143 448.503C660.394 445.854 658.207 443.521 655.675 441.605L622.5 416.5L575.5 387L515.61 343.271C513.547 341.764 511.302 340.553 508.908 339.66C482.962 329.985 436.79 312.882 434.5 312.5C432.578 312.18 417.066 310.129 405.056 308.554C399.792 307.863 394.841 305.688 390.732 302.326C382.398 295.507 371.873 287.124 370 286.5C367.718 285.739 335.422 279.193 317.207 275.542C315.399 275.18 313.571 275 311.727 275H251.127C249.711 275 248.297 275.107 246.898 275.321L215.102 280.179C213.703 280.393 212.289 280.5 210.873 280.5H160.08C155.845 280.5 151.761 278.927 148.621 276.085L145.913 273.636C144.058 271.957 143 269.573 143 267.071C143 264.487 141.871 262.032 139.909 260.35L117.479 241.125C115.833 239.714 114.378 238.096 113.151 236.31C110.756 232.827 107.517 230.009 103.737 228.118L97.999 225.25C96.3438 224.422 94.8329 223.333 93.5243 222.024L89.7412 218.241C87.4483 215.948 86.6477 212.557 87.6731 209.481C88.7771 206.169 87.7594 202.518 85.1011 200.255L56.817 176.175C53.9775 173.758 51.7356 170.716 50.2666 167.289C48.7764 163.811 46.4909 160.732 43.5941 158.299L35.5 151.5L24.5151 139.636C23.5066 138.547 22.5864 137.38 21.763 136.144L14.9183 125.877C12.9896 122.984 11.6167 119.758 10.8696 116.362L7.10764 99.262C6.71516 97.478 5.70629 95.8895 4.25843 94.7757L2.86285 93.7022C1.14034 92.3772 0.418892 90.1236 1.05164 88.0446C2.17887 84.3408 6.80416 83.1098 9.6234 85.7632L11.2349 87.2799C11.7404 87.7557 12.1518 88.3225 12.4474 88.9506C14.1323 92.5311 18.9248 93.2311 21.5634 90.2821L24.5 87C26.271 85.4504 25.6901 82.5634 23.4577 81.8192L19.5195 80.5065C18.5277 80.1759 17.6525 79.5657 16.9994 78.7493L16.9187 78.6483C16.3156 77.8945 15.908 77.0033 15.7322 76.054L14.6339 70.1229C13.8878 66.0941 12.2323 62.2886 9.79351 58.9962L7.60845 56.0464C4.9676 52.4813 3.77228 48.0495 4.26223 43.6399Z"/>
</mask>
<path d="M755.5 642V640C755.46 640 755.42 640 755.38 640C755.339 640 755.299 640 755.259 640C755.218 640 755.178 640 755.137 640C755.097 640 755.056 640 755.016 640C754.975 640 754.934 640 754.893 640C754.852 640 754.812 640 754.771 640C754.73 640 754.688 640 754.647 640C754.606 640 754.565 640 754.524 640C754.482 640 754.441 640 754.399 640C754.358 640 754.316 640 754.275 640C754.233 640 754.191 640 754.15 640C754.108 640 754.066 640 754.024 640C753.982 640 753.94 640 753.898 640C753.856 640 753.814 640 753.771 640C753.729 640 753.687 640 753.644 640C753.602 640 753.56 640 753.517 640C753.474 640 753.432 640 753.389 640C753.346 640 753.304 640 753.261 640C753.218 640 753.175 640 753.132 640C753.089 640 753.046 640 753.003 640C752.96 640 752.916 640 752.873 640C752.83 640 752.786 640 752.743 640C752.7 640 752.656 640 752.613 640C752.569 640 752.525 640 752.482 640C752.438 640 752.394 640 752.35 640C752.306 640 752.262 640 752.218 640C752.174 640 752.13 640 752.086 640C752.042 640 751.998 640 751.954 640C751.909 640 751.865 640 751.82 640C751.776 640 751.732 640 751.687 640C751.642 640 751.598 640 751.553 640C751.508 640 751.464 640 751.419 640C751.374 640 751.329 640 751.284 640C751.239 640 751.194 640 751.149 640C751.104 640 751.059 640 751.013 640C750.968 640 750.923 640 750.878 640C750.832 640 750.787 640 750.741 640C750.696 640 750.65 640 750.605 640C750.559 640 750.513 640 750.467 640C750.422 640 750.376 640 750.33 640C750.284 640 750.238 640 750.192 640C750.146 640 750.1 640 750.054 640C750.008 640 749.962 640 749.915 640C749.869 640 749.823 640 749.776 640C749.73 640 749.683 640 749.637 640C749.59 640 749.544 640 749.497 640C749.451 640 749.404 640 749.357 640C749.31 640 749.263 640 749.216 640C749.17 640 749.123 640 749.076 640C749.029 640 748.982 640 748.934 640C748.887 640 748.84 640 748.793 640C748.746 640 748.698 640 748.651 640C748.604 640 748.556 640 748.509 640C748.461 640 748.414 640 748.366 640C748.318 640 748.271 640 748.223 640C748.175 640 748.128 640 748.08 640C748.032 640 747.984 640 747.936 640C747.888 640 747.84 640 747.792 640C747.744 640 747.696 640 747.648 640C747.599 640 747.551 640 747.503 640C747.455 640 747.406 640 747.358 640C747.31 640 747.261 640 747.213 640C747.164 640 747.116 640 747.067 640C747.018 640 746.97 640 746.921 640C746.872 640 746.823 640 746.775 640C746.726 640 746.677 640 746.628 640C746.579 640 746.53 640 746.481 640C746.432 640 746.383 640 746.334 640C746.285 640 746.235 640 746.186 640C746.137 640 746.088 640 746.038 640C745.989 640 745.939 640 745.89 640C745.841 640 745.791 640 745.742 640C745.692 640 745.642 640 745.593 640C745.543 640 745.493 640 745.444 640C745.394 640 745.344 640 745.294 640C745.244 640 745.194 640 745.145 640C745.095 640 745.045 640 744.995 640C744.945 640 744.894 640 744.844 640C744.794 640 744.744 640 744.694 640C744.643 640 744.593 640 744.543 640C744.493 640 744.442 640 744.392 640C744.341 640 744.291 640 744.24 640C744.19 640 744.139 640 744.089 640C744.038 640 743.987 640 743.937 640C743.886 640 743.835 640 743.785 640C743.734 640 743.683 640 743.632 640C743.581 640 743.53 640 743.479 640C743.428 640 743.377 640 743.326 640C743.275 640 743.224 640 743.173 640C743.122 640 743.071 640 743.02 640C742.968 640 742.917 640 742.866 640C742.815 640 742.763 640 742.712 640C742.66 640 742.609 640 742.558 640C742.506 640 742.455 640 742.403 640C742.352 640 742.3 640 742.248 640C742.197 640 742.145 640 742.093 640C742.042 640 741.99 640 741.938 640C741.886 640 741.835 640 741.783 640C741.731 640 741.679 640 741.627 640C741.575 640 741.523 640 741.471 640C741.419 640 741.367 640 741.315 640C741.263 640 741.211 640 741.159 640C741.106 640 741.054 640 741.002 640C740.95 640 740.898 640 740.845 640C740.793 640 740.741 640 740.688 640C740.636 640 740.583 640 740.531 640C740.479 640 740.426 640 740.374 640C740.321 640 740.268 640 740.216 640C740.163 640 740.111 640 740.058 640C740.005 640 739.953 640 739.9 640C739.847 640 739.794 640 739.742 640C739.689 640 739.636 640 739.583 640C739.53 640 739.478 640 739.425 640C739.372 640 739.319 640 739.266 640C739.213 640 739.16 640 739.107 640C739.054 640 739.001 640 738.948 640C738.894 640 738.841 640 738.788 640C738.735 640 738.682 640 738.629 640C738.575 640 738.522 640 738.469 640C738.416 640 738.362 640 738.309 640C738.256 640 738.202 640 738.149 640C738.095 640 738.042 640 737.989 640C737.935 640 737.882 640 737.828 640C737.775 640 737.721 640 737.667 640C737.614 640 737.56 640 737.507 640C737.453 640 737.399 640 737.346 640C737.292 640 737.238 640 737.185 640C737.131 640 737.077 640 737.023 640C736.97 640 736.916 640 736.862 640C736.808 640 736.754 640 736.701 640C736.647 640 736.593 640 736.539 640C736.485 640 736.431 640 736.377 640C736.323 640 736.269 640 736.215 640C736.161 640 736.107 640 736.053 640C735.999 640 735.945 640 735.891 640C735.837 640 735.782 640 735.728 640C735.674 640 735.62 640 735.566 640C735.512 640 735.457 640 735.403 640C735.349 640 735.295 640 735.24 640C735.186 640 735.132 640 735.078 640C735.023 640 734.969 640 734.914 640C734.86 640 734.806 640 734.751 640C734.697 640 734.643 640 734.588 640C734.534 640 734.479 640 734.425 640C734.37 640 734.316 640 734.261 640C734.207 640 734.152 640 734.098 640C734.043 640 733.989 640 733.934 640C733.88 640 733.825 640 733.77 640C733.716 640 733.661 640 733.606 640C733.552 640 733.497 640 733.443 640C733.388 640 733.333 640 733.278 640C733.224 640 733.169 640 733.114 640C733.06 640 733.005 640 732.95 640C732.895 640 732.841 640 732.786 640C732.731 640 732.676 640 732.621 640C732.567 640 732.512 640 732.457 640C732.402 640 732.347 640 732.292 640C732.237 640 732.183 640 732.128 640C732.073 640 732.018 640 731.963 640C731.908 640 731.853 640 731.798 640C731.743 640 731.688 640 731.633 640C731.578 640 731.523 640 731.469 640C731.414 640 731.359 640 731.304 640C731.249 640 731.193 640 731.138 640C731.083 640 731.028 640 730.973 640C730.918 640 730.863 640 730.808 640C730.753 640 730.698 640 730.643 640C730.588 640 730.533 640 730.478 640C730.423 640 730.368 640 730.313 640C730.258 640 730.202 640 730.147 640C730.092 640 730.037 640 729.982 640C729.927 640 729.872 640 729.817 640C729.761 640 729.706 640 729.651 640C729.596 640 729.541 640 729.486 640C729.43 640 729.375 640 729.32 640C729.265 640 729.21 640 729.155 640C729.099 640 729.044 640 728.989 640C728.934 640 728.879 640 728.823 640C728.768 640 728.713 640 728.658 640C728.603 640 728.548 640 728.492 640C728.437 640 728.382 640 728.327 640C728.272 640 728.216 640 728.161 640C728.106 640 728.051 640 727.995 640C727.94 640 727.885 640 727.83 640C727.775 640 727.719 640 727.664 640C727.609 640 727.554 640 727.499 640C727.443 640 727.388 640 727.333 640C727.278 640 727.223 640 727.167 640C727.112 640 727.057 640 727.002 640C726.946 640 726.891 640 726.836 640C726.781 640 726.726 640 726.67 640C726.615 640 726.56 640 726.505 640C726.45 640 726.395 640 726.339 640C726.284 640 726.229 640 726.174 640C726.119 640 726.063 640 726.008 640C725.953 640 725.898 640 725.843 640C725.788 640 725.732 640 725.677 640C725.622 640 725.567 640 725.512 640C725.457 640 725.402 640 725.346 640C725.291 640 725.236 640 725.181 640C725.126 640 725.071 640 725.016 640C724.961 640 724.906 640 724.851 640C724.795 640 724.74 640 724.685 640C724.63 640 724.575 640 724.52 640C724.465 640 724.41 640 724.355 640C724.3 640 724.245 640 724.19 640C724.135 640 724.08 640 724.025 640C723.97 640 723.915 640 723.86 640C723.805 640 723.75 640 723.695 640C723.64 640 723.585 640 723.53 640C723.475 640 723.42 640 723.365 640C723.31 640 723.256 640 723.201 640C723.146 640 723.091 640 723.036 640C722.981 640 722.926 640 722.872 640C722.817 640 722.762 640 722.707 640C722.652 640 722.597 640 722.543 640C722.488 640 722.433 640 722.378 640C722.324 640 722.269 640 722.214 640C722.159 640 722.105 640 722.05 640C721.995 640 721.941 640 721.886 640C721.831 640 721.777 640 721.722 640C721.667 640 721.613 640 721.558 640C721.503 640 721.449 640 721.394 640C721.34 640 721.285 640 721.231 640C721.176 640 721.122 640 721.067 640C721.013 640 720.958 640 720.904 640C720.849 640 720.795 640 720.74 640C720.686 640 720.631 640 720.577 640C720.523 640 720.468 640 720.414 640C720.359 640 720.305 640 720.251 640C720.197 640 720.142 640 720.088 640C720.034 640 719.979 640 719.925 640C719.871 640 719.817 640 719.763 640C719.708 640 719.654 640 719.6 640C719.546 640 719.492 640 719.438 640C719.384 640 719.329 640 719.275 640C719.221 640 719.167 640 719.113 640C719.059 640 719.005 640 718.951 640C718.897 640 718.843 640 718.789 640C718.736 640 718.682 640 718.628 640C718.574 640 718.52 640 718.466 640C718.412 640 718.359 640 718.305 640C718.251 640 718.197 640 718.144 640C718.09 640 718.036 640 717.983 640C717.929 640 717.875 640 717.822 640C717.768 640 717.714 640 717.661 640C717.607 640 717.554 640 717.5 640C717.447 640 717.393 640 717.34 640C717.286 640 717.233 640 717.18 640C717.126 640 717.073 640 717.019 640C716.966 640 716.913 640 716.859 640C716.806 640 716.753 640 716.7 640C716.646 640 716.593 640 716.54 640C716.487 640 716.434 640 716.381 640C716.328 640 716.275 640 716.222 640C716.169 640 716.115 640 716.062 640C716.01 640 715.957 640 715.904 640C715.851 640 715.798 640 715.745 640C715.692 640 715.639 640 715.587 640C715.534 640 715.481 640 715.428 640C715.376 640 715.323 640 715.27 640C715.218 640 715.165 640 715.112 640C715.06 640 715.007 640 714.955 640C714.902 640 714.85 640 714.797 640C714.745 640 714.692 640 714.64 640C714.588 640 714.535 640 714.483 640C714.431 640 714.378 640 714.326 640C714.274 640 714.222 640 714.17 640C714.117 640 714.065 640 714.013 640C713.961 640 713.909 640 713.857 640C713.805 640 713.753 640 713.701 640C713.649 640 713.597 640 713.546 640C713.494 640 713.442 640 713.39 640C713.338 640 713.287 640 713.235 640C713.183 640 713.131 640 713.08 640C713.028 640 712.977 640 712.925 640C712.874 640 712.822 640 712.771 640C712.719 640 712.668 640 712.616 640C712.565 640 712.514 640 712.462 640C712.411 640 712.36 640 712.309 640C712.257 640 712.206 640 712.155 640C712.104 640 712.053 640 712.002 640C711.951 640 711.9 640 711.849 640C711.798 640 711.747 640 711.696 640C711.645 640 711.594 640 711.544 640C711.493 640 711.442 640 711.391 640C711.341 640 711.29 640 711.239 640C711.189 640 711.138 640 711.088 640C711.037 640 710.987 640 710.936 640C710.886 640 710.836 640 710.785 640C710.735 640 710.685 640 710.634 640C710.584 640 710.534 640 710.484 640C710.434 640 710.384 640 710.334 640C710.284 640 710.234 640 710.184 640C710.134 640 710.084 640 710.034 640C709.984 640 709.934 640 709.885 640C709.835 640 709.785 640 709.735 640C709.686 640 709.636 640 709.587 640C709.537 640 709.488 640 709.438 640C709.389 640 709.339 640 709.29 640C709.241 640 709.191 640 709.142 640C709.093 640 709.044 640 708.994 640C708.945 640 708.896 640 708.847 640C708.798 640 708.749 640 708.7 640C708.651 640 708.602 640 708.554 640C708.505 640 708.456 640 708.407 640C708.358 640 708.31 640 708.261 640C708.213 640 708.164 640 708.115 640C708.067 640 708.018 640 707.97 640C707.922 640 707.873 640 707.825 640C707.777 640 707.729 640 707.68 640C707.632 640 707.584 640 707.536 640C707.488 640 707.44 640 707.392 640C707.344 640 707.296 640 707.248 640C707.201 640 707.153 640 707.105 640C707.057 640 707.01 640 706.962 640C706.914 640 706.867 640 706.819 640C706.772 640 706.724 640 706.677 640C706.63 640 706.582 640 706.535 640C706.488 640 706.441 640 706.394 640C706.346 640 706.299 640 706.252 640C706.205 640 706.158 640 706.111 640C706.065 640 706.018 640 705.971 640C705.924 640 705.878 640 705.831 640C705.784 640 705.738 640 705.691 640C705.645 640 705.598 640 705.552 640C705.505 640 705.459 640 705.413 640C705.366 640 705.32 640 705.274 640C705.228 640 705.182 640 705.136 640C705.09 640 705.044 640 704.998 640C704.952 640 704.906 640 704.86 640C704.815 640 704.769 640 704.723 640C704.678 640 704.632 640 704.587 640C704.541 640 704.496 640 704.45 640C704.405 640 704.36 640 704.314 640C704.269 640 704.224 640 704.179 640C704.134 640 704.089 640 704.044 640C703.999 640 703.954 640 703.909 640C703.864 640 703.819 640 703.775 640C703.73 640 703.685 640 703.641 640C703.596 640 703.552 640 703.507 640C703.463 640 703.419 640 703.374 640C703.33 640 703.286 640 703.242 640C703.198 640 703.153 640 703.109 640C703.065 640 703.021 640 702.978 640C702.934 640 702.89 640 702.846 640C702.802 640 702.759 640 702.715 640C702.672 640 702.628 640 702.585 640C702.541 640 702.498 640 702.455 640C702.411 640 702.368 640 702.325 640C702.282 640 702.239 640 702.196 640C702.153 640 702.11 640 702.067 640C702.024 640 701.981 640 701.939 640C701.896 640 701.853 640 701.811 640C701.768 640 701.726 640 701.683 640C701.641 640 701.599 640 701.556 640C701.514 640 701.472 640 701.43 640C701.388 640 701.346 640 701.304 640C701.262 640 701.22 640 701.178 640C701.136 640 701.095 640 701.053 640C701.011 640 700.97 640 700.928 640C700.887 640 700.845 640 700.804 640C700.763 640 700.722 640 700.68 640C700.639 640 700.598 640 700.557 640C700.516 640 700.475 640 700.434 640C700.393 640 700.353 640 700.312 640C700.271 640 700.231 640 700.19 640C700.15 640 700.109 640 700.069 640C700.029 640 699.988 640 699.948 640C699.908 640 699.868 640 699.828 640C699.788 640 699.748 640 699.708 640C699.668 640 699.628 640 699.588 640C699.549 640 699.509 640 699.469 640C699.43 640 699.391 640 699.351 640C699.312 640 699.272 640 699.233 640C699.194 640 699.155 640 699.116 640C699.077 640 699.038 640 698.999 640C698.96 640 698.921 640 698.883 640C698.844 640 698.805 640 698.767 640C698.728 640 698.69 640 698.651 640C698.613 640 698.575 640 698.537 640C698.498 640 698.46 640 698.422 640C698.384 640 698.346 640 698.309 640C698.271 640 698.233 640 698.195 640C698.158 640 698.12 640 698.083 640C698.045 640 698.008 640 697.97 640C697.933 640 697.896 640 697.859 640C697.822 640 697.785 640 697.748 640C697.711 640 697.674 640 697.637 640C697.6 640 697.564 640 697.527 640C697.49 640 697.454 640 697.418 640C697.381 640 697.345 640 697.309 640C697.272 640 697.236 640 697.2 640C697.164 640 697.128 640 697.092 640C697.057 640 697.021 640 696.985 640C696.95 640 696.914 640 696.878 640C696.843 640 696.808 640 696.772 640C696.737 640 696.702 640 696.667 640C696.632 640 696.597 640 696.562 640C696.527 640 696.492 640 696.457 640C696.423 640 696.388 640 696.353 640C696.319 640 696.284 640 696.25 640C696.216 640 696.182 640 696.147 640C696.113 640 696.079 640 696.045 640C696.011 640 695.977 640 695.944 640C695.91 640 695.876 640 695.843 640C695.809 640 695.776 640 695.742 640C695.709 640 695.676 640 695.642 640C695.609 640 695.576 640 695.543 640C695.51 640 695.477 640 695.445 640C695.412 640 695.379 640 695.347 640C695.314 640 695.282 640 695.249 640C695.217 640 695.185 640 695.152 640C695.12 640 695.088 640 695.056 640C695.024 640 694.992 640 694.961 640C694.929 640 694.897 640 694.866 640C694.834 640 694.803 640 694.771 640C694.74 640 694.709 640 694.677 640C694.646 640 694.615 640 694.584 640C694.553 640 694.523 640 694.492 640C694.461 640 694.43 640 694.4 640C694.369 640 694.339 640 694.309 640C694.278 640 694.248 640 694.218 640C694.188 640 694.158 640 694.128 640C694.098 640 694.068 640 694.039 640C694.009 640 693.979 640 693.95 640C693.921 640 693.891 640 693.862 640C693.833 640 693.804 640 693.774 640C693.745 640 693.716 640 693.688 640C693.659 640 693.63 640 693.602 640C693.573 640 693.544 640 693.516 640C693.488 640 693.459 640 693.431 640C693.403 640 693.375 640 693.347 640C693.319 640 693.291 640 693.264 640C693.236 640 693.208 640 693.181 640C693.153 640 693.126 640 693.099 640C693.071 640 693.044 640 693.017 640C692.99 640 692.963 640 692.936 640C692.909 640 692.883 640 692.856 640C692.829 640 692.803 640 692.776 640C692.75 640 692.724 640 692.698 640C692.671 640 692.645 640 692.619 640C692.594 640 692.568 640 692.542 640C692.516 640 692.491 640 692.465 640C692.44 640 692.414 640 692.389 640C692.364 640 692.339 640 692.314 640C692.289 640 692.264 640 692.239 640C692.214 640 692.19 640 692.165 640C692.141 640 692.116 640 692.092 640C692.067 640 692.043 640 692.019 640C691.995 640 691.971 640 691.947 640C691.923 640 691.9 640 691.876 640C691.852 640 691.829 640 691.806 640C691.782 640 691.759 640 691.736 640C691.713 640 691.69 640 691.667 640C691.644 640 691.621 640 691.598 640C691.576 640 691.553 640 691.531 640C691.508 640 691.486 640 691.464 640C691.442 640 691.42 640 691.398 640C691.376 640 691.354 640 691.332 640C691.311 640 691.289 640 691.268 640C691.246 640 691.225 640 691.204 640C691.182 640 691.161 640 691.14 640C691.119 640 691.099 640 691.078 640C691.057 640 691.037 640 691.016 640C690.996 640 690.975 640 690.955 640C690.935 640 690.915 640 690.895 640C690.875 640 690.855 640 690.835 640C690.816 640 690.796 640 690.777 640C690.757 640 690.738 640 690.719 640C690.699 640 690.68 640 690.661 640C690.642 640 690.624 640 690.605 640C690.586 640 690.568 640 690.549 640C690.531 640 690.512 640 690.494 640C690.476 640 690.458 640 690.44 640C690.422 640 690.404 640 690.387 640C690.369 640 690.351 640 690.334 640C690.317 640 690.299 640 690.282 640C690.265 640 690.248 640 690.231 640C690.214 640 690.197 640 690.181 640C690.164 640 690.148 640 690.131 640C690.115 640 690.099 640 690.083 640C690.066 640 690.05 640 690.035 640C690.019 640 690.003 640 689.987 640C689.972 640 689.956 640 689.941 640C689.926 640 689.911 640 689.896 640C689.88 640 689.866 640 689.851 640C689.836 640 689.821 640 689.807 640C689.792 640 689.778 640 689.764 640C689.749 640 689.735 640 689.721 640C689.707 640 689.694 640 689.68 640C689.666 640 689.653 640 689.639 640C689.626 640 689.612 640 689.599 640C689.586 640 689.573 640 689.56 640C689.547 640 689.535 640 689.522 640C689.509 640 689.497 640 689.484 640C689.472 640 689.46 640 689.448 640C689.436 640 689.424 640 689.412 640C689.4 640 689.389 640 689.377 640C689.366 640 689.354 640 689.343 640C689.332 640 689.321 640 689.31 640C689.299 640 689.288 640 689.277 640C689.267 640 689.256 640 689.246 640C689.235 640 689.225 640 689.215 640C689.205 640 689.195 640 689.185 640C689.175 640 689.166 640 689.156 640C689.147 640 689.137 640 689.128 640C689.119 640 689.11 640 689.101 640C689.092 640 689.083 640 689.074 640C689.066 640 689.057 640 689.049 640C689.04 640 689.032 640 689.024 640C689.016 640 689.008 640 689 640V642V644C689.008 644 689.016 644 689.024 644C689.032 644 689.04 644 689.049 644C689.057 644 689.066 644 689.074 644C689.083 644 689.092 644 689.101 644C689.11 644 689.119 644 689.128 644C689.137 644 689.147 644 689.156 644C689.166 644 689.175 644 689.185 644C689.195 644 689.205 644 689.215 644C689.225 644 689.235 644 689.246 644C689.256 644 689.267 644 689.277 644C689.288 644 689.299 644 689.31 644C689.321 644 689.332 644 689.343 644C689.354 644 689.366 644 689.377 644C689.389 644 689.4 644 689.412 644C689.424 644 689.436 644 689.448 644C689.46 644 689.472 644 689.484 644C689.497 644 689.509 644 689.522 644C689.535 644 689.547 644 689.56 644C689.573 644 689.586 644 689.599 644C689.612 644 689.626 644 689.639 644C689.653 644 689.666 644 689.68 644C689.694 644 689.707 644 689.721 644C689.735 644 689.749 644 689.764 644C689.778 644 689.792 644 689.807 644C689.821 644 689.836 644 689.851 644C689.866 644 689.88 644 689.896 644C689.911 644 689.926 644 689.941 644C689.956 644 689.972 644 689.987 644C690.003 644 690.019 644 690.035 644C690.05 644 690.066 644 690.083 644C690.099 644 690.115 644 690.131 644C690.148 644 690.164 644 690.181 644C690.197 644 690.214 644 690.231 644C690.248 644 690.265 644 690.282 644C690.299 644 690.317 644 690.334 644C690.351 644 690.369 644 690.387 644C690.404 644 690.422 644 690.44 644C690.458 644 690.476 644 690.494 644C690.512 644 690.531 644 690.549 644C690.568 644 690.586 644 690.605 644C690.624 644 690.642 644 690.661 644C690.68 644 690.699 644 690.719 644C690.738 644 690.757 644 690.777 644C690.796 644 690.816 644 690.835 644C690.855 644 690.875 644 690.895 644C690.915 644 690.935 644 690.955 644C690.975 644 690.996 644 691.016 644C691.037 644 691.057 644 691.078 644C691.099 644 691.119 644 691.14 644C691.161 644 691.182 644 691.204 644C691.225 644 691.246 644 691.268 644C691.289 644 691.311 644 691.332 644C691.354 644 691.376 644 691.398 644C691.42 644 691.442 644 691.464 644C691.486 644 691.508 644 691.531 644C691.553 644 691.576 644 691.598 644C691.621 644 691.644 644 691.667 644C691.69 644 691.713 644 691.736 644C691.759 644 691.782 644 691.806 644C691.829 644 691.852 644 691.876 644C691.9 644 691.923 644 691.947 644C691.971 644 691.995 644 692.019 644C692.043 644 692.067 644 692.092 644C692.116 644 692.141 644 692.165 644C692.19 644 692.214 644 692.239 644C692.264 644 692.289 644 692.314 644C692.339 644 692.364 644 692.389 644C692.414 644 692.44 644 692.465 644C692.491 644 692.516 644 692.542 644C692.568 644 692.594 644 692.619 644C692.645 644 692.671 644 692.698 644C692.724 644 692.75 644 692.776 644C692.803 644 692.829 644 692.856 644C692.883 644 692.909 644 692.936 644C692.963 644 692.99 644 693.017 644C693.044 644 693.071 644 693.099 644C693.126 644 693.153 644 693.181 644C693.208 644 693.236 644 693.264 644C693.291 644 693.319 644 693.347 644C693.375 644 693.403 644 693.431 644C693.459 644 693.488 644 693.516 644C693.544 644 693.573 644 693.602 644C693.63 644 693.659 644 693.688 644C693.716 644 693.745 644 693.774 644C693.804 644 693.833 644 693.862 644C693.891 644 693.921 644 693.95 644C693.979 644 694.009 644 694.039 644C694.068 644 694.098 644 694.128 644C694.158 644 694.188 644 694.218 644C694.248 644 694.278 644 694.309 644C694.339 644 694.369 644 694.4 644C694.43 644 694.461 644 694.492 644C694.523 644 694.553 644 694.584 644C694.615 644 694.646 644 694.677 644C694.709 644 694.74 644 694.771 644C694.803 644 694.834 644 694.866 644C694.897 644 694.929 644 694.961 644C694.992 644 695.024 644 695.056 644C695.088 644 695.12 644 695.152 644C695.185 644 695.217 644 695.249 644C695.282 644 695.314 644 695.347 644C695.379 644 695.412 644 695.445 644C695.477 644 695.51 644 695.543 644C695.576 644 695.609 644 695.642 644C695.676 644 695.709 644 695.742 644C695.776 644 695.809 644 695.843 644C695.876 644 695.91 644 695.944 644C695.977 644 696.011 644 696.045 644C696.079 644 696.113 644 696.147 644C696.182 644 696.216 644 696.25 644C696.284 644 696.319 644 696.353 644C696.388 644 696.423 644 696.457 644C696.492 644 696.527 644 696.562 644C696.597 644 696.632 644 696.667 644C696.702 644 696.737 644 696.772 644C696.808 644 696.843 644 696.878 644C696.914 644 696.95 644 696.985 644C697.021 644 697.057 644 697.092 644C697.128 644 697.164 644 697.2 644C697.236 644 697.272 644 697.309 644C697.345 644 697.381 644 697.418 644C697.454 644 697.49 644 697.527 644C697.564 644 697.6 644 697.637 644C697.674 644 697.711 644 697.748 644C697.785 644 697.822 644 697.859 644C697.896 644 697.933 644 697.97 644C698.008 644 698.045 644 698.083 644C698.12 644 698.158 644 698.195 644C698.233 644 698.271 644 698.309 644C698.346 644 698.384 644 698.422 644C698.46 644 698.498 644 698.537 644C698.575 644 698.613 644 698.651 644C698.69 644 698.728 644 698.767 644C698.805 644 698.844 644 698.883 644C698.921 644 698.96 644 698.999 644C699.038 644 699.077 644 699.116 644C699.155 644 699.194 644 699.233 644C699.272 644 699.312 644 699.351 644C699.391 644 699.43 644 699.469 644C699.509 644 699.549 644 699.588 644C699.628 644 699.668 644 699.708 644C699.748 644 699.788 644 699.828 644C699.868 644 699.908 644 699.948 644C699.988 644 700.029 644 700.069 644C700.109 644 700.15 644 700.19 644C700.231 644 700.271 644 700.312 644C700.353 644 700.393 644 700.434 644C700.475 644 700.516 644 700.557 644C700.598 644 700.639 644 700.68 644C700.722 644 700.763 644 700.804 644C700.845 644 700.887 644 700.928 644C700.97 644 701.011 644 701.053 644C701.095 644 701.136 644 701.178 644C701.22 644 701.262 644 701.304 644C701.346 644 701.388 644 701.43 644C701.472 644 701.514 644 701.556 644C701.599 644 701.641 644 701.683 644C701.726 644 701.768 644 701.811 644C701.853 644 701.896 644 701.939 644C701.981 644 702.024 644 702.067 644C702.11 644 702.153 644 702.196 644C702.239 644 702.282 644 702.325 644C702.368 644 702.411 644 702.455 644C702.498 644 702.541 644 702.585 644C702.628 644 702.672 644 702.715 644C702.759 644 702.802 644 702.846 644C702.89 644 702.934 644 702.978 644C703.021 644 703.065 644 703.109 644C703.153 644 703.198 644 703.242 644C703.286 644 703.33 644 703.374 644C703.419 644 703.463 644 703.507 644C703.552 644 703.596 644 703.641 644C703.685 644 703.73 644 703.775 644C703.819 644 703.864 644 703.909 644C703.954 644 703.999 644 704.044 644C704.089 644 704.134 644 704.179 644C704.224 644 704.269 644 704.314 644C704.36 644 704.405 644 704.45 644C704.496 644 704.541 644 704.587 644C704.632 644 704.678 644 704.723 644C704.769 644 704.815 644 704.86 644C704.906 644 704.952 644 704.998 644C705.044 644 705.09 644 705.136 644C705.182 644 705.228 644 705.274 644C705.32 644 705.366 644 705.413 644C705.459 644 705.505 644 705.552 644C705.598 644 705.645 644 705.691 644C705.738 644 705.784 644 705.831 644C705.878 644 705.924 644 705.971 644C706.018 644 706.065 644 706.111 644C706.158 644 706.205 644 706.252 644C706.299 644 706.346 644 706.394 644C706.441 644 706.488 644 706.535 644C706.582 644 706.63 644 706.677 644C706.724 644 706.772 644 706.819 644C706.867 644 706.914 644 706.962 644C707.01 644 707.057 644 707.105 644C707.153 644 707.201 644 707.248 644C707.296 644 707.344 644 707.392 644C707.44 644 707.488 644 707.536 644C707.584 644 707.632 644 707.68 644C707.729 644 707.777 644 707.825 644C707.873 644 707.922 644 707.97 644C708.018 644 708.067 644 708.115 644C708.164 644 708.213 644 708.261 644C708.31 644 708.358 644 708.407 644C708.456 644 708.505 644 708.554 644C708.602 644 708.651 644 708.7 644C708.749 644 708.798 644 708.847 644C708.896 644 708.945 644 708.994 644C709.044 644 709.093 644 709.142 644C709.191 644 709.241 644 709.29 644C709.339 644 709.389 644 709.438 644C709.488 644 709.537 644 709.587 644C709.636 644 709.686 644 709.735 644C709.785 644 709.835 644 709.885 644C709.934 644 709.984 644 710.034 644C710.084 644 710.134 644 710.184 644C710.234 644 710.284 644 710.334 644C710.384 644 710.434 644 710.484 644C710.534 644 710.584 644 710.634 644C710.685 644 710.735 644 710.785 644C710.836 644 710.886 644 710.936 644C710.987 644 711.037 644 711.088 644C711.138 644 711.189 644 711.239 644C711.29 644 711.341 644 711.391 644C711.442 644 711.493 644 711.544 644C711.594 644 711.645 644 711.696 644C711.747 644 711.798 644 711.849 644C711.9 644 711.951 644 712.002 644C712.053 644 712.104 644 712.155 644C712.206 644 712.257 644 712.309 644C712.36 644 712.411 644 712.462 644C712.514 644 712.565 644 712.616 644C712.668 644 712.719 644 712.771 644C712.822 644 712.874 644 712.925 644C712.977 644 713.028 644 713.08 644C713.131 644 713.183 644 713.235 644C713.287 644 713.338 644 713.39 644C713.442 644 713.494 644 713.546 644C713.597 644 713.649 644 713.701 644C713.753 644 713.805 644 713.857 644C713.909 644 713.961 644 714.013 644C714.065 644 714.117 644 714.17 644C714.222 644 714.274 644 714.326 644C714.378 644 714.431 644 714.483 644C714.535 644 714.588 644 714.64 644C714.692 644 714.745 644 714.797 644C714.85 644 714.902 644 714.955 644C715.007 644 715.06 644 715.112 644C715.165 644 715.218 644 715.27 644C715.323 644 715.376 644 715.428 644C715.481 644 715.534 644 715.587 644C715.639 644 715.692 644 715.745 644C715.798 644 715.851 644 715.904 644C715.957 644 716.01 644 716.062 644C716.115 644 716.169 644 716.222 644C716.275 644 716.328 644 716.381 644C716.434 644 716.487 644 716.54 644C716.593 644 716.646 644 716.7 644C716.753 644 716.806 644 716.859 644C716.913 644 716.966 644 717.019 644C717.073 644 717.126 644 717.18 644C717.233 644 717.286 644 717.34 644C717.393 644 717.447 644 717.5 644C717.554 644 717.607 644 717.661 644C717.714 644 717.768 644 717.822 644C717.875 644 717.929 644 717.983 644C718.036 644 718.09 644 718.144 644C718.197 644 718.251 644 718.305 644C718.359 644 718.412 644 718.466 644C718.52 644 718.574 644 718.628 644C718.682 644 718.736 644 718.789 644C718.843 644 718.897 644 718.951 644C719.005 644 719.059 644 719.113 644C719.167 644 719.221 644 719.275 644C719.329 644 719.384 644 719.438 644C719.492 644 719.546 644 719.6 644C719.654 644 719.708 644 719.763 644C719.817 644 719.871 644 719.925 644C719.979 644 720.034 644 720.088 644C720.142 644 720.197 644 720.251 644C720.305 644 720.359 644 720.414 644C720.468 644 720.523 644 720.577 644C720.631 644 720.686 644 720.74 644C720.795 644 720.849 644 720.904 644C720.958 644 721.013 644 721.067 644C721.122 644 721.176 644 721.231 644C721.285 644 721.34 644 721.394 644C721.449 644 721.503 644 721.558 644C721.613 644 721.667 644 721.722 644C721.777 644 721.831 644 721.886 644C721.941 644 721.995 644 722.05 644C722.105 644 722.159 644 722.214 644C722.269 644 722.324 644 722.378 644C722.433 644 722.488 644 722.543 644C722.597 644 722.652 644 722.707 644C722.762 644 722.817 644 722.872 644C722.926 644 722.981 644 723.036 644C723.091 644 723.146 644 723.201 644C723.256 644 723.31 644 723.365 644C723.42 644 723.475 644 723.53 644C723.585 644 723.64 644 723.695 644C723.75 644 723.805 644 723.86 644C723.915 644 723.97 644 724.025 644C724.08 644 724.135 644 724.19 644C724.245 644 724.3 644 724.355 644C724.41 644 724.465 644 724.52 644C724.575 644 724.63 644 724.685 644C724.74 644 724.795 644 724.851 644C724.906 644 724.961 644 725.016 644C725.071 644 725.126 644 725.181 644C725.236 644 725.291 644 725.346 644C725.402 644 725.457 644 725.512 644C725.567 644 725.622 644 725.677 644C725.732 644 725.788 644 725.843 644C725.898 644 725.953 644 726.008 644C726.063 644 726.119 644 726.174 644C726.229 644 726.284 644 726.339 644C726.395 644 726.45 644 726.505 644C726.56 644 726.615 644 726.67 644C726.726 644 726.781 644 726.836 644C726.891 644 726.946 644 727.002 644C727.057 644 727.112 644 727.167 644C727.223 644 727.278 644 727.333 644C727.388 644 727.443 644 727.499 644C727.554 644 727.609 644 727.664 644C727.719 644 727.775 644 727.83 644C727.885 644 727.94 644 727.995 644C728.051 644 728.106 644 728.161 644C728.216 644 728.272 644 728.327 644C728.382 644 728.437 644 728.492 644C728.548 644 728.603 644 728.658 644C728.713 644 728.768 644 728.823 644C728.879 644 728.934 644 728.989 644C729.044 644 729.099 644 729.155 644C729.21 644 729.265 644 729.32 644C729.375 644 729.43 644 729.486 644C729.541 644 729.596 644 729.651 644C729.706 644 729.761 644 729.817 644C729.872 644 729.927 644 729.982 644C730.037 644 730.092 644 730.147 644C730.202 644 730.258 644 730.313 644C730.368 644 730.423 644 730.478 644C730.533 644 730.588 644 730.643 644C730.698 644 730.753 644 730.808 644C730.863 644 730.918 644 730.973 644C731.028 644 731.083 644 731.138 644C731.193 644 731.249 644 731.304 644C731.359 644 731.414 644 731.469 644C731.523 644 731.578 644 731.633 644C731.688 644 731.743 644 731.798 644C731.853 644 731.908 644 731.963 644C732.018 644 732.073 644 732.128 644C732.183 644 732.237 644 732.292 644C732.347 644 732.402 644 732.457 644C732.512 644 732.567 644 732.621 644C732.676 644 732.731 644 732.786 644C732.841 644 732.895 644 732.95 644C733.005 644 733.06 644 733.114 644C733.169 644 733.224 644 733.278 644C733.333 644 733.388 644 733.443 644C733.497 644 733.552 644 733.606 644C733.661 644 733.716 644 733.77 644C733.825 644 733.88 644 733.934 644C733.989 644 734.043 644 734.098 644C734.152 644 734.207 644 734.261 644C734.316 644 734.37 644 734.425 644C734.479 644 734.534 644 734.588 644C734.643 644 734.697 644 734.751 644C734.806 644 734.86 644 734.914 644C734.969 644 735.023 644 735.078 644C735.132 644 735.186 644 735.24 644C735.295 644 735.349 644 735.403 644C735.457 644 735.512 644 735.566 644C735.62 644 735.674 644 735.728 644C735.782 644 735.837 644 735.891 644C735.945 644 735.999 644 736.053 644C736.107 644 736.161 644 736.215 644C736.269 644 736.323 644 736.377 644C736.431 644 736.485 644 736.539 644C736.593 644 736.647 644 736.701 644C736.754 644 736.808 644 736.862 644C736.916 644 736.97 644 737.023 644C737.077 644 737.131 644 737.185 644C737.238 644 737.292 644 737.346 644C737.399 644 737.453 644 737.507 644C737.56 644 737.614 644 737.667 644C737.721 644 737.775 644 737.828 644C737.882 644 737.935 644 737.989 644C738.042 644 738.095 644 738.149 644C738.202 644 738.256 644 738.309 644C738.362 644 738.416 644 738.469 644C738.522 644 738.575 644 738.629 644C738.682 644 738.735 644 738.788 644C738.841 644 738.894 644 738.948 644C739.001 644 739.054 644 739.107 644C739.16 644 739.213 644 739.266 644C739.319 644 739.372 644 739.425 644C739.478 644 739.53 644 739.583 644C739.636 644 739.689 644 739.742 644C739.794 644 739.847 644 739.9 644C739.953 644 740.005 644 740.058 644C740.111 644 740.163 644 740.216 644C740.268 644 740.321 644 740.374 644C740.426 644 740.479 644 740.531 644C740.583 644 740.636 644 740.688 644C740.741 644 740.793 644 740.845 644C740.898 644 740.95 644 741.002 644C741.054 644 741.106 644 741.159 644C741.211 644 741.263 644 741.315 644C741.367 644 741.419 644 741.471 644C741.523 644 741.575 644 741.627 644C741.679 644 741.731 644 741.783 644C741.835 644 741.886 644 741.938 644C741.99 644 742.042 644 742.093 644C742.145 644 742.197 644 742.248 644C742.3 644 742.352 644 742.403 644C742.455 644 742.506 644 742.558 644C742.609 644 742.66 644 742.712 644C742.763 644 742.815 644 742.866 644C742.917 644 742.968 644 743.02 644C743.071 644 743.122 644 743.173 644C743.224 644 743.275 644 743.326 644C743.377 644 743.428 644 743.479 644C743.53 644 743.581 644 743.632 644C743.683 644 743.734 644 743.785 644C743.835 644 743.886 644 743.937 644C743.987 644 744.038 644 744.089 644C744.139 644 744.19 644 744.24 644C744.291 644 744.341 644 744.392 644C744.442 644 744.493 644 744.543 644C744.593 644 744.643 644 744.694 644C744.744 644 744.794 644 744.844 644C744.894 644 744.945 644 744.995 644C745.045 644 745.095 644 745.145 644C745.194 644 745.244 644 745.294 644C745.344 644 745.394 644 745.444 644C745.493 644 745.543 644 745.593 644C745.642 644 745.692 644 745.742 644C745.791 644 745.841 644 745.89 644C745.939 644 745.989 644 746.038 644C746.088 644 746.137 644 746.186 644C746.235 644 746.285 644 746.334 644C746.383 644 746.432 644 746.481 644C746.53 644 746.579 644 746.628 644C746.677 644 746.726 644 746.775 644C746.823 644 746.872 644 746.921 644C746.97 644 747.018 644 747.067 644C747.116 644 747.164 644 747.213 644C747.261 644 747.31 644 747.358 644C747.406 644 747.455 644 747.503 644C747.551 644 747.599 644 747.648 644C747.696 644 747.744 644 747.792 644C747.84 644 747.888 644 747.936 644C747.984 644 748.032 644 748.08 644C748.128 644 748.175 644 748.223 644C748.271 644 748.318 644 748.366 644C748.414 644 748.461 644 748.509 644C748.556 644 748.604 644 748.651 644C748.698 644 748.746 644 748.793 644C748.84 644 748.887 644 748.934 644C748.982 644 749.029 644 749.076 644C749.123 644 749.17 644 749.216 644C749.263 644 749.31 644 749.357 644C749.404 644 749.451 644 749.497 644C749.544 644 749.59 644 749.637 644C749.683 644 749.73 644 749.776 644C749.823 644 749.869 644 749.915 644C749.962 644 750.008 644 750.054 644C750.1 644 750.146 644 750.192 644C750.238 644 750.284 644 750.33 644C750.376 644 750.422 644 750.467 644C750.513 644 750.559 644 750.605 644C750.65 644 750.696 644 750.741 644C750.787 644 750.832 644 750.878 644C750.923 644 750.968 644 751.013 644C751.059 644 751.104 644 751.149 644C751.194 644 751.239 644 751.284 644C751.329 644 751.374 644 751.419 644C751.464 644 751.508 644 751.553 644C751.598 644 751.642 644 751.687 644C751.732 644 751.776 644 751.82 644C751.865 644 751.909 644 751.954 644C751.998 644 752.042 644 752.086 644C752.13 644 752.174 644 752.218 644C752.262 644 752.306 644 752.35 644C752.394 644 752.438 644 752.482 644C752.525 644 752.569 644 752.613 644C752.656 644 752.7 644 752.743 644C752.786 644 752.83 644 752.873 644C752.916 644 752.96 644 753.003 644C753.046 644 753.089 644 753.132 644C753.175 644 753.218 644 753.261 644C753.304 644 753.346 644 753.389 644C753.432 644 753.474 644 753.517 644C753.56 644 753.602 644 753.644 644C753.687 644 753.729 644 753.771 644C753.814 644 753.856 644 753.898 644C753.94 644 753.982 644 754.024 644C754.066 644 754.108 644 754.15 644C754.191 644 754.233 644 754.275 644C754.316 644 754.358 644 754.399 644C754.441 644 754.482 644 754.524 644C754.565 644 754.606 644 754.647 644C754.688 644 754.73 644 754.771 644C754.812 644 754.852 644 754.893 644C754.934 644 754.975 644 755.016 644C755.056 644 755.097 644 755.137 644C755.178 644 755.218 644 755.259 644C755.299 644 755.339 644 755.38 644C755.42 644 755.46 644 755.5 644V642ZM345 91.5L345.924 87.6083L345.726 87.5611L345.524 87.5344L345 91.5ZM796 10.5L797.562 6.81767L797.375 6.73817L797.18 6.6781L796 10.5ZM883 461.5L881.039 458.014L880.832 458.13L880.64 458.27L883 461.5ZM870 471L867.64 467.77L867.573 467.819L867.508 467.871L870 471ZM827.5 532.5L826.74 528.573L826.581 528.604L826.425 528.647L827.5 532.5ZM815 557L817.086 560.413L817.153 560.372L817.219 560.328L815 557ZM755.5 642V646H755.976L756.439 645.888L755.5 642ZM622.5 416.5L624.914 413.31L624.774 413.205L624.626 413.112L622.5 416.5ZM575.5 387L573.141 390.23L573.255 390.313L573.374 390.388L575.5 387ZM434.5 312.5L435.158 308.554L434.5 312.5ZM370 286.5L368.735 290.295L370 286.5ZM35.5 151.5L32.565 154.218L32.7353 154.402L32.9272 154.563L35.5 151.5ZM24.5 87L21.866 83.9897L21.682 84.1507L21.519 84.3328L24.5 87ZM7.60845 56.0464L4.39422 58.4273L7.60845 56.0464ZM16.9187 78.6483L13.7952 81.1471L16.9187 78.6483ZM15.7322 76.054L11.7991 76.7824L15.7322 76.054ZM19.5195 80.5065L20.7844 76.7118L19.5195 80.5065ZM16.9994 78.7493L13.876 81.2481L16.9994 78.7493ZM23.4577 81.8192L24.7226 78.0245L23.4577 81.8192ZM12.4474 88.9506L16.0666 87.2474L12.4474 88.9506ZM21.5634 90.2821L18.5825 87.6149L21.5634 90.2821ZM11.2349 87.2799L8.49348 90.1927L11.2349 87.2799ZM2.86285 93.7022L5.3017 90.5317L2.86285 93.7022ZM7.10764 99.262L3.20106 100.121L7.10764 99.262ZM4.25843 94.7757L1.81958 97.9462L4.25843 94.7757ZM14.9183 125.877L11.5901 128.096L14.9183 125.877ZM10.8696 116.362L6.96304 117.221L10.8696 116.362ZM24.5151 139.636L27.4501 136.919L24.5151 139.636ZM21.763 136.145L25.0912 133.926L21.763 136.145ZM50.2666 167.289L53.9432 165.713L50.2666 167.289ZM43.5941 158.299L46.1669 155.236L43.5941 158.299ZM56.817 176.175L54.224 179.221L56.817 176.175ZM85.1011 200.255L82.5081 203.301L85.1011 200.255ZM93.5243 222.024L96.3528 219.196L93.5243 222.024ZM113.151 236.31L116.447 234.044L113.151 236.31ZM103.737 228.118L105.525 224.541L103.737 228.118ZM117.479 241.125L120.082 238.088L117.479 241.125ZM139.909 260.35L142.512 257.313L139.909 260.35ZM145.913 273.636L148.597 270.67L145.913 273.636ZM148.621 276.085L151.304 273.119L148.621 276.085ZM215.102 280.179L214.498 276.225L215.102 280.179ZM246.898 275.321L247.502 279.275L246.898 275.321ZM317.207 275.542L316.421 279.464L317.207 275.542ZM390.732 302.326L393.265 299.231L390.732 302.326ZM515.61 343.271L517.969 340.041L515.61 343.271ZM508.908 339.66L510.305 335.912L508.908 339.66ZM662.143 448.503L658.806 450.707L662.143 448.503ZM655.675 441.605L653.261 444.795L655.675 441.605ZM682.847 474.316L684.821 470.837L682.847 474.316ZM673.296 465.391L669.958 467.595L673.296 465.391ZM713.524 493.34L716.489 490.655L713.524 493.34ZM706.581 487.777L708.554 484.298L706.581 487.777ZM744.966 531.443L741.057 532.293L744.966 531.443ZM740.948 523.63L737.983 526.314L740.948 523.63ZM742.494 544.509L739.166 542.29L742.494 544.509ZM738.292 550.811L741.621 553.03L738.292 550.811ZM740.628 565.483L738.986 569.13L740.628 565.483ZM736.298 555.605L740.093 556.87L736.298 555.605ZM745.043 570.548L748.881 569.419L745.043 570.548ZM744.154 579.214L740.772 577.078L744.154 579.214ZM745.26 571.285L741.423 572.414L745.26 571.285ZM743.796 579.781L747.178 581.917L743.796 579.781ZM718.067 587.807L720.045 591.284L718.067 587.807ZM695.882 600.429L697.86 603.906L695.882 600.429ZM691.267 607.254L692.331 611.11L691.267 607.254ZM663.399 618.703L667.137 620.127L663.399 618.703ZM669.336 613.304L668.272 609.448L669.336 613.304ZM666.464 628.938L664.159 632.208L666.464 628.938ZM789.328 633.835L790.266 637.723L789.328 633.835ZM812.599 613.651L809.417 611.227L812.599 613.651ZM811.347 598.03L814.102 595.13L811.347 598.03ZM803.757 586.406L807.662 585.538L803.757 586.406ZM809.155 595.947L811.91 593.047L809.155 595.947ZM803.463 572.649L799.582 571.679L803.463 572.649ZM803.308 584.388L799.404 585.255L803.308 584.388ZM825.093 541.042L822.005 543.584L825.093 541.042ZM808.708 540.146L810.497 543.724L808.708 540.146ZM800.379 550.796L796.474 549.928L800.379 550.796ZM799.251 557.837L795.42 558.986L799.251 557.837ZM799.19 556.147L803.094 557.015L799.19 556.147ZM798.104 564.303L800.381 561.014L798.104 564.303ZM800.638 562.462L796.807 563.611L800.638 562.462ZM784.987 582.611L782.047 585.324L784.987 582.611ZM783.084 580.169L779.507 581.957L783.084 580.169ZM784.13 581.683L787.07 578.97L784.13 581.683ZM777.906 569.813L781.484 568.024L777.906 569.813ZM778.638 555.473L780.963 558.728L778.638 555.473ZM785.136 555.272L781.558 557.061L785.136 555.272ZM780.523 554.126L782.848 557.381L780.523 554.126ZM800.217 541.254L801.937 544.865L800.217 541.254ZM807.348 538.124L806.272 534.271L807.348 538.124ZM804.737 539.102L803.017 535.49L804.737 539.102ZM845.973 517.607L842.093 516.637L845.973 517.607ZM830.964 531.829L831.725 535.757L830.964 531.829ZM846.208 509.341L850.137 508.593L846.208 509.341ZM855.257 482.74L857.749 485.869L855.257 482.74ZM845.932 507.891L842.002 508.64L845.932 507.891ZM933.72 431.78L930.891 428.952L933.72 431.78ZM927.648 436.386L925.687 432.899L927.648 436.386ZM960.45 421.078L959.861 425.034L960.45 421.078ZM936.527 428.973L933.698 426.145L936.527 428.973ZM972.965 422.311L972.711 418.319L972.965 422.311ZM967.062 422.062L966.472 426.019L967.062 422.062ZM1031.64 414.088L1029.26 410.873L1031.64 414.088ZM1016.76 419.524L1017.01 423.516L1016.76 419.524ZM1042.58 405.992L1044.96 409.208L1042.58 405.992ZM1093.39 372.688L1090.19 375.088L1093.39 372.688ZM1095.3 365.88L1096.79 369.594L1095.3 365.88ZM1126.33 359.723L1125.15 363.546L1126.33 359.723ZM1108.92 360.431L1110.41 364.145L1108.92 360.431ZM1174.65 366.279L1172.82 362.722L1174.65 366.279ZM1153.59 368.135L1152.41 371.957L1153.59 368.135ZM1179.02 364.032L1180.85 367.589L1179.02 364.032ZM1198.73 352.204L1194.86 351.181L1198.73 352.204ZM1205.32 342.283L1203.11 338.955L1205.32 342.283ZM1199.02 351.106L1195.15 350.082L1199.02 351.106ZM1213.25 335.777L1210.17 333.229L1213.25 335.777ZM1215.77 332.727L1218.85 335.274L1215.77 332.727ZM1260 311.386L1257.83 308.026L1260 311.386ZM1254.72 314.053L1253.3 310.312L1254.72 314.053ZM1284.15 294.409L1281.11 291.806L1284.15 294.409ZM1278.08 299.708L1280.25 303.069L1278.08 299.708ZM1289.76 287.864L1286.72 285.261L1289.76 287.864ZM1291.95 253.528L1295.3 251.343L1291.95 253.528ZM1286.05 246.438L1288.68 243.419L1286.05 246.438ZM1291.13 252.271L1294.48 250.086L1291.13 252.271ZM1274.65 237.492L1276.52 233.956L1274.65 237.492ZM1279.94 241.118L1277.31 244.136L1279.94 241.118ZM1248.64 223.745L1250.51 220.209L1248.64 223.745ZM1218.09 217.544L1216.3 221.122L1218.09 217.544ZM1203.25 202.57L1199.43 203.746L1203.25 202.57ZM1214.36 215.679L1216.15 212.101L1214.36 215.679ZM1190.17 187.03L1192.73 183.956L1190.17 187.03ZM1186.73 181.921L1184.3 185.103L1186.73 181.921ZM1154.82 150.119L1153.18 153.767L1154.82 150.119ZM1161.7 155.7L1164.93 153.34L1161.7 155.7ZM1146.79 142.832L1150.4 141.119L1146.79 142.832ZM1153.71 149.62L1152.07 153.267L1153.71 149.62ZM1139.58 135.917L1141.13 132.233L1139.58 135.917ZM1088.97 111.966L1085.96 114.6L1088.97 111.966ZM1097.44 118.089L1095.88 121.772L1097.44 118.089ZM1084.8 107.198L1087.81 104.564L1084.8 107.198ZM1070.7 100.802L1067.69 103.436L1070.7 100.802ZM1070 100L1066.99 102.634L1070 100ZM1051.21 93.6089L1053.35 90.2269L1051.21 93.6089ZM1033.99 83.1328L1032.41 86.8057L1033.99 83.1328ZM1037.85 85.1691L1035.72 88.551L1037.85 85.1691ZM1015.81 75.2901L1017.39 71.6172L1015.81 75.2901ZM991.42 69.8336L993.268 66.2859L991.42 69.8336ZM978.81 63.2654L976.962 66.8131L978.81 63.2654ZM865.093 31.0726L867.252 27.7051L865.093 31.0726ZM848.046 21.8864L847.076 25.767L848.046 21.8864ZM856.365 25.4778L858.524 22.1103L856.365 25.4778ZM833.844 18.336L834.814 14.4554L833.844 18.336ZM807.258 15.2763L808.821 11.594L807.258 15.2763ZM756.341 0.575542L755.936 -3.40393L756.341 0.575542ZM767.435 1.67858L768.616 -2.14332L767.435 1.67858ZM727.529 5.71974L725.609 2.21069L727.529 5.71974ZM738.137 2.42675L738.542 6.40623L738.137 2.42675ZM710.461 15.059L708.541 11.55L710.461 15.059ZM630.12 64.7006L627.395 61.7723L630.12 64.7006ZM609.794 72.038L612.136 75.2807L609.794 72.038ZM603.784 76.7157L600.956 73.8872L603.784 76.7157ZM606.394 74.4934L608.736 77.7361L606.394 74.4934ZM601.015 79.4849L598.187 76.6565L601.015 79.4849ZM582.485 88.4319L585.844 90.6049L582.485 88.4319ZM577.134 92.9239L575.576 89.24V89.24L577.134 92.9239ZM571.184 95.4414L572.742 99.1253V99.1253L571.184 95.4414ZM478.5 99.5L480.443 102.997L478.5 99.5ZM477.295 100.169L475.353 96.6727L477.295 100.169ZM461.674 104.782L459.322 101.547L461.674 104.782ZM423.979 109.722L422.927 113.581L423.979 109.722ZM415.072 107.292L416.124 103.433L415.072 107.292ZM412.588 108.745L415.245 105.755L412.588 108.745ZM402.958 105.403L406.388 107.461L402.958 105.403ZM407.966 104.636L410.623 101.647L407.966 104.636ZM390.897 104.79L393.421 101.687L390.897 104.79ZM313.654 83.9194L311.078 86.979L313.654 83.9194ZM324.78 88.8295L324.257 92.7951L324.78 88.8295ZM302.986 79.0748L302.378 83.0283L302.986 79.0748ZM278.172 72.9824L280.292 69.5904L278.172 72.9824ZM256.409 69.6311L255.112 65.8474L256.409 69.6311ZM226.917 65.1773L224.497 68.3619L226.917 65.1773ZM229.31 66.3655L228.234 70.2183L229.31 66.3655ZM217.895 58.3201L220.315 55.1354L217.895 58.3201ZM207.265 58.6838L210.794 56.8015L207.265 58.6838ZM206.5 57.25L210.029 55.3676L206.5 57.25ZM192.287 52.8936L194.076 49.3159L192.287 52.8936ZM184.817 55.1002L181.361 53.0847L184.817 55.1002ZM182.568 57.2582L184.439 60.7934L182.568 57.2582ZM177.673 59.8495L179.545 63.3847L177.673 59.8495ZM163.652 55.2783L167.609 54.6921L163.652 55.2783ZM136.067 59.6006L132.739 61.8194L136.067 59.6006ZM137.554 55.3778L138.758 59.1922L137.554 55.3778ZM134.752 63.763L133.303 60.035L134.752 63.763ZM133.861 64.1096L135.311 67.8376L133.861 64.1096ZM123.678 56.9716L121.687 53.5026L123.678 56.9716ZM98.9605 71.1616L100.952 74.6306L98.9605 71.1616ZM1069.74 399.442L1070.83 403.291L1069.74 399.442ZM1093.01 390.215L1096.94 390.931L1093.01 390.215ZM1089.78 393.771L1090.87 397.62L1089.78 393.771ZM689.294 21.2482L686.957 18.002L689.294 21.2482ZM91.6762 59.4073L88.7223 62.1044L91.6762 59.4073ZM672.425 33.3938L674.763 36.6399L672.425 33.3938ZM1097.37 386.311L1096.19 382.487L1097.37 386.311ZM658.282 38.4943L655.557 35.566L658.282 38.4943ZM1099.25 380.505L1102.45 378.105L1099.25 380.505ZM21.7361 28V32H50.6498V28V24H21.7361V28ZM71.3274 37.1205L68.3734 39.8175L88.7223 62.1044L91.6762 59.4073L94.6302 56.7102L74.2813 34.4234L71.3274 37.1205ZM89.5 67.9154H85.5V68.0543H89.5H93.5V67.9154H89.5ZM93.4457 72V76H95.816V72V68H93.4457V72ZM98.9605 71.1616L100.952 74.6306L125.67 60.4406L123.678 56.9716L121.687 53.5026L96.969 67.6926L98.9605 71.1616ZM129 60.0527H125V60.7842H129H133V60.0527H129ZM133.861 64.1096L135.311 67.8376L136.202 67.491L134.752 63.763L133.303 60.035L132.411 60.3815L133.861 64.1096ZM137.554 55.3778L138.758 59.1922L156.206 53.6822L155.002 49.8679L153.797 46.0535L136.349 51.5635L137.554 55.3778ZM170.284 61V65H173.041V61V57H170.284V61ZM177.673 59.8495L179.545 63.3847L184.439 60.7934L182.568 57.2582L180.696 53.7231L175.802 56.3144L177.673 59.8495ZM194.849 53.5V57.5H200.25V53.5V49.5H194.849V53.5ZM206.5 57.25L202.971 59.1324L203.735 60.5662L207.265 58.6838L210.794 56.8015L210.029 55.3676L206.5 57.25ZM211.125 61V65H214.008V61V57H211.125V61ZM217.895 58.3201L215.475 61.5047L224.497 68.3619L226.917 65.1773L229.338 61.9927L220.315 55.1354L217.895 58.3201ZM229.31 66.3655L228.234 70.2183L241.39 73.8895L242.465 70.0367L243.54 66.1839L230.385 62.5127L229.31 66.3655ZM276.494 71.9339L274.374 75.3259L276.052 76.3744L278.172 72.9824L280.292 69.5904L278.614 68.5419L276.494 71.9339ZM288.627 76.8657L288.019 80.8192L302.378 83.0283L302.986 79.0748L303.594 75.1213L289.236 72.9123L288.627 76.8657ZM324.78 88.8295L324.257 92.7951L344.476 95.4656L345 91.5L345.524 87.5344L325.304 84.8639L324.78 88.8295ZM345 91.5L344.076 95.3917C350.736 96.9735 360.824 99.3957 369.442 101.521C373.754 102.584 377.683 103.57 380.628 104.338C382.104 104.722 383.311 105.047 384.189 105.297C384.63 105.422 384.962 105.521 385.192 105.595C385.52 105.7 385.43 105.687 385.211 105.578L387 102L388.789 98.4223C388.37 98.213 387.881 98.0555 387.63 97.9752C387.281 97.8637 386.855 97.7375 386.377 97.6015C385.416 97.3282 384.142 96.9864 382.647 96.5965C379.65 95.8154 375.68 94.8198 371.358 93.7539C362.71 91.621 352.598 89.1931 345.924 87.6083L345 91.5ZM387 102L385.211 105.578C385.682 105.813 386.888 106.685 388.373 107.893L390.897 104.79L393.421 101.687C392.062 100.582 390.182 99.1189 388.789 98.4223L387 102ZM396.915 107V111H400.137V107V103H396.915V107ZM407.966 104.636L405.308 107.626L409.931 111.734L412.588 108.745L415.245 105.755L410.623 101.647L407.966 104.636ZM415.072 107.292L414.019 111.151L422.927 113.581L423.979 109.722L425.032 105.863L416.124 103.433L415.072 107.292ZM426.058 110V114H447.699V110V106H426.058V110ZM460 106L462.353 109.235L464.027 108.017L461.674 104.782L459.322 101.547L457.647 102.765L460 106ZM477.295 100.169L479.238 103.666L480.443 102.997L478.5 99.5L476.557 96.0034L475.353 96.6727L477.295 100.169ZM488.148 97V101H563.5V97V93H488.148V97ZM571.184 95.4414L572.742 99.1253L578.693 96.6078L577.134 92.9239L575.576 89.24L569.625 91.7576L571.184 95.4414ZM601.015 79.4849L603.844 82.3134L606.613 79.5441L603.784 76.7157L600.956 73.8872L598.187 76.6565L601.015 79.4849ZM606.394 74.4934L608.736 77.7361L612.136 75.2807L609.794 72.038L607.452 68.7952L604.052 71.2507L606.394 74.4934ZM630.12 64.7006L632.845 67.6289L661.007 41.4225L658.282 38.4943L655.557 35.566L627.395 61.7723L630.12 64.7006ZM672.425 33.3938L674.763 36.6399L691.631 24.4943L689.294 21.2482L686.957 18.002L670.088 30.1477L672.425 33.3938ZM710.461 15.059L712.381 18.5681L729.449 9.22879L727.529 5.71974L725.609 2.21069L708.541 11.55L710.461 15.059ZM738.137 2.42675L738.542 6.40623L756.745 4.55502L756.341 0.575542L755.936 -3.40393L737.732 -1.55272L738.137 2.42675ZM767.435 1.67858L766.255 5.50048L794.82 14.3219L796 10.5L797.18 6.6781L768.616 -2.14332L767.435 1.67858ZM796 10.5L794.438 14.1823L805.696 18.9586L807.258 15.2763L808.821 11.594L797.562 6.81767L796 10.5ZM818.194 17.5V21.5H827.053V17.5V13.5H818.194V17.5ZM833.844 18.336L832.874 22.2166L847.076 25.767L848.046 21.8864L849.016 18.0059L834.814 14.4554L833.844 18.336ZM856.365 25.4778L854.207 28.8453L862.935 34.4401L865.093 31.0726L867.252 27.7051L858.524 22.1103L856.365 25.4778ZM880.204 35.5V39.5H885.382V35.5V31.5H880.204V35.5ZM906.118 41.5V45.5H908.941V41.5V37.5H906.118V41.5ZM941.059 53V57H941.424V53V49H941.059V53ZM978.81 63.2654L976.962 66.8131L989.573 73.3812L991.42 69.8336L993.268 66.2859L980.657 59.7178L978.81 63.2654ZM1004.35 73V77H1004.72V73V69H1004.35V73ZM1015.81 75.2901L1014.22 78.9629L1032.41 86.8057L1033.99 83.1328L1035.57 79.46L1017.39 71.6172L1015.81 75.2901ZM1037.85 85.1691L1035.72 88.551L1049.08 96.9909L1051.21 93.6089L1053.35 90.2269L1039.99 81.7871L1037.85 85.1691ZM1059.48 96V100H1061.18V96V92H1059.48V96ZM1070 100L1066.99 102.634L1067.69 103.436L1070.7 100.802L1073.71 98.1675L1073.01 97.366L1070 100ZM1084.8 107.198L1081.79 109.832L1085.96 114.6L1088.97 111.966L1091.98 109.332L1087.81 104.564L1084.8 107.198ZM1097.44 118.089L1095.88 121.772L1138.02 139.601L1139.58 135.917L1141.13 132.233L1099 114.405L1097.44 118.089ZM1153.71 149.62L1152.07 153.267L1153.18 153.767L1154.82 150.119L1156.46 146.472L1155.35 145.972L1153.71 149.62ZM1161.7 155.7L1158.47 158.06L1169.1 172.599L1172.33 170.239L1175.56 167.879L1164.93 153.34L1161.7 155.7ZM1186.73 181.921L1184.3 185.103C1184.47 185.227 1184.58 185.33 1184.67 185.409C1184.75 185.489 1184.77 185.525 1184.76 185.513C1184.76 185.504 1184.5 185.144 1184.5 184.5H1188.5H1192.5C1192.5 181.565 1190.33 179.637 1189.15 178.74L1186.73 181.921ZM1188.5 184.5H1184.5C1184.5 185.985 1185.09 187.187 1185.65 188.012C1186.22 188.847 1186.94 189.542 1187.61 190.104L1190.17 187.03L1192.73 183.956C1192.57 183.822 1192.45 183.71 1192.37 183.623C1192.28 183.535 1192.25 183.491 1192.25 183.494C1192.26 183.496 1192.31 183.577 1192.37 183.738C1192.43 183.904 1192.5 184.165 1192.5 184.5H1188.5ZM1214.36 215.679L1212.57 219.256L1216.3 221.122L1218.09 217.544L1219.88 213.966L1216.15 212.101L1214.36 215.679ZM1230.61 220.5V224.5H1235.56V220.5V216.5H1230.61V220.5ZM1248.64 223.745L1246.77 227.282L1272.78 241.028L1274.65 237.492L1276.52 233.956L1250.51 220.209L1248.64 223.745ZM1279.94 241.118L1277.31 244.136L1283.43 249.456L1286.05 246.438L1288.68 243.419L1282.56 238.099L1279.94 241.118ZM1291.13 252.271L1287.78 254.456L1288.6 255.713L1291.95 253.528L1295.3 251.343L1294.48 250.086L1291.13 252.271ZM1296.5 268.824H1292.5V269.642H1296.5H1300.5V268.824H1296.5ZM1289.76 287.864L1286.72 285.261L1281.11 291.806L1284.15 294.409L1287.19 297.013L1292.8 290.467L1289.76 287.864ZM1278.08 299.708L1275.91 296.348L1257.83 308.026L1260 311.386L1262.17 314.746L1280.25 303.069L1278.08 299.708ZM1254.72 314.053L1253.3 310.312L1226.03 320.63L1227.45 324.371L1228.86 328.112L1256.13 317.794L1254.72 314.053ZM1215.77 332.727L1212.69 330.179L1210.17 333.229L1213.25 335.777L1216.33 338.324L1218.85 335.274L1215.77 332.727ZM1208.06 340.46L1205.84 337.131L1203.11 338.955L1205.32 342.283L1207.54 345.612L1210.28 343.788L1208.06 340.46ZM1199.02 351.106L1195.15 350.082L1194.86 351.181L1198.73 352.204L1202.59 353.228L1202.88 352.129L1199.02 351.106ZM1179.02 364.032L1177.19 360.475L1172.82 362.722L1174.65 366.279L1176.48 369.836L1180.85 367.589L1179.02 364.032ZM1153.59 368.135L1154.77 364.312L1127.51 355.901L1126.33 359.723L1125.15 363.546L1152.41 371.957L1153.59 368.135ZM1108.92 360.431L1107.44 356.717L1093.81 362.166L1095.3 365.88L1096.79 369.594L1110.41 364.145L1108.92 360.431ZM1093.39 372.688L1090.19 375.088L1096.05 382.905L1099.25 380.505L1102.45 378.105L1096.59 370.288L1093.39 372.688ZM1097.37 386.311L1096.19 382.487L1094.96 382.865L1096.14 386.688L1097.31 390.512L1098.54 390.134L1097.37 386.311ZM1089.78 393.771L1088.69 389.922L1068.65 395.593L1069.74 399.442L1070.83 403.291L1090.87 397.62L1089.78 393.771ZM1062.11 400.5V396.5H1059.23V400.5V404.5H1062.11V400.5ZM1042.58 405.992L1040.2 402.777L1029.26 410.873L1031.64 414.088L1034.02 417.304L1044.96 409.208L1042.58 405.992ZM1016.76 419.524L1016.51 415.532L972.711 418.319L972.965 422.311L973.219 426.303L1017.01 423.516L1016.76 419.524ZM967.062 422.062L967.651 418.106L961.04 417.121L960.45 421.078L959.861 425.034L966.472 426.019L967.062 422.062ZM936.527 428.973L933.698 426.145L930.891 428.952L933.72 431.78L936.548 434.609L939.355 431.802L936.527 428.973ZM927.648 436.386L925.687 432.899L881.039 458.014L883 461.5L884.961 464.986L929.609 439.872L927.648 436.386ZM883 461.5L880.64 458.27L867.64 467.77L870 471L872.36 474.23L885.36 464.73L883 461.5ZM870 471L867.508 467.871L852.765 479.611L855.257 482.74L857.749 485.869L872.492 474.129L870 471ZM845.932 507.891L842.002 508.64L842.279 510.09L846.208 509.341L850.137 508.593L849.861 507.143L845.932 507.891ZM830.964 531.829L830.204 527.902L826.74 528.573L827.5 532.5L828.26 536.427L831.725 535.757L830.964 531.829ZM827.5 532.5L826.425 528.647L806.272 534.271L807.348 538.124L808.423 541.977L828.575 536.353L827.5 532.5ZM804.737 539.102L803.017 535.49L798.498 537.642L800.217 541.254L801.937 544.865L806.457 542.713L804.737 539.102ZM795.5 548.725H791.5V551.129H795.5H799.5V548.725H795.5ZM789.629 557V553H787.932V557V561H789.629V557ZM780.523 554.126L778.198 550.871L776.313 552.218L778.638 555.473L780.963 558.728L782.848 557.381L780.523 554.126ZM776.5 559.627H772.5V563.855H776.5H780.5V559.627H776.5ZM777.906 569.813L774.329 571.602L779.507 581.957L783.084 580.169L786.662 578.38L781.484 568.024L777.906 569.813ZM784.13 581.683L781.191 584.396L782.047 585.324L784.987 582.611L787.926 579.897L787.07 578.97L784.13 581.683ZM795.5 578.5H799.5V565.667H795.5H791.5V578.5H795.5ZM800.638 562.462L804.47 561.312L803.082 556.687L799.251 557.837L795.42 558.986L796.807 563.611L800.638 562.462ZM799.19 556.147L803.094 557.015L804.284 551.663L800.379 550.796L796.474 549.928L795.285 555.279L799.19 556.147ZM815.668 538.5V542.5H819.708V538.5V534.5H815.668V538.5ZM823.578 551.282L821.359 547.953L812.781 553.672L815 557L817.219 560.328L825.796 554.61L823.578 551.282ZM803.308 584.388L799.404 585.255L799.852 587.273L803.757 586.406L807.662 585.538L807.213 583.52L803.308 584.388ZM809.155 595.947L806.4 598.847L808.592 600.93L811.347 598.03L814.102 595.13L811.91 593.047L809.155 595.947ZM812.599 613.651L809.417 611.227L801.848 621.161L805.03 623.586L808.212 626.01L815.781 616.075L812.599 613.651ZM789.328 633.835L788.389 629.946L754.561 638.112L755.5 642L756.439 645.888L790.266 637.723L789.328 633.835ZM689 642V638C689.245 638 689.206 638.046 688.722 637.884C688.302 637.744 687.732 637.509 687.006 637.164C685.557 636.474 683.74 635.461 681.688 634.222C677.598 631.751 672.851 628.546 668.768 625.668L666.464 628.938L664.159 632.208C668.312 635.134 673.232 638.46 677.551 641.069C679.704 642.37 681.777 643.534 683.567 644.387C684.46 644.812 685.347 645.19 686.179 645.469C686.947 645.727 687.955 646 689 646V642ZM669.336 613.304L670.399 617.16L692.331 611.11L691.267 607.254L690.203 603.398L668.272 609.448L669.336 613.304ZM695.882 600.429L697.86 603.906L720.045 591.284L718.067 587.807L716.089 584.33L693.904 596.953L695.882 600.429ZM728.676 585V589H734.328V585V581H728.676V585ZM743.796 579.781L747.178 581.917L747.536 581.35L744.154 579.214L740.772 577.078L740.414 577.646L743.796 579.781ZM745.26 571.285L749.098 570.157L748.881 569.419L745.043 570.548L741.206 571.676L741.423 572.414L745.26 571.285ZM736.298 555.605L740.093 556.87L740.843 554.62L737.048 553.355L733.254 552.09L732.504 554.34L736.298 555.605ZM738.292 550.811L741.621 553.03L745.822 546.728L742.494 544.509L739.166 542.29L734.964 548.593L738.292 550.811ZM740.948 523.63L743.914 520.945L716.489 490.655L713.524 493.34L710.559 496.025L737.983 526.314L740.948 523.63ZM706.581 487.777L708.554 484.298L684.821 470.837L682.847 474.316L680.874 477.796L704.608 491.257L706.581 487.777ZM673.296 465.391L676.634 463.186L665.481 446.299L662.143 448.503L658.806 450.707L669.958 467.595L673.296 465.391ZM655.675 441.605L658.089 438.416L624.914 413.31L622.5 416.5L620.086 419.69L653.261 444.795L655.675 441.605ZM622.5 416.5L624.626 413.112L577.626 383.612L575.5 387L573.374 390.388L620.374 419.888L622.5 416.5ZM575.5 387L577.859 383.77L517.969 340.041L515.61 343.271L513.252 346.502L573.141 390.23L575.5 387ZM508.908 339.66L510.305 335.912C497.33 331.073 479.293 324.376 464.212 318.84C456.672 316.072 449.863 313.592 444.791 311.778C442.257 310.872 440.143 310.127 438.583 309.594C437.805 309.329 437.146 309.109 436.633 308.947C436.242 308.824 435.636 308.634 435.158 308.554L434.5 312.5L433.842 316.446C433.65 316.414 433.673 316.402 434.223 316.576C434.651 316.711 435.244 316.908 435.998 317.165C437.503 317.679 439.575 318.409 442.097 319.311C447.137 321.113 453.922 323.585 461.455 326.35C476.518 331.879 494.541 338.571 507.51 343.408L508.908 339.66ZM434.5 312.5L435.158 308.554C433.145 308.219 417.517 306.153 405.576 304.588L405.056 308.554L404.535 312.52C416.615 314.104 432.012 316.14 433.842 316.446L434.5 312.5ZM390.732 302.326L393.265 299.231C389.087 295.812 384.341 291.986 380.393 288.928C378.422 287.402 376.62 286.043 375.174 285.016C374.453 284.504 373.785 284.049 373.208 283.688C372.737 283.394 372.003 282.951 371.265 282.705L370 286.5L368.735 290.295C368.465 290.205 368.47 290.161 368.966 290.471C369.356 290.715 369.882 291.07 370.542 291.539C371.856 292.472 373.557 293.752 375.494 295.252C379.36 298.247 384.043 302.021 388.199 305.422L390.732 302.326ZM370 286.5L371.265 282.705C370.421 282.424 367.659 281.812 364.187 281.069C360.538 280.288 355.706 279.282 350.384 278.187C339.739 275.997 327.104 273.446 317.993 271.62L317.207 275.542L316.421 279.464C325.525 281.289 338.145 283.837 348.772 286.023C354.087 287.116 358.895 288.117 362.513 288.892C364.323 289.279 365.823 289.607 366.935 289.861C367.492 289.988 367.938 290.092 368.271 290.175C368.647 290.268 368.763 290.304 368.735 290.295L370 286.5ZM311.727 275V271H251.127V275V279H311.727V275ZM246.898 275.321L246.294 271.367L214.498 276.225L215.102 280.179L215.706 284.133L247.502 279.275L246.898 275.321ZM210.873 280.5V276.5H160.08V280.5V284.5H210.873V280.5ZM148.621 276.085L151.304 273.119L148.597 270.67L145.913 273.636L143.23 276.602L145.937 279.052L148.621 276.085ZM139.909 260.35L142.512 257.313L120.082 238.088L117.479 241.125L114.875 244.162L137.306 263.387L139.909 260.35ZM103.737 228.118L105.525 224.541L99.7879 221.672L97.999 225.25L96.2102 228.827L101.948 231.696L103.737 228.118ZM93.5243 222.024L96.3528 219.196L92.5696 215.413L89.7412 218.241L86.9128 221.07L90.6959 224.853L93.5243 222.024ZM85.1011 200.255L87.6941 197.209L59.41 173.13L56.817 176.175L54.224 179.221L82.5081 203.301L85.1011 200.255ZM43.5941 158.299L46.1669 155.236L38.0728 148.437L35.5 151.5L32.9272 154.563L41.0213 161.362L43.5941 158.299ZM35.5 151.5L38.435 148.782L27.4501 136.919L24.5151 139.636L21.5801 142.354L32.565 154.218L35.5 151.5ZM21.763 136.145L25.0912 133.926L18.2465 123.659L14.9183 125.877L11.5901 128.096L18.4348 138.363L21.763 136.145ZM10.8696 116.362L14.7762 115.502L11.0142 98.4025L7.10764 99.262L3.20106 100.121L6.96304 117.221L10.8696 116.362ZM4.25843 94.7757L6.69727 91.6052L5.3017 90.5317L2.86285 93.7022L0.42401 96.8727L1.81958 97.9462L4.25843 94.7757ZM9.6234 85.7632L6.88194 88.676L8.49348 90.1927L11.2349 87.2799L13.9764 84.3671L12.3649 82.8504L9.6234 85.7632ZM21.5634 90.2821L24.5444 92.9492L27.481 89.6672L24.5 87L21.519 84.3328L18.5825 87.6149L21.5634 90.2821ZM23.4577 81.8192L24.7226 78.0245L20.7844 76.7118L19.5195 80.5065L18.2546 84.3012L22.1928 85.614L23.4577 81.8192ZM16.9994 78.7493L20.1229 76.2505L20.0421 76.1496L16.9187 78.6483L13.7952 81.1471L13.876 81.2481L16.9994 78.7493ZM15.7322 76.054L19.6654 75.3256L18.567 69.3946L14.6339 70.1229L10.7007 70.8513L11.7991 76.7824L15.7322 76.054ZM9.79351 58.9962L13.0077 56.6153L10.8227 53.6655L7.60845 56.0464L4.39422 58.4273L6.57928 61.3772L9.79351 58.9962ZM755.5 642V638H689V642V646H755.5V642ZM7.60845 56.0464L10.8227 53.6655C8.78265 50.9115 7.85929 47.488 8.23777 44.0816L4.26223 43.6399L0.286698 43.1982C-0.314725 48.611 1.15254 54.051 4.39422 58.4273L7.60845 56.0464ZM14.6339 70.1229L18.567 69.3946C17.7101 64.7674 15.8088 60.3967 13.0077 56.6153L9.79351 58.9962L6.57928 61.3772C8.65589 64.1806 10.0655 67.4208 10.7007 70.8513L14.6339 70.1229ZM16.9187 78.6483L20.0421 76.1496C19.8506 75.9101 19.7212 75.6271 19.6654 75.3256L15.7322 76.054L11.7991 76.7824C12.0949 78.3795 12.7805 79.8788 13.7952 81.1471L16.9187 78.6483ZM19.5195 80.5065L20.7844 76.7118C20.5241 76.625 20.2943 76.4648 20.1229 76.2505L16.9994 78.7493L13.876 81.2481C15.0107 82.6665 16.5313 83.7268 18.2546 84.3012L19.5195 80.5065ZM24.5 87L27.134 90.0103C31.2312 86.4253 29.8874 79.7461 24.7226 78.0245L23.4577 81.8192L22.1928 85.614C21.4929 85.3807 21.3108 84.4755 21.866 83.9897L24.5 87ZM12.4474 88.9506L8.82808 90.6538C11.733 96.8267 19.9954 98.0334 24.5444 92.9492L21.5634 90.2821L18.5825 87.6149C17.8543 88.4287 16.5316 88.2356 16.0666 87.2474L12.4474 88.9506ZM11.2349 87.2799L8.49348 90.1927C8.63299 90.324 8.7465 90.4805 8.82808 90.6538L12.4474 88.9506L16.0666 87.2474C15.557 86.1645 14.8479 85.1874 13.9764 84.3671L11.2349 87.2799ZM1.05164 88.0446L4.87833 89.2093C5.14182 88.3435 6.22296 88.0558 6.88194 88.676L9.6234 85.7632L12.3649 82.8504C7.38536 78.1638 -0.784071 80.3382 -2.77506 86.88L1.05164 88.0446ZM2.86285 93.7022L5.3017 90.5317C4.89907 90.222 4.73043 89.6952 4.87833 89.2093L1.05164 88.0446L-2.77506 86.88C-3.89265 90.5521 -2.61838 94.5324 0.42401 96.8727L2.86285 93.7022ZM7.10764 99.262L11.0142 98.4025C10.4196 95.6995 8.89098 93.2927 6.69727 91.6052L4.25843 94.7757L1.81958 97.9462C2.5216 98.4862 3.01076 99.2564 3.20106 100.121L7.10764 99.262ZM14.9183 125.877L18.2465 123.659C16.5933 121.179 15.4165 118.413 14.7762 115.502L10.8696 116.362L6.96304 117.221C7.81681 121.102 9.38591 124.79 11.5901 128.096L14.9183 125.877ZM24.5151 139.636L27.4501 136.919C26.5857 135.985 25.7969 134.984 25.0912 133.926L21.763 136.145L18.4348 138.363C19.3758 139.775 20.4275 141.109 21.5801 142.354L24.5151 139.636ZM50.2666 167.289L53.9432 165.713C52.2064 161.661 49.5429 158.072 46.1669 155.236L43.5941 158.299L41.0213 161.362C43.4389 163.393 45.3463 165.962 46.5901 168.865L50.2666 167.289ZM56.817 176.175L59.41 173.13C57.0402 171.112 55.1692 168.574 53.9432 165.713L50.2666 167.289L46.5901 168.865C48.3021 172.859 50.9148 176.404 54.224 179.221L56.817 176.175ZM87.6731 209.481L91.4678 210.746C93.0877 205.886 91.5944 200.53 87.6941 197.209L85.1011 200.255L82.5081 203.301C83.9243 204.506 84.4665 206.451 83.8784 208.216L87.6731 209.481ZM89.7412 218.241L92.5696 215.413C91.3481 214.191 90.9216 212.384 91.4678 210.746L87.6731 209.481L83.8784 208.216C82.3739 212.729 83.5486 217.705 86.9128 221.07L89.7412 218.241ZM97.999 225.25L99.7879 221.672C98.5172 221.036 97.3573 220.2 96.3528 219.196L93.5243 222.024L90.6959 224.853C92.3085 226.465 94.1704 227.807 96.2102 228.827L97.999 225.25ZM113.151 236.31L116.447 234.044C113.669 230.003 109.911 226.733 105.525 224.541L103.737 228.118L101.948 231.696C105.123 233.284 107.843 235.651 109.854 238.576L113.151 236.31ZM117.479 241.125L120.082 238.088C118.7 236.903 117.478 235.544 116.447 234.044L113.151 236.31L109.854 238.576C111.279 240.648 112.967 242.525 114.875 244.162L117.479 241.125ZM143 267.071H147C147 263.32 145.361 259.755 142.512 257.313L139.909 260.35L137.306 263.387C138.381 264.309 139 265.655 139 267.071H143ZM145.913 273.636L148.597 270.67C147.58 269.75 147 268.443 147 267.071H143H139C139 270.703 140.536 274.165 143.23 276.602L145.913 273.636ZM160.08 280.5V276.5C156.837 276.5 153.709 275.295 151.304 273.119L148.621 276.085L145.937 279.052C149.813 282.558 154.853 284.5 160.08 284.5V280.5ZM215.102 280.179L214.498 276.225C213.299 276.408 212.087 276.5 210.873 276.5V280.5V284.5C212.491 284.5 214.107 284.377 215.706 284.133L215.102 280.179ZM251.127 275V271C249.509 271 247.893 271.123 246.294 271.367L246.898 275.321L247.502 279.275C248.701 279.092 249.913 279 251.127 279V275ZM317.207 275.542L317.993 271.62C315.924 271.205 313.833 271 311.727 271V275V279C313.31 279 314.875 279.154 316.421 279.464L317.207 275.542ZM405.056 308.554L405.576 304.588C401.067 303.996 396.81 302.131 393.265 299.231L390.732 302.326L388.199 305.422C392.871 309.245 398.516 311.73 404.535 312.52L405.056 308.554ZM515.61 343.271L517.969 340.041C515.613 338.32 513.045 336.934 510.305 335.912L508.908 339.66L507.51 343.408C509.559 344.172 511.48 345.208 513.252 346.502L515.61 343.271ZM662.143 448.503L665.481 446.299C663.482 443.271 660.982 440.605 658.089 438.416L655.675 441.605L653.261 444.795C655.431 446.437 657.306 448.436 658.806 450.707L662.143 448.503ZM682.847 474.316L684.821 470.837C681.526 468.968 678.721 466.347 676.634 463.186L673.296 465.391L669.958 467.595C672.741 471.809 676.481 475.304 680.874 477.796L682.847 474.316ZM713.524 493.34L716.489 490.655C714.2 488.127 711.521 485.981 708.554 484.298L706.581 487.777L704.608 491.257C706.833 492.519 708.842 494.128 710.559 496.025L713.524 493.34ZM744.966 531.443L748.875 530.593C748.093 526.999 746.383 523.672 743.914 520.945L740.948 523.63L737.983 526.314C739.513 528.004 740.573 530.065 741.057 532.293L744.966 531.443ZM742.494 544.509L745.822 546.728C748.984 541.985 750.085 536.163 748.875 530.593L744.966 531.443L741.057 532.293C741.807 535.744 741.125 539.352 739.166 542.29L742.494 544.509ZM737.048 553.355L740.843 554.62C741.03 554.058 741.292 553.523 741.621 553.03L738.292 550.811L734.964 548.593C734.241 549.677 733.666 550.854 733.254 552.09L737.048 553.355ZM740.628 565.483L742.269 561.835C740.377 560.983 739.437 558.838 740.093 556.87L736.298 555.605L732.504 554.34C730.549 560.203 733.35 566.594 738.986 569.13L740.628 565.483ZM745.043 570.548L748.881 569.419C747.889 566.047 745.474 563.277 742.269 561.835L740.628 565.483L738.986 569.13C740.062 569.614 740.873 570.544 741.206 571.676L745.043 570.548ZM744.154 579.214L747.536 581.35C749.641 578.017 750.21 573.939 749.098 570.157L745.26 571.285L741.423 572.414C741.886 573.99 741.649 575.689 740.772 577.078L744.154 579.214ZM734.328 585V589C739.543 589 744.393 586.326 747.178 581.917L743.796 579.781L740.414 577.646C739.095 579.734 736.798 581 734.328 581V585ZM718.067 587.807L720.045 591.284C722.675 589.787 725.65 589 728.676 589V585V581C724.262 581 719.925 582.148 716.089 584.33L718.067 587.807ZM694 603.665H698C698 603.765 697.947 603.857 697.86 603.906L695.882 600.429L693.904 596.953C691.49 598.326 690 600.889 690 603.665H694ZM691.267 607.254L692.331 611.11C695.68 610.186 698 607.139 698 603.665H694H690C690 603.54 690.083 603.431 690.203 603.398L691.267 607.254ZM663.399 618.703L667.137 620.127C667.69 618.675 668.902 617.573 670.399 617.16L669.336 613.304L668.272 609.448C664.319 610.539 661.121 613.447 659.661 617.279L663.399 618.703ZM666.464 628.938L668.768 625.668C667.049 624.457 666.35 622.191 667.137 620.127L663.399 618.703L659.661 617.279C657.611 622.66 659.366 628.83 664.159 632.208L666.464 628.938ZM805.03 623.586L801.848 621.161C798.505 625.549 793.752 628.652 788.389 629.946L789.328 633.835L790.266 637.723C797.417 635.997 803.754 631.861 808.212 626.01L805.03 623.586ZM815 606.538H811C811 608.232 810.444 609.88 809.417 611.227L812.599 613.651L815.781 616.075C817.869 613.335 819 609.984 819 606.538H815ZM811.347 598.03L808.592 600.93C810.13 602.39 811 604.418 811 606.538H815H819C819 602.225 817.229 598.101 814.102 595.13L811.347 598.03ZM803.757 586.406L799.852 587.273C800.835 591.697 803.115 595.726 806.4 598.847L809.155 595.947L811.91 593.047C809.778 591.022 808.299 588.408 807.662 585.538L803.757 586.406ZM803.463 572.649L799.582 571.679C798.47 576.129 798.409 580.777 799.404 585.255L803.308 584.388L807.213 583.52C806.487 580.254 806.532 576.864 807.343 573.619L803.463 572.649ZM815 557L812.914 553.587C806.31 557.623 801.466 564.143 799.582 571.679L803.463 572.649L807.343 573.619C808.711 568.147 812.249 563.369 817.086 560.413L815 557ZM825.093 541.042L822.005 543.584C823.126 544.945 822.825 546.976 821.359 547.953L823.578 551.282L825.796 554.61C831.204 551.005 832.313 543.516 828.181 538.499L825.093 541.042ZM819.708 538.5V542.5C820.597 542.5 821.44 542.898 822.005 543.584L825.093 541.042L828.181 538.499C826.096 535.967 822.988 534.5 819.708 534.5V538.5ZM808.708 540.146L810.497 543.724C812.102 542.921 813.88 542.5 815.668 542.5V538.5V534.5C812.631 534.5 809.629 535.213 806.919 536.568L808.708 540.146ZM800.379 550.796L804.284 551.663C805.046 548.231 807.339 545.303 810.497 543.724L808.708 540.146L806.919 536.568C801.619 539.218 797.763 544.129 796.474 549.928L800.379 550.796ZM799.251 557.837L803.082 556.687C803.114 556.794 803.118 556.906 803.094 557.015L799.19 556.147L795.285 555.279C795.012 556.506 795.059 557.782 795.42 558.986L799.251 557.837ZM798.104 564.303L795.827 567.592C800.228 570.638 806.008 566.439 804.47 561.312L800.638 562.462L796.807 563.611C796.171 561.491 798.561 559.754 800.381 561.014L798.104 564.303ZM795.5 565.667H799.5C799.5 567.555 797.38 568.666 795.827 567.592L798.104 564.303L800.381 561.014C796.627 558.416 791.5 561.102 791.5 565.667H795.5ZM784.987 582.611L782.047 585.324C788.259 592.053 799.5 587.658 799.5 578.5H795.5H791.5C791.5 580.375 789.198 581.276 787.926 579.897L784.987 582.611ZM783.084 580.169L779.507 581.957C779.951 582.846 780.518 583.667 781.191 584.396L784.13 581.683L787.07 578.97C786.907 578.793 786.769 578.595 786.662 578.38L783.084 580.169ZM776.5 563.855H772.5C772.5 566.544 773.126 569.196 774.329 571.602L777.906 569.813L781.484 568.024C780.837 566.73 780.5 565.302 780.5 563.855H776.5ZM778.638 555.473L776.313 552.218C773.92 553.927 772.5 556.687 772.5 559.627H776.5H780.5C780.5 559.27 780.672 558.935 780.963 558.728L778.638 555.473ZM785.136 555.272L788.714 553.483C786.755 549.567 781.761 548.326 778.198 550.871L780.523 554.126L782.848 557.381C782.411 557.693 781.799 557.541 781.558 557.061L785.136 555.272ZM787.932 557V553C788.263 553 788.566 553.187 788.714 553.483L785.136 555.272L781.558 557.061C782.765 559.475 785.233 561 787.932 561V557ZM795.5 551.129H791.5C791.5 552.162 790.662 553 789.629 553V557V561C795.08 561 799.5 556.58 799.5 551.129H795.5ZM800.217 541.254L798.498 537.642C794.223 539.678 791.5 543.99 791.5 548.725H795.5H799.5C799.5 547.076 800.448 545.574 801.937 544.865L800.217 541.254ZM807.348 538.124L806.272 534.271C805.154 534.583 804.065 534.991 803.017 535.49L804.737 539.102L806.457 542.713C807.09 542.411 807.747 542.165 808.423 541.977L807.348 538.124ZM845.973 517.607L842.093 516.637C840.656 522.383 836.02 526.777 830.204 527.902L830.964 531.829L831.725 535.757C840.593 534.04 847.663 527.34 849.854 518.577L845.973 517.607ZM846.208 509.341L842.279 510.09C842.692 512.26 842.628 514.494 842.093 516.637L845.973 517.607L849.854 518.577C850.671 515.309 850.768 511.902 850.137 508.593L846.208 509.341ZM855.257 482.74L852.765 479.611C844.066 486.538 839.922 497.716 842.002 508.64L845.932 507.891L849.861 507.143C848.336 499.137 851.373 490.946 857.749 485.869L855.257 482.74ZM933.72 431.78L930.891 428.952C929.344 430.499 927.593 431.827 925.687 432.899L927.648 436.386L929.609 439.872C932.151 438.442 934.486 436.671 936.548 434.609L933.72 431.78ZM960.45 421.078L961.04 417.121C951.011 415.628 940.868 418.975 933.698 426.145L936.527 428.973L939.355 431.802C944.732 426.425 952.34 423.914 959.861 425.034L960.45 421.078ZM972.965 422.311L972.711 418.319C971.021 418.427 969.325 418.355 967.651 418.106L967.062 422.062L966.472 426.019C968.705 426.351 970.966 426.447 973.219 426.303L972.965 422.311ZM1031.64 414.088L1029.26 410.873C1025.54 413.621 1021.12 415.239 1016.51 415.532L1016.76 419.524L1017.01 423.516C1023.16 423.125 1029.07 420.968 1034.02 417.304L1031.64 414.088ZM1059.23 400.5V396.5C1052.38 396.5 1045.71 398.7 1040.2 402.777L1042.58 405.992L1044.96 409.208C1049.09 406.15 1054.09 404.5 1059.23 404.5V400.5ZM1092.5 370.015H1088.5C1088.5 371.845 1089.09 373.624 1090.19 375.088L1093.39 372.688L1096.59 370.288C1096.53 370.209 1096.5 370.114 1096.5 370.015H1092.5ZM1095.3 365.88L1093.81 362.166C1090.6 363.45 1088.5 366.559 1088.5 370.015H1092.5H1096.5C1096.5 369.83 1096.61 369.663 1096.79 369.594L1095.3 365.88ZM1126.33 359.723L1127.51 355.901C1120.92 353.869 1113.84 354.157 1107.44 356.717L1108.92 360.431L1110.41 364.145C1115.11 362.265 1120.31 362.053 1125.15 363.546L1126.33 359.723ZM1174.65 366.279L1172.82 362.722C1167.24 365.591 1160.76 366.162 1154.77 364.312L1153.59 368.135L1152.41 371.957C1160.4 374.422 1169.04 373.661 1176.48 369.836L1174.65 366.279ZM1185.35 362.5V358.5C1182.51 358.5 1179.72 359.177 1177.19 360.475L1179.02 364.032L1180.85 367.589C1182.24 366.873 1183.78 366.5 1185.35 366.5V362.5ZM1198.73 352.204L1194.86 351.181C1193.72 355.495 1189.81 358.5 1185.35 358.5V362.5V366.5C1193.44 366.5 1200.52 361.051 1202.59 353.228L1198.73 352.204ZM1205.32 342.283L1203.11 338.955C1199.19 341.569 1196.36 345.527 1195.15 350.082L1199.02 351.106L1202.88 352.129C1203.59 349.461 1205.25 347.143 1207.54 345.612L1205.32 342.283ZM1213.25 335.777L1210.17 333.229C1208.92 334.734 1207.47 336.049 1205.84 337.131L1208.06 340.46L1210.28 343.788C1212.55 342.272 1214.59 340.431 1216.33 338.324L1213.25 335.777ZM1227.45 324.371L1226.03 320.63C1220.83 322.599 1216.23 325.89 1212.69 330.179L1215.77 332.727L1218.85 335.274C1221.51 332.057 1224.96 329.589 1228.86 328.112L1227.45 324.371ZM1260 311.386L1257.83 308.026C1256.41 308.946 1254.89 309.712 1253.3 310.312L1254.72 314.053L1256.13 317.794C1258.25 316.994 1260.27 315.972 1262.17 314.746L1260 311.386ZM1284.15 294.409L1281.11 291.806C1279.61 293.563 1277.85 295.093 1275.91 296.348L1278.08 299.708L1280.25 303.069C1282.84 301.395 1285.18 299.355 1287.19 297.013L1284.15 294.409ZM1296.5 269.642H1292.5C1292.5 275.371 1290.45 280.911 1286.72 285.261L1289.76 287.864L1292.8 290.467C1297.77 284.668 1300.5 277.281 1300.5 269.642H1296.5ZM1291.95 253.528L1288.6 255.713C1291.15 259.613 1292.5 264.168 1292.5 268.824H1296.5H1300.5C1300.5 262.616 1298.69 256.543 1295.3 251.343L1291.95 253.528ZM1286.05 246.438L1283.43 249.456C1285.1 250.913 1286.57 252.596 1287.78 254.456L1291.13 252.271L1294.48 250.086C1292.87 247.606 1290.91 245.362 1288.68 243.419L1286.05 246.438ZM1274.65 237.492L1272.78 241.028C1274.4 241.887 1275.92 242.93 1277.31 244.136L1279.94 241.118L1282.56 238.099C1280.71 236.491 1278.68 235.101 1276.52 233.956L1274.65 237.492ZM1235.56 220.5V224.5C1239.46 224.5 1243.31 225.455 1246.77 227.282L1248.64 223.745L1250.51 220.209C1245.9 217.773 1240.77 216.5 1235.56 216.5V220.5ZM1218.09 217.544L1216.3 221.122C1220.74 223.343 1225.64 224.5 1230.61 224.5V220.5V216.5C1226.88 216.5 1223.21 215.633 1219.88 213.966L1218.09 217.544ZM1203.25 202.57L1199.43 203.746C1201.51 210.494 1206.25 216.099 1212.57 219.256L1214.36 215.679L1216.15 212.101C1211.79 209.921 1208.51 206.052 1207.08 201.393L1203.25 202.57ZM1190.17 187.03L1187.61 190.104C1193.27 194.813 1197.81 198.477 1199.43 203.746L1203.25 202.57L1207.08 201.393C1204.61 193.372 1197.76 188.145 1192.73 183.956L1190.17 187.03ZM1172.33 170.239L1169.1 172.599C1171.3 175.614 1174.06 177.881 1176.71 179.793C1178.03 180.747 1179.39 181.661 1180.66 182.519C1181.95 183.395 1183.16 184.23 1184.3 185.103L1186.73 181.921L1189.15 178.74C1187.82 177.724 1186.45 176.784 1185.15 175.901C1183.83 175 1182.59 174.173 1181.39 173.307C1179 171.58 1177.03 169.893 1175.56 167.879L1172.33 170.239ZM1154.82 150.119L1153.18 153.767C1155.29 154.715 1157.11 156.195 1158.47 158.06L1161.7 155.7L1164.93 153.34C1162.75 150.355 1159.83 147.989 1156.46 146.472L1154.82 150.119ZM1146.79 142.832L1143.17 144.544C1145.01 148.417 1148.16 151.509 1152.07 153.267L1153.71 149.62L1155.35 145.972C1153.18 144.994 1151.42 143.274 1150.4 141.119L1146.79 142.832ZM1139.58 135.917L1138.02 139.601C1140.28 140.56 1142.12 142.319 1143.17 144.544L1146.79 142.832L1150.4 141.119C1148.51 137.12 1145.21 133.957 1141.13 132.233L1139.58 135.917ZM1088.97 111.966L1085.96 114.6C1088.68 117.71 1092.07 120.162 1095.88 121.772L1097.44 118.089L1099 114.405C1096.3 113.266 1093.91 111.532 1091.98 109.332L1088.97 111.966ZM1077.75 104V108C1079.3 108 1080.77 108.668 1081.79 109.832L1084.8 107.198L1087.81 104.564C1085.27 101.664 1081.6 100 1077.75 100V104ZM1070.7 100.802L1067.69 103.436C1070.23 106.336 1073.9 108 1077.75 108V104V100C1076.2 100 1074.73 99.332 1073.71 98.1675L1070.7 100.802ZM1061.18 96V100C1063.41 100 1065.53 100.96 1066.99 102.634L1070 100L1073.01 97.366C1070.03 93.956 1065.72 92 1061.18 92V96ZM1051.21 93.6089L1049.08 96.9909C1052.19 98.9566 1055.8 100 1059.48 100V96V92C1057.31 92 1055.18 91.3852 1053.35 90.2269L1051.21 93.6089ZM1033.99 83.1328L1032.41 86.8057C1033.55 87.3005 1034.66 87.884 1035.72 88.551L1037.85 85.1691L1039.99 81.7871C1038.58 80.8978 1037.1 80.1197 1035.57 79.46L1033.99 83.1328ZM1004.72 73V77C1007.99 77 1011.22 77.668 1014.22 78.9629L1015.81 75.2901L1017.39 71.6172C1013.39 69.8906 1009.08 69 1004.72 69V73ZM991.42 69.8336L989.573 73.3812C994.137 75.7586 999.208 77 1004.35 77V73V69C1000.49 69 996.692 68.069 993.268 66.2859L991.42 69.8336ZM967.513 60.5V64.5C970.803 64.5 974.044 65.2935 976.962 66.8131L978.81 63.2654L980.657 59.7178C976.599 57.6038 972.09 56.5 967.513 56.5V60.5ZM954.526 56.7665L952.406 60.1585C956.924 62.9822 962.175 64.5 967.513 64.5V60.5V56.5C963.685 56.5 959.902 55.4091 956.646 53.3745L954.526 56.7665ZM941.424 53V57C945.293 57 949.117 58.1025 952.406 60.1585L954.526 56.7665L956.646 53.3745C952.094 50.5294 946.803 49 941.424 49V53ZM925 47.25L922.461 50.3409C927.703 54.6465 934.276 57 941.059 57V53V49C936.128 49 931.349 47.2891 927.539 44.1591L925 47.25ZM908.941 41.5V45.5C913.872 45.5 918.651 47.2109 922.461 50.3409L925 47.25L927.539 44.1591C922.297 39.8535 915.724 37.5 908.941 37.5V41.5ZM895.75 38.5L893.614 41.882C897.356 44.2455 901.692 45.5 906.118 45.5V41.5V37.5C903.204 37.5 900.35 36.6741 897.886 35.118L895.75 38.5ZM885.382 35.5V39.5C888.296 39.5 891.15 40.3259 893.614 41.882L895.75 38.5L897.886 35.118C894.144 32.7545 889.808 31.5 885.382 31.5V35.5ZM865.093 31.0726L862.935 34.4401C868.089 37.7439 874.082 39.5 880.204 39.5V35.5V31.5C875.612 31.5 871.117 30.1829 867.252 27.7051L865.093 31.0726ZM848.046 21.8864L847.076 25.767C849.604 26.3991 852.013 27.4388 854.207 28.8453L856.365 25.4778L858.524 22.1103C855.599 20.235 852.387 18.8487 849.016 18.0059L848.046 21.8864ZM827.053 17.5V21.5C829.015 21.5 830.97 21.7407 832.874 22.2166L833.844 18.336L834.814 14.4554C832.276 13.8209 829.669 13.5 827.053 13.5V17.5ZM807.258 15.2763L805.696 18.9586C809.649 20.6357 813.9 21.5 818.194 21.5V17.5V13.5C814.973 13.5 811.785 12.8518 808.821 11.594L807.258 15.2763ZM756.341 0.575542L756.745 4.55502C759.946 4.22946 763.181 4.55099 766.255 5.50048L767.435 1.67858L768.616 -2.14332C764.516 -3.40931 760.204 -3.83801 755.936 -3.40393L756.341 0.575542ZM727.529 5.71974L729.449 9.22879C732.261 7.69024 735.353 6.73051 738.542 6.40623L738.137 2.42675L737.732 -1.55272C733.481 -1.12034 729.359 0.159295 725.609 2.21069L727.529 5.71974ZM700.915 17.5V21.5C704.922 21.5 708.865 20.4917 712.381 18.5681L710.461 15.059L708.541 11.55C706.203 12.8294 703.58 13.5 700.915 13.5V17.5ZM619.189 69V73C624.256 73 629.135 71.0809 632.845 67.6289L630.12 64.7006L627.395 61.7723C625.166 63.8468 622.234 65 619.189 65V69ZM609.794 72.038L612.136 75.2807C614.188 73.798 616.656 73 619.189 73V69V65C614.975 65 610.868 66.328 607.452 68.7952L609.794 72.038ZM603.784 76.7157L606.613 79.5441C607.271 78.8858 607.981 78.2812 608.736 77.7361L606.394 74.4934L604.052 71.2507C602.951 72.0456 601.916 72.9272 600.956 73.8872L603.784 76.7157ZM592.503 83V87C596.738 87 600.836 85.3206 603.844 82.3134L601.015 79.4849L598.187 76.6565C596.693 78.1506 594.634 79 592.503 79V83ZM582.485 88.4319L585.844 90.6049C587.291 88.3675 589.814 87 592.503 87V83V79C587.125 79 582.062 81.7225 579.127 86.2589L582.485 88.4319ZM577.134 92.9239L578.693 96.6078C581.624 95.3678 584.115 93.2766 585.844 90.6049L582.485 88.4319L579.127 86.2589C578.268 87.5857 577.031 88.6243 575.576 89.24L577.134 92.9239ZM563.5 97V101C566.675 101 569.818 100.363 572.742 99.1253L571.184 95.4414L569.625 91.7576C567.687 92.5775 565.604 93 563.5 93V97ZM478.5 99.5L480.443 102.997C482.8 101.687 485.451 101 488.148 101V97V93C484.092 93 480.103 94.0337 476.557 96.0034L478.5 99.5ZM470.23 102V106C473.382 106 476.482 105.197 479.238 103.666L477.295 100.169L475.353 96.6727C473.786 97.5432 472.023 98 470.23 98V102ZM461.674 104.782L464.027 108.017C465.83 106.706 468.001 106 470.23 106V102V98C466.311 98 462.492 99.2419 459.322 101.547L461.674 104.782ZM447.699 110V114C452.965 114 458.094 112.332 462.353 109.235L460 106L457.647 102.765C454.756 104.868 451.274 106 447.699 106V110ZM423.979 109.722L422.927 113.581C423.947 113.859 425 114 426.058 114V110V106C425.711 106 425.366 105.954 425.032 105.863L423.979 109.722ZM414 108.111H418C418 110.189 416.024 111.698 414.019 111.151L415.072 107.292L416.124 103.433C413.04 102.592 410 104.914 410 108.111H414ZM412.588 108.745L409.931 111.734C413.057 114.514 418 112.294 418 108.111H414H410C410 105.391 413.213 103.949 415.245 105.755L412.588 108.745ZM402.958 105.403L406.388 107.461C406.16 107.842 405.641 107.921 405.308 107.626L407.966 104.636L410.623 101.647C407.21 98.6122 401.878 99.4282 399.528 103.345L402.958 105.403ZM400.137 107V111C402.698 111 405.071 109.656 406.388 107.461L402.958 105.403L399.528 103.345C399.657 103.131 399.888 103 400.137 103V107ZM390.897 104.79L388.373 107.893C390.723 109.805 393.71 111 396.915 111V107V103C395.72 103 394.484 102.552 393.421 101.687L390.897 104.79ZM313.654 83.9194L311.078 86.979C314.826 90.1354 319.399 92.1535 324.257 92.7951L324.78 88.8295L325.304 84.8639C321.96 84.4222 318.811 83.0328 316.231 80.8598L313.654 83.9194ZM302.986 79.0748L302.378 83.0283C305.585 83.5217 308.595 84.8886 311.078 86.979L313.654 83.9194L316.231 80.8598C312.625 77.8234 308.253 75.8381 303.594 75.1213L302.986 79.0748ZM278.172 72.9824L276.052 76.3744C279.698 78.6531 283.77 80.1655 288.019 80.8192L288.627 76.8657L289.236 72.9123C286.06 72.4237 283.017 71.2934 280.292 69.5904L278.172 72.9824ZM256.409 69.6311L257.706 73.4149C263.267 71.5086 269.39 72.2106 274.374 75.3259L276.494 71.9339L278.614 68.5419C271.586 64.1492 262.952 63.1594 255.112 65.8474L256.409 69.6311ZM242.465 70.0367L241.39 73.8895C246.751 75.3858 252.441 75.2203 257.706 73.4149L256.409 69.6311L255.112 65.8474C251.377 67.1277 247.343 67.2451 243.54 66.1839L242.465 70.0367ZM226.917 65.1773L224.497 68.3619C225.615 69.2111 226.883 69.841 228.234 70.2183L229.31 66.3655L230.385 62.5127C230.006 62.407 229.651 62.2305 229.338 61.9927L226.917 65.1773ZM215.5 59.508H219.5C219.5 61.582 217.126 62.7597 215.475 61.5047L217.895 58.3201L220.315 55.1354C216.699 52.3872 211.5 54.9662 211.5 59.508H215.5ZM214.008 61V65C217.041 65 219.5 62.5411 219.5 59.508H215.5H211.5C211.5 58.1229 212.623 57 214.008 57V61ZM207.265 58.6838L203.735 60.5662C205.191 63.2953 208.032 65 211.125 65V61V57C210.987 57 210.859 56.9237 210.794 56.8015L207.265 58.6838ZM200.25 53.5V57.5C201.389 57.5 202.435 58.1276 202.971 59.1324L206.5 57.25L210.029 55.3676C208.103 51.756 204.343 49.5 200.25 49.5V53.5ZM192.287 52.8936L190.498 56.4713C191.843 57.1437 193.336 57.5 194.849 57.5V53.5V49.5C194.588 49.5 194.319 49.4371 194.076 49.3159L192.287 52.8936ZM184.817 55.1002L188.272 57.1157C188.706 56.3708 189.685 56.0644 190.498 56.4713L192.287 52.8936L194.076 49.3159C189.532 47.0437 183.945 48.6553 181.361 53.0847L184.817 55.1002ZM182.568 57.2582L184.439 60.7934C186.035 59.9488 187.362 58.6749 188.272 57.1157L184.817 55.1002L181.361 53.0847C181.204 53.3554 180.973 53.5765 180.696 53.7231L182.568 57.2582ZM173.041 61V65C175.308 65 177.541 64.4454 179.545 63.3847L177.673 59.8495L175.802 56.3144C174.951 56.7646 174.003 57 173.041 57V61ZM163.652 55.2783L159.696 55.8645C160.473 61.1131 164.978 65 170.284 65V61V57C168.944 57 167.806 56.0181 167.609 54.6921L163.652 55.2783ZM155.002 49.8679L156.206 53.6822C157.793 53.1811 159.452 54.2185 159.696 55.8645L163.652 55.2783L167.609 54.6921C166.644 48.1762 160.078 44.07 153.797 46.0535L155.002 49.8679ZM136.067 59.6006L139.395 57.3818C139.839 58.0469 139.52 58.9515 138.758 59.1922L137.554 55.3778L136.349 51.5635C132.031 52.9272 130.227 58.0515 132.739 61.8194L136.067 59.6006ZM134.752 63.763L136.202 67.491C140.252 65.9159 141.806 60.9977 139.395 57.3818L136.067 59.6006L132.739 61.8194C132.313 61.1812 132.588 60.313 133.303 60.035L134.752 63.763ZM129 60.7842H125C125 66.1072 130.35 69.7669 135.311 67.8376L133.861 64.1096L132.411 60.3815C132.695 60.2714 133 60.4803 133 60.7842H129ZM125.447 56.5V60.5C125.2 60.5 125 60.2998 125 60.0527H129H133C133 55.8815 129.619 52.5 125.447 52.5V56.5ZM123.678 56.9716L125.67 60.4406C125.602 60.4795 125.525 60.5 125.447 60.5V56.5V52.5C124.128 52.5 122.831 52.8457 121.687 53.5026L123.678 56.9716ZM95.816 72V76C97.6182 76 99.389 75.5279 100.952 74.6306L98.9605 71.1616L96.969 67.6926C96.6181 67.894 96.2206 68 95.816 68V72ZM1069.74 399.442L1068.65 395.593C1066.52 396.195 1064.32 396.5 1062.11 396.5V400.5V404.5C1065.06 404.5 1067.99 404.093 1070.83 403.291L1069.74 399.442ZM89.5 68.0543H85.5C85.5 72.4426 89.0574 76 93.4457 76V72V68C93.4442 68 93.4469 67.9999 93.4524 68.001C93.4577 68.0021 93.4631 68.0038 93.468 68.0059C93.4774 68.0099 93.4821 68.0139 93.4841 68.0159C93.4861 68.0179 93.4901 68.0226 93.4941 68.032C93.4962 68.0369 93.4979 68.0423 93.499 68.0476C93.5001 68.0531 93.5 68.0558 93.5 68.0543H89.5ZM1093.01 390.215L1089.07 389.5C1089.03 389.702 1088.89 389.866 1088.69 389.922L1089.78 393.771L1090.87 397.62C1094 396.732 1096.36 394.137 1096.94 390.931L1093.01 390.215ZM91.0691 64.9016L88.7753 61.6247C86.7225 63.0616 85.5 65.4097 85.5 67.9154H89.5H93.5C93.5 68.0202 93.4489 68.1184 93.363 68.1785L91.0691 64.9016ZM689.294 21.2482L691.631 24.4943C694.335 22.5475 697.583 21.5 700.915 21.5V17.5V13.5C695.905 13.5 691.022 15.0749 686.957 18.002L689.294 21.2482ZM1096.14 386.688L1094.96 382.865C1091.91 383.803 1089.64 386.362 1089.07 389.5L1093.01 390.215L1096.94 390.931C1096.98 390.732 1097.12 390.571 1097.31 390.512L1096.14 386.688ZM91.6762 59.4073L88.7223 62.1044C88.5916 61.9612 88.6165 61.7358 88.7753 61.6247L91.0691 64.9016L93.363 68.1785C97.1592 65.5212 97.7547 60.1323 94.6302 56.7102L91.6762 59.4073ZM665.895 35.5V39.5C669.078 39.5 672.18 38.4995 674.763 36.6399L672.425 33.3938L670.088 30.1477C668.867 31.0269 667.4 31.5 665.895 31.5V35.5ZM1100 382.744H1096C1096 382.626 1096.08 382.522 1096.19 382.487L1097.37 386.311L1098.54 390.134C1101.79 389.135 1104 386.138 1104 382.744H1100ZM50.6498 28V32C57.3936 32 63.8263 34.8373 68.3734 39.8175L71.3274 37.1205L74.2813 34.4234C68.2184 27.7831 59.6416 24 50.6498 24V28ZM658.282 38.4943L661.007 41.4225C662.335 40.1869 664.082 39.5 665.895 39.5V35.5V31.5C662.059 31.5 658.366 32.9528 655.557 35.566L658.282 38.4943ZM1099.25 380.505L1096.05 382.905C1096.02 382.858 1096 382.802 1096 382.744H1100H1104C1104 381.071 1103.46 379.443 1102.45 378.105L1099.25 380.505ZM21.7361 28V24C10.7393 24 1.50109 32.2686 0.286698 43.1982L4.26223 43.6399L8.23777 44.0816C9.002 37.2035 14.8157 32 21.7361 32V28Z" fill="black" mask="url(#path-2-inside-1_265_21)"/>
</svg>
