<svg width="4015" height="2155" viewBox="0 0 4015 2155" fill="none" xmlns="http://www.w3.org/2000/svg">
<path d="M71.0856 488.518C-28.1144 521.718 5.08561 652.351 34.0856 713.518L264.085 778.018C271.752 802.518 298.985 836.818 346.585 778.018C394.185 719.218 574.752 722.851 659.085 732.018C714.252 716.684 824.585 709.918 824.585 805.518C824.585 901.118 891.919 1041.35 925.585 1099.52L1008.59 1131.52C1029.92 1159.18 1059.79 1239.32 1008.59 1338.52C957.385 1437.72 1060.59 1569.85 1118.59 1623.52H1261.09L1431.09 1669.52L1514.09 1743.02L1624.09 1812.02L1743.59 1867.02L1776.09 2000.02L1863.09 1954.52L2070.09 1922.02L2129.59 1867.02C2166.42 1859.35 2242.79 1837.62 2253.59 1812.02C2264.39 1786.42 2264.09 1728.02 2253.59 1704.52C2243.09 1681.02 2218.59 1610.52 2117.59 1629.52C2016.59 1648.52 1947.69 2015.02 1900.09 1743.02C1852.49 1471.02 2187.09 1370.52 2203.09 1311.02C2219.09 1251.52 2070.09 1256.02 2070.09 1256.02C1950.59 1237.52 1694.09 1196.82 1624.09 1182.02C1554.09 1167.22 1521.59 1105.52 1514.09 1076.52L1431.09 902.018L1344.09 594.018V396.518C1301.09 336.684 1214.19 202.318 1210.59 143.518C1206.09 70.0176 1114.09 6.01758 925.585 6.01758H765.085L824.585 143.518L870.585 249.518C849.085 264.851 791.385 286.318 732.585 249.518C659.085 203.518 760.085 143.518 705.085 102.518C661.085 69.7176 643.752 24.5176 640.585 6.01758C562.585 33.5176 389.085 99.5176 319.085 143.518C231.585 198.518 236.585 258.518 346.585 249.518C434.585 242.318 423.252 316.851 406.585 355.018C336.086 385.684 170.286 455.318 71.0856 488.518Z" stroke="black" stroke-width="9"/>
<path d="M2882.09 1812.02L2790.59 1669.52C2808.92 1643.18 2767.69 1585.52 2882.09 1585.52C2996.49 1585.52 2988.59 1669.52 3055.09 1669.52C3113.59 1644.02 3078.09 1551.52 3128.09 1469.52C3178.09 1387.52 3148.92 1315.35 3128.09 1289.52C3074.25 1288.35 3044.29 1280.02 3355.09 1256.02C3743.59 1226.02 3601.09 1311.02 3711.09 1311.02C3821.09 1311.02 3857.59 1454.52 3898.09 1469.52C3930.49 1481.52 3984.92 1525.18 4008.09 1545.52C4009.25 1586.85 4010.89 1669.52 4008.09 1669.52C4005.29 1669.52 3921.25 1801.18 3879.59 1867.02L3857.59 2000.02C3857.59 2000.02 3774.42 2052.35 3747.59 2012.02L3729.59 2144.02H3575.59C3533.92 2144.02 3466.79 2131.62 3531.59 2082.02C3596.39 2032.42 3546.25 2006.68 3513.09 2000.02L3384.59 2082.02L3289.09 2111.02C3235.42 2112.35 3104.59 2120.82 3010.59 2144.02C2893.09 2173.02 2963.09 2093.02 3065.59 2082.02C3147.59 2073.22 3141.42 2056.35 3128.09 2049.02C3123.09 2032.68 3110.19 1990.92 3098.59 1954.52C3086.99 1918.12 3020.42 1917.68 2988.59 1922.02H2882.09C2829.59 1903.68 2737.79 1867.02 2790.59 1867.02C2843.39 1867.02 2873.59 1830.35 2882.09 1812.02Z" stroke="black" stroke-width="9"/>
</svg>
