<svg width="762" height="739" viewBox="0 0 762 739" fill="none" xmlns="http://www.w3.org/2000/svg">
<path d="M3 135.347V3H94.9459L156.243 43.7222H227.757L278.838 64.0833L309.487 94.625H360.568H442.297L493.378 74.2639L544.459 43.7222H595.541L667.054 3H759V267.694L728.351 318.597L697.703 389.861L646.622 420.403L595.541 461.125H564.892V522.208L595.541 562.931L615.973 603.653V644.375L595.541 664.736V736H564.892L524.027 715.639L493.378 685.097H452.514H401.432L381 715.639H340.135L360.568 685.097V644.375L381 603.653H329.919L258.405 562.931L197.108 491.667V400.042L135.811 318.597L64.2973 206.611L3 135.347Z" stroke="black" stroke-width="6"/>
</svg>
