<svg width="388" height="126" viewBox="0 0 388 126" fill="none" xmlns="http://www.w3.org/2000/svg">
<g id="Jawa">
<path id="Vector 22" d="M204.848 81.0185V79.8944L205.694 79.4728L207.244 79.1918L208.512 79.4728L208.935 81.0185L209.64 81.5806L210.203 81.0185L210.626 79.8944L211.613 79.1918L212.599 78.2081L214.009 77.365L215.559 76.1003L216.405 75.3977H216.968V76.1003L217.955 81.5806L218.378 84.11L220.351 85.0936L221.478 85.5152H223.169H224.156L225.988 85.0936H227.679L228.525 85.5152L229.511 86.3583L230.357 87.2014L229.511 88.7472V90.7145V92.8223L228.807 93.5249L229.511 94.9301L230.357 96.4758V98.4431V99.8483L231.203 100.551H228.807L225.988 99.8483L223.169 98.4431L221.055 98.0215L218.378 97.0379L215.559 95.6327L214.009 94.9301L213.022 93.5249H211.613C211.237 93.3375 210.316 92.9347 209.64 92.8223C208.963 92.7099 208.136 92.2134 207.808 91.9792L205.694 90.7145L202.734 89.1687L201.606 88.1851V86.7799L202.734 85.5152L203.72 84.11L204.566 83.2669L204.848 82.0022V81.0185Z" fill="white" stroke="black"/>
<path id="Vector 18" d="M63.209 16.8005V14.9738H64.4774L65.323 15.5358H66.3095L67.0142 15.8169L67.437 16.2384H68.1417H69.2691L69.9738 15.9574L70.6785 15.5358H71.3832L72.3697 14.9738H73.6381V18.6273L73.2153 19.3299L72.7925 20.3135L72.0878 20.7351L71.3832 21.2972H70.9604V22.1403L71.3832 22.7024L71.665 23.2645V23.8266L71.3832 24.1076V25.0912H70.9604L70.3966 24.8102L69.9738 24.3886H69.4101H68.7054L68.4235 24.8102H67.8598L68.1417 24.3886V23.8266L68.4235 23.2645H67.7189L66.7323 22.7024L65.8867 21.7188V20.4541L65.0411 19.3299L64.0546 17.7842L63.209 16.8005Z" fill="white" stroke="black"/>
<g id="Vector 21">
<path d="M151.716 44.0615C151.942 44.1739 153.408 44.7641 154.112 45.0451L154.958 45.8883H156.649L157.636 44.6236L159.327 43.6399L160.313 44.6236L161.3 45.8883L163.837 46.7314L166.655 47.1529L169.474 47.5745L173.138 46.7314C173.89 46.4503 175.478 45.8883 175.816 45.8883C176.239 45.8883 177.366 45.1856 177.93 44.6236C178.381 44.1739 178.964 43.7804 179.199 43.6399L180.326 45.0451C180.608 45.3262 181.256 45.8883 181.594 45.8883C182.017 45.8883 183.427 45.6072 183.708 45.8883C183.934 46.1131 185.306 46.544 185.963 46.7314L187.796 47.5745C188.312 47.8087 189.571 48.2771 190.473 48.2771C191.375 48.2771 191.601 48.7455 191.601 48.9797C191.93 49.1671 192.785 49.4856 193.574 49.2607C194.363 49.0359 196.346 49.1671 197.238 49.2607H198.788H200.339L201.184 48.2771H203.298C203.768 48.1834 204.736 47.9117 204.849 47.5745C204.961 47.2372 205.271 46.8719 205.412 46.7314L206.258 47.0124L206.822 46.7314L207.244 47.5745L207.667 48.2771H209.781L211.332 49.6823L213.023 50.666H214.573H216.264L217.251 50.1039L218.237 49.6823L221.056 46.3098L221.338 45.3262L222.465 44.6236L223.029 44.0615V42.7968L223.311 41.9537L224.438 40.2674L225.707 37.738L226.411 35.6302L226.975 33.5224L227.962 31.4146L228.525 30.2904L229.512 29.5878L231.485 29.0258L232.894 28.4637L234.445 28.0421L236.277 28.4637L237.827 28.0421L239.236 28.4637H240.646L241.069 29.0258V30.8525L241.35 32.1172L242.337 34.225L242.76 35.2087L244.028 37.3165L245.438 38.5812L247.693 39.4243H251.78L253.189 39.9864H254.88H256.43L256.853 39.4243L257.84 38.8622L258.263 39.9864L258.685 38.8622V38.5812L259.531 37.738V36.8949H261.081C261.307 36.8949 262.209 37.176 262.632 37.3165L266.719 41.1105L266.578 41.6726V42.3752L266.014 43.0778L266.578 43.6399L266.014 44.6236L265.45 44.0615L264.605 44.6236V45.3262L264.041 46.3098L263.477 47.5745L262.632 48.6987L262.209 50.1039L263.054 50.666L264.041 50.947V53.8979L264.605 54.7411L264.041 55.7247L263.477 57.2704L263.054 59.2377L261.786 59.6593L261.081 60.6429L260.095 61.4861L258.685 62.1887H257.276L256.853 64.718H256.43C256.289 64.8117 256.092 65.0553 256.43 65.2801C256.769 65.5049 256.571 65.8422 256.43 65.9827L255.303 65.5612L251.78 64.718L249.947 64.2965V62.7507L250.37 62.1887L249.666 61.4861L248.82 61.0645L248.397 61.4861H247.27L246.847 62.1887H246.142L245.719 61.9076L245.156 62.3292L244.874 63.0318V63.7344L244.028 64.2965L244.874 64.718V65.5612L244.592 67.2474L244.028 68.231V69.2147V71.0415L244.592 72.7277L245.438 75.2571L246.142 76.2407L246.424 77.2244H246.847V78.208L246.424 79.0511L246.847 80.1753L246.424 81.5805L247.27 82.2831C247.505 82.33 248.059 82.4799 248.397 82.7047C248.735 82.9295 249.572 83.3605 249.947 83.5478L250.934 84.3909L251.357 85.9367C251.216 86.5456 250.934 87.8196 250.934 88.0445C250.934 88.2693 250.558 89.356 250.37 89.8712L249.666 90.4333L248.82 89.8712L247.833 89.4497L246.706 89.1686L245.438 89.8712L244.592 91.1359L244.028 93.1032V93.8058L244.592 94.93H244.028H243.042L242.378 94.5991C242.398 94.663 242.36 94.7669 242.196 94.93C241.858 95.2672 241.304 95.5389 241.069 95.6326H239.941H238.814C238.814 95.3047 238.701 94.7052 238.25 94.93C237.799 95.1548 237.216 95.7731 236.982 96.0542L235.854 97.1783L235.008 99.5672L234.727 100.832C234.445 100.691 233.825 100.495 233.599 100.832C233.374 101.169 233.317 99.4735 233.317 98.5835L232.472 98.0214H231.908L231.203 95.211L230.076 93.8058L230.499 93.1032L230.921 91.698V89.8712L231.203 88.0445L231.626 86.0772V85.2341L230.076 84.8125L228.807 84.3909L226.975 83.5478H225.002H223.029H220.774L219.647 82.7047L218.519 77.2244L217.814 75.2571V73.5708L216.828 73.1493L215.982 73.5708L214.855 74.8355L212.177 77.2244L210.486 78.6296L209.358 78.208L208.795 77.2244L207.667 77.6459L205.412 78.208L204.426 77.6459H203.862L203.439 78.6296L203.016 79.4727V80.1753L203.439 80.7374V81.5805C203.251 81.9084 202.847 82.6204 202.735 82.8452C202.622 83.07 201.842 83.9694 201.466 84.3909L200.761 85.2341V86.0772L200.198 86.7798L199.775 88.0445L196.393 86.7798C195.782 86.5456 194.448 86.0772 193.997 86.0772C193.546 86.0772 192.118 85.5151 191.46 85.2341L188.218 84.8125L185.963 83.9694L183.708 83.5478L179.903 83.1262L177.789 82.7047L174.83 82.8452L174.125 82.1426L173.138 80.7374L170.602 80.1753H166.796L163.837 79.4727L162.85 78.208H162.005L161.582 78.6296V79.4727L161.159 80.1753H159.327C159.186 80.3627 158.82 80.8217 158.481 81.159C158.143 81.4962 157.213 81.5805 156.79 81.5805L155.663 80.7374H154.253L153.549 80.1753L152.703 77.6459V76.3813L151.576 75.9597L150.166 75.3976V75.9597C150.072 76.2407 149.828 76.8871 149.602 77.2244C149.377 77.5616 148.945 78.0207 148.757 78.208L147.911 77.2244V75.9597V75.3976C147.911 74.9479 148.193 74.2734 148.334 73.9924L147.911 73.4303L147.207 71.8846V70.4794V68.6526C146.972 68.6058 146.474 68.484 146.361 68.3716C146.248 68.2592 145.844 67.669 145.656 67.3879L145.374 66.2638L144.67 65.7017L144.106 65.2801L143.119 64.9991L142.556 65.2801L141.287 65.4206L140.583 64.9991L140.301 64.0154V63.4533L140.583 62.7507L141.287 62.3292L141.005 61.0645V60.2214L140.724 59.6593H140.301V58.9567H140.724L141.005 58.6756L141.428 58.5351C141.569 58.3946 141.907 58.1417 142.133 58.2541C142.358 58.3665 142.791 58.4883 142.979 58.5351L143.542 58.9567L144.106 58.6756L145.374 58.5351L145.938 58.2541L146.361 57.5515L146.784 57.2704L148.757 56.9894V56.5678L149.321 56.1463V54.8816L149.743 54.6005V53.3358C150.025 53.289 150.561 53.1391 150.448 52.9143C150.335 52.6895 150.025 52.1648 149.884 51.9306L149.321 51.0875L148.757 50.666L148.475 49.1202V47.8555L150.448 46.1693L150.871 45.0451V44.0615H151.716Z" fill="white"/>
<path d="M150.166 81.5805L149.884 80.7374L149.602 80.1753L151.012 80.7374L151.576 81.159L151.998 81.8616H151.012L150.166 81.5805Z" fill="white"/>
<path d="M153.549 82.5642L152.703 82.1426V81.5805L153.69 81.721L153.83 82.0021L154.817 82.1426L155.663 82.2831L156.367 82.5642L156.226 83.1262H155.381C155.155 83.1262 155.287 82.7515 155.381 82.5642H154.394H153.549Z" fill="white"/>
<path d="M151.716 44.0615C151.942 44.1739 153.408 44.7641 154.112 45.0451L154.958 45.8883H156.649L157.636 44.6236L159.327 43.6399L160.313 44.6236L161.3 45.8883L163.837 46.7314L166.655 47.1529L169.474 47.5745L173.138 46.7314C173.89 46.4503 175.478 45.8883 175.816 45.8883C176.239 45.8883 177.366 45.1856 177.93 44.6236C178.381 44.1739 178.964 43.7804 179.199 43.6399L180.326 45.0451C180.608 45.3262 181.256 45.8883 181.594 45.8883C182.017 45.8883 183.427 45.6072 183.708 45.8883C183.934 46.1131 185.306 46.544 185.963 46.7314L187.796 47.5745C188.312 47.8087 189.571 48.2771 190.473 48.2771C191.375 48.2771 191.601 48.7455 191.601 48.9797C191.93 49.1671 192.785 49.4856 193.574 49.2607C194.363 49.0359 196.346 49.1671 197.238 49.2607H198.788H200.339L201.184 48.2771H203.298C203.768 48.1834 204.736 47.9117 204.849 47.5745C204.961 47.2372 205.271 46.8719 205.412 46.7314L206.258 47.0124L206.822 46.7314L207.244 47.5745L207.667 48.2771H209.781L211.332 49.6823L213.023 50.666H214.573H216.264L217.251 50.1039L218.237 49.6823L221.056 46.3098L221.338 45.3262L222.465 44.6236L223.029 44.0615V42.7968L223.311 41.9537L224.438 40.2674L225.707 37.738L226.411 35.6302L226.975 33.5224L227.962 31.4146L228.525 30.2904L229.512 29.5878L231.485 29.0258L232.894 28.4637L234.445 28.0421L236.277 28.4637L237.827 28.0421L239.236 28.4637H240.646L241.069 29.0258V30.8525L241.35 32.1172L242.337 34.225L242.76 35.2087L244.028 37.3165L245.438 38.5812L247.693 39.4243H251.78L253.189 39.9864H254.88H256.43L256.853 39.4243L257.84 38.8622L258.263 39.9864L258.685 38.8622V38.5812L259.531 37.738V36.8949H261.081C261.307 36.8949 262.209 37.176 262.632 37.3165L266.719 41.1105L266.578 41.6726V42.3752L266.014 43.0778L266.578 43.6399L266.014 44.6236L265.45 44.0615L264.605 44.6236V45.3262L264.041 46.3098L263.477 47.5745L262.632 48.6987L262.209 50.1039L263.054 50.666L264.041 50.947V53.8979L264.605 54.7411L264.041 55.7247L263.477 57.2704L263.054 59.2377L261.786 59.6593L261.081 60.6429L260.095 61.4861L258.685 62.1887H257.276L256.853 64.718H256.43C256.289 64.8117 256.092 65.0553 256.43 65.2801C256.769 65.5049 256.571 65.8422 256.43 65.9827L255.303 65.5612L251.78 64.718L249.947 64.2965V62.7507L250.37 62.1887L249.666 61.4861L248.82 61.0645L248.397 61.4861H247.27L246.847 62.1887H246.142L245.719 61.9076L245.156 62.3292L244.874 63.0318V63.7344L244.028 64.2965L244.874 64.718V65.5612L244.592 67.2474L244.028 68.231V69.2147V71.0415L244.592 72.7277L245.438 75.2571L246.142 76.2407L246.424 77.2244H246.847V78.208L246.424 79.0511L246.847 80.1753L246.424 81.5805L247.27 82.2831C247.505 82.33 248.059 82.4799 248.397 82.7047C248.735 82.9295 249.572 83.3605 249.947 83.5478L250.934 84.3909L251.357 85.9367C251.216 86.5456 250.934 87.8196 250.934 88.0445C250.934 88.2693 250.558 89.356 250.37 89.8712L249.666 90.4333L248.82 89.8712L247.833 89.4497L246.706 89.1686L245.438 89.8712L244.592 91.1359L244.028 93.1032V93.8058L244.592 94.93H244.028H243.042L242.378 94.5991C242.398 94.663 242.36 94.7669 242.196 94.93C241.858 95.2672 241.304 95.5389 241.069 95.6326H239.941H238.814C238.814 95.3047 238.701 94.7052 238.25 94.93C237.799 95.1548 237.216 95.7731 236.982 96.0542L235.854 97.1783L235.008 99.5672L234.727 100.832C234.445 100.691 233.825 100.495 233.599 100.832C233.374 101.169 233.317 99.4735 233.317 98.5835L232.472 98.0214H231.908L231.203 95.211L230.076 93.8058L230.499 93.1032L230.921 91.698V89.8712L231.203 88.0445L231.626 86.0772V85.2341L230.076 84.8125L228.807 84.3909L226.975 83.5478H225.002H223.029H220.774L219.647 82.7047L218.519 77.2244L217.814 75.2571V73.5708L216.828 73.1493L215.982 73.5708L214.855 74.8355L212.177 77.2244L210.486 78.6296L209.358 78.208L208.795 77.2244L207.667 77.6459L205.412 78.208L204.426 77.6459H203.862L203.439 78.6296L203.016 79.4727V80.1753L203.439 80.7374V81.5805C203.251 81.9084 202.847 82.6204 202.735 82.8452C202.622 83.07 201.842 83.9694 201.466 84.3909L200.761 85.2341V86.0772L200.198 86.7798L199.775 88.0445L196.393 86.7798C195.782 86.5456 194.448 86.0772 193.997 86.0772C193.546 86.0772 192.118 85.5151 191.46 85.2341L188.218 84.8125L185.963 83.9694L183.708 83.5478L179.903 83.1262L177.789 82.7047L174.83 82.8452L174.125 82.1426L173.138 80.7374L170.602 80.1753H166.796L163.837 79.4727L162.85 78.208H162.005L161.582 78.6296V79.4727L161.159 80.1753H159.327C159.186 80.3627 158.82 80.8217 158.481 81.159C158.143 81.4962 157.213 81.5805 156.79 81.5805L155.663 80.7374H154.253L153.549 80.1753L152.703 77.6459V76.3813L151.576 75.9597L150.166 75.3976V75.9597C150.072 76.2407 149.828 76.8871 149.602 77.2244C149.377 77.5616 148.945 78.0207 148.757 78.208L147.911 77.2244V75.9597V75.3976C147.911 74.9479 148.193 74.2734 148.334 73.9924L147.911 73.4303L147.207 71.8846V70.4794V68.6526C146.972 68.6058 146.474 68.484 146.361 68.3716C146.248 68.2592 145.844 67.669 145.656 67.3879L145.374 66.2638L144.67 65.7017L144.106 65.2801L143.119 64.9991L142.556 65.2801L141.287 65.4206L140.583 64.9991L140.301 64.0154V63.4533L140.583 62.7507L141.287 62.3292L141.005 61.0645V60.2214L140.724 59.6593H140.301V58.9567H140.724L141.005 58.6756L141.428 58.5351C141.569 58.3946 141.907 58.1417 142.133 58.2541C142.358 58.3665 142.791 58.4883 142.979 58.5351L143.542 58.9567L144.106 58.6756L145.374 58.5351L145.938 58.2541L146.361 57.5515L146.784 57.2704L148.757 56.9894V56.5678L149.321 56.1463V54.8816L149.743 54.6005V53.3358C150.025 53.289 150.561 53.1391 150.448 52.9143C150.335 52.6895 150.025 52.1648 149.884 51.9306L149.321 51.0875L148.757 50.666L148.475 49.1202V47.8555L150.448 46.1693L150.871 45.0451V44.0615H151.716Z" stroke="black"/>
<path d="M150.166 81.5805L149.884 80.7374L149.602 80.1753L151.012 80.7374L151.576 81.159L151.998 81.8616H151.012L150.166 81.5805Z" stroke="black"/>
<path d="M153.549 82.5642L152.703 82.1426V81.5805L153.69 81.721L153.83 82.0021L154.817 82.1426L155.663 82.2831L156.367 82.5642L156.226 83.1262H155.381C155.155 83.1262 155.287 82.7515 155.381 82.5642H154.394H153.549Z" stroke="black"/>
</g>
<g id="Jawa Barat">
<path id="Vector 19" d="M78.0078 8.0881L76.5985 7.3855V8.50966L76.7394 9.77435L76.4576 9.91487L76.3166 10.477H75.7529V11.1796C75.7529 11.292 75.9408 11.5074 76.0348 11.6011L76.8804 11.7416L77.1622 12.4442L77.585 13.4279H76.8804L76.5985 14.4115H75.3301L74.9073 14.9736V19.1892L73.7798 20.4539L73.4979 20.5944L73.9208 21.4376C73.7798 21.4844 73.4698 21.5781 73.357 21.5781H72.6523V21.8591L72.3705 22.1402L72.5114 22.7023L72.7933 23.2643L72.5114 24.1075L72.6523 24.6695L72.7933 25.3722L72.3705 25.9342L72.0886 26.3558H71.243H70.6793L69.8337 25.7937C69.5988 25.7937 69.0444 25.7656 68.7062 25.6532C68.368 25.5408 68.1894 25.7937 68.1425 25.9342H67.015H65.6056C65.4929 25.9342 64.9949 26.0279 64.76 26.0748C63.7735 26.0748 61.7441 26.0467 61.5186 25.9342C61.2931 25.8218 60.579 25.8874 60.2501 25.9342H59.2636C59.0757 25.9811 58.6717 26.0467 58.5589 25.9342L58.1361 25.5127L57.7133 25.0911L56.7268 25.3722L56.1631 25.7937C55.6933 25.7469 54.7255 25.6532 54.6128 25.6532C54.5 25.6532 54.5658 25.1848 54.6128 24.9506L54.4719 24.3885L53.9081 23.8264L53.3444 24.3885L52.9216 24.9506L52.6397 25.7937L52.9216 26.4963L53.4853 27.1989L53.9081 28.042L53.4853 28.8852L52.9216 29.4473L52.076 29.5878L51.6532 30.5714L51.3713 31.4145L51.6532 32.3982L52.2169 33.3818L52.6397 34.225V38.8621L53.9081 39.8458L54.7537 40.8294L55.3175 41.532L56.0221 42.2346L55.3175 42.9372L54.7537 43.6399L53.9081 43.9209L53.3444 44.764L52.9216 45.3261L52.076 47.1529L51.3713 47.5744L51.0894 47.996L51.2304 48.6986L51.3713 48.9796L51.0894 49.4012L50.9485 49.6822L51.3713 49.8228H51.935L52.4988 49.4012L52.9216 49.8228H53.9081H55.0356L55.7403 49.9633L56.304 50.3848L57.2905 50.8064L57.1496 53.1953L57.2905 54.4599L55.0356 56.1462L54.0491 57.1298L53.7672 57.5514V58.1135V59.2377L53.6262 60.0808H52.7806H51.7941L51.3713 60.3618L50.8076 61.3455V62.0481L50.5257 63.0317L50.3848 63.7343V64.2964C50.5257 64.5774 50.8358 65.1395 50.9485 65.1395C51.0612 65.1395 51.6532 65.7016 51.935 65.9827C52.3578 66.0763 53.2598 66.2637 53.4853 66.2637C53.7108 66.2637 54.5188 66.8258 54.8947 67.1068L57.2905 68.231L59.6864 68.3715L60.9548 68.6525L62.0823 68.9336H66.4512L71.3839 69.0741L72.3705 69.3551C73.0751 69.402 74.5127 69.4957 74.6254 69.4957C74.7382 69.4957 75.7059 69.5894 76.1757 69.6362L77.726 69.7767L81.2493 70.3388L85.0545 71.1819L86.8867 71.463L88.5779 71.744L90.1282 71.8845L92.2422 71.744L93.9334 72.3061L95.2018 72.7276L96.4702 73.4303L98.0205 73.9923C98.3493 74.1329 99.0352 74.4139 99.1479 74.4139C99.2607 74.4139 99.9466 74.6949 100.275 74.8355L101.685 75.8191L103.517 77.5054L103.94 78.3485C104.363 78.5358 105.236 78.9106 105.349 78.9106C105.462 78.9106 106.993 79.0979 107.745 79.1916L108.591 79.4726C108.919 79.66 109.605 80.0628 109.718 80.1752C109.831 80.2877 109.953 80.7842 110 81.0184L110.564 81.5805C110.892 81.6273 111.578 81.721 111.691 81.721C111.804 81.721 111.926 81.4399 111.973 81.2994L112.819 80.8779C113.044 80.7654 113.194 81.2994 113.241 81.5805H115.073C115.355 81.5805 116.765 82.4236 117.188 82.4236C117.526 82.4236 119.208 82.7983 120.006 82.9857L121.275 83.4072C121.697 83.5477 122.599 83.8007 122.825 83.6883C123.05 83.5759 123.389 83.6414 123.53 83.6883L124.939 84.1098C125.221 84.2035 125.869 84.3909 126.207 84.3909H127.053L128.18 84.9529C128.744 84.9529 129.928 84.9811 130.153 85.0935C130.379 85.2059 131.281 85.0466 131.704 84.9529L133.395 85.234C133.724 85.1872 134.41 85.0654 134.522 84.9529C134.635 84.8405 135.227 84.6251 135.509 84.5314L136.495 84.3909C136.589 84.2035 136.806 83.8007 136.918 83.6883C137.031 83.5759 136.683 83.2667 136.495 83.1262V82.4236V81.1589L136.777 80.4563C137.059 80.4094 137.651 80.2877 137.764 80.1752C137.877 80.0628 138.281 79.941 138.469 79.8942C138.797 79.8942 139.54 79.8661 139.878 79.7537C140.216 79.6413 140.301 79.7068 140.301 79.7537C140.395 79.7537 140.667 79.7256 141.005 79.6132C141.344 79.5007 141.428 79.7537 141.428 79.8942H142.978H143.965L144.529 79.4726H145.374L146.361 79.7537L146.925 80.0347H147.77C147.911 79.9879 148.193 79.8661 148.193 79.7537C148.193 79.6132 147.77 78.9106 147.629 78.77C147.488 78.6295 146.361 78.0674 146.361 77.7864V77.0838C146.408 76.8964 146.53 76.4936 146.643 76.3812C146.784 76.2407 146.925 75.257 146.925 74.976V74.1329L146.361 73.0087L145.797 72.025L145.515 71.463V70.9009V70.1983L144.811 69.0741L144.106 67.2473L143.401 66.8258H142.556L139.878 66.5447L139.314 66.1232L139.173 65.4206L139.032 64.4369L138.891 63.5938L139.173 62.8912L139.737 62.3291L139.596 60.9239L139.173 59.9403L138.891 59.2377V58.5351L139.737 58.1135L140.301 57.6919L141.146 57.4109L141.851 57.1298H142.838L143.401 57.6919H144.106C144.219 57.6919 144.811 57.5982 145.092 57.5514L145.515 56.7083C145.75 56.5678 146.248 56.2867 146.361 56.2867C146.474 56.2867 146.878 56.0994 147.066 56.0057L147.77 56.1462L148.052 55.4436V54.1789C148.052 54.0384 148.193 53.6168 148.334 53.3358C148.447 53.111 148.475 52.68 148.475 52.4927L148.334 52.0711L147.488 51.6495V50.6659L147.206 49.5417L146.925 48.6986V48.1365L147.629 47.715V47.1529L147.77 46.5908L148.475 46.4503L149.18 45.7477C149.32 45.6071 149.602 45.298 149.602 45.1856C149.602 45.0732 149.884 44.764 150.025 44.6235C150.072 44.483 150.166 44.1457 150.166 43.9209C150.166 43.6961 149.978 43.5462 149.884 43.4993L149.461 43.6399L148.898 44.2019L148.052 44.483L146.925 44.764L145.797 44.6235L144.811 44.483C144.576 44.3425 144.05 44.0333 143.824 43.9209C143.599 43.8085 143.918 43.6867 144.106 43.6399L143.683 42.9372L143.401 42.6562L142.978 42.9372L142.133 42.7967H141.146L140.442 41.9536C140.207 41.7662 139.709 41.3634 139.596 41.251C139.483 41.1386 139.361 40.4547 139.314 40.1268L139.032 39.4242V38.5811L138.609 37.1759V36.6138L138.328 35.6302V34.6465L138.469 34.0844L138.187 33.1008H137.482V32.6792L138.187 32.3982V31.274L137.905 30.5714H136.777L136.214 29.8688L135.368 29.4473L133.959 28.6041L131.563 25.7937L131.14 24.248L131.563 23.6859L131.14 22.4212H130.153L129.308 21.7186L128.462 21.1565L128.039 21.7186H125.644L124.939 22.4212L125.644 23.1238L124.939 24.248L124.093 24.6695H122.825V25.2316H122.12H120.57L114.792 21.7186H114.228L113.946 21.1565H112.678H111.832V20.5944L110.986 20.3134L110.141 19.4703L109.859 18.9082H109.154L108.591 19.4703L107.181 19.8918L106.477 20.5944H105.208H104.081V21.1565H102.671H101.826V20.5944L101.544 19.8918L99.8526 18.9082L97.7386 18.4866L96.0474 17.784L93.7925 16.5193L93.2287 15.1141L92.2422 13.5684L90.8328 11.3201L89.7054 10.477L89.2826 9.77435L87.3095 9.49331L85.6183 9.77435L84.3499 10.477H82.6587H80.9675L80.2628 9.49331L79.2762 8.50966H78.4306L78.0078 8.0881Z" fill="white" stroke="black"/>
<g id="Vector 15">
<path d="M19.8018 35.2086V32.2577L20.0837 31.4145H20.7883V31.8361L21.0702 32.3982L22.4795 32.9603L23.607 32.6792L25.1573 32.3982L26.5666 31.1335L27.1304 30.4309L27.4122 29.0257L27.6941 28.6041L27.835 27.1989L27.6941 26.6368L27.835 25.7937L27.976 24.1075L28.2578 23.2643L28.5397 22.9833L28.2578 22.2807L27.835 21.9997V21.2971V20.4539L28.1169 19.6108L28.2578 18.9082H28.6806V18.0651L28.9625 17.222L29.2444 16.8004L29.5262 16.2383V15.6762L29.949 15.3952L30.2309 15.2547V14.8331V14.1305L30.5128 13.7089L30.7947 13.4279H31.2175L31.6403 13.1469L32.6268 12.1632L33.1905 11.8822L33.7543 11.3201L34.0361 10.758L34.1771 10.1959L34.4589 9.49331L34.8817 9.21227V7.80706L35.0227 7.24498L35.7273 6.40186H37.4186L37.9823 7.10446V7.80706L38.2642 8.65019L37.9823 9.35279V9.77435L38.2642 10.1959L39.5326 11.6011L40.0963 11.8822L40.801 12.1632H42.3512L42.915 11.8822L43.7606 11.7416L44.3243 11.3201L44.6062 10.477L45.029 10.1959V9.91487V9.35279L45.3109 8.93123L45.7337 8.79071L46.2974 8.93123L46.8611 9.35279L47.5658 9.49331L47.9886 9.77435L48.5523 10.1959H49.257L50.1026 10.477V11.3201L50.5254 11.8822L51.2301 12.1632L51.6529 12.5848H52.4985L53.2032 12.8658L53.7669 13.0063V13.4279H54.3306H55.1762L55.3172 13.1469L55.599 13.0063V12.7253V12.3037L56.0218 12.1632L56.1628 11.8822H56.8675L57.1493 12.3037H57.7131V12.4442V12.7253H58.4177L58.8405 12.5848V12.3037H59.5452L59.968 12.1632L60.1089 11.8822H60.5317L60.8136 12.1632H61.3773L61.8001 12.3037L62.082 11.8822H62.6457L62.9276 12.0227L63.0686 13.99L62.082 14.4115V17.6435L62.3639 18.4866L63.4914 18.6272V19.4703L63.6323 20.4539L64.4779 20.5945L64.6188 21.1565L65.0416 22.4212L65.3235 23.1238L65.8872 23.9669L65.3235 24.8101L59.5452 24.9506L58.8405 24.529L58.4177 24.248L57.1493 23.9669L56.3037 23.5454L55.3172 23.4049L54.6125 23.1238H53.485L53.0622 23.4049L52.4985 23.8264L52.2166 24.3885L51.7938 24.6696L51.6529 25.7937L52.0757 26.7774V27.48L52.4985 27.9015V28.6041H52.0757L50.8073 28.8852L50.5254 29.5878L50.2436 30.993L50.5254 31.8361L50.6664 33.1008L50.9482 33.2413V33.9439L51.371 34.0844V34.6465V39.2837L52.0757 40.1268L52.9213 41.3915L54.4716 42.0941L53.626 42.9373L52.0757 44.2019L51.371 45.7477L50.2436 46.8718V48.1365L49.6798 50.6659C49.351 50.7596 48.5805 50.8907 48.1295 50.6659C47.6786 50.4411 46.5323 50.0101 46.0155 49.8228L43.9015 48.1365H42.6331L40.66 47.5744L38.8279 46.3097L37.4186 44.764L35.4455 44.2019L34.1771 43.4993H30.6537V44.2019H28.8216L26.0029 44.764L24.3117 44.2019L21.493 44.764H19.8018L17.4059 45.3261H16.2784L14.5872 45.7477L12.896 45.3261L14.0235 44.2019L14.8691 42.9373V41.3915L16.2784 40.1268L17.4059 38.7216L19.0971 37.0354L19.8018 35.2086Z" fill="white"/>
<path d="M10.782 44.764L9.79548 44.2019H9.23174L8.80894 43.6399L7.96334 43.4993H7.3996L6.83586 43.2183H5.99026L5.28559 43.4993L4.86279 43.9209L4.58092 44.6235H4.01718H3.73531V44.0614V43.2183L3.17158 42.9373V42.3752L3.45345 42.2346L4.01718 42.6562L4.58092 42.3752L4.72185 41.6726L5.56746 40.97L6.554 40.4079L7.25867 39.9863L7.3996 39.0027V38.3001L8.38614 37.8785L8.66801 38.3001L8.94987 39.0027V39.8458V40.6889V41.3915L9.79548 42.2346L10.782 42.9373L11.0639 44.0614L10.782 44.764Z" fill="white"/>
<path d="M0.916634 34.506L0.634766 33.9439L1.1985 33.5224L2.32597 33.9439L2.46691 33.3818L3.17158 33.5224V34.506H3.73531V35.7707H3.17158V36.4733H2.32597V36.0517H1.48037V35.2086L0.916634 34.506Z" fill="white"/>
<path d="M19.8018 35.2086V32.2577L20.0837 31.4145H20.7883V31.8361L21.0702 32.3982L22.4795 32.9603L23.607 32.6792L25.1573 32.3982L26.5666 31.1335L27.1304 30.4309L27.4122 29.0257L27.6941 28.6041L27.835 27.1989L27.6941 26.6368L27.835 25.7937L27.976 24.1075L28.2578 23.2643L28.5397 22.9833L28.2578 22.2807L27.835 21.9997V21.2971V20.4539L28.1169 19.6108L28.2578 18.9082H28.6806V18.0651L28.9625 17.222L29.2444 16.8004L29.5262 16.2383V15.6762L29.949 15.3952L30.2309 15.2547V14.8331V14.1305L30.5128 13.7089L30.7947 13.4279H31.2175L31.6403 13.1469L32.6268 12.1632L33.1905 11.8822L33.7543 11.3201L34.0361 10.758L34.1771 10.1959L34.4589 9.49331L34.8817 9.21227V7.80706L35.0227 7.24498L35.7273 6.40186H37.4186L37.9823 7.10446V7.80706L38.2642 8.65019L37.9823 9.35279V9.77435L38.2642 10.1959L39.5326 11.6011L40.0963 11.8822L40.801 12.1632H42.3512L42.915 11.8822L43.7606 11.7416L44.3243 11.3201L44.6062 10.477L45.029 10.1959V9.91487V9.35279L45.3109 8.93123L45.7337 8.79071L46.2974 8.93123L46.8611 9.35279L47.5658 9.49331L47.9886 9.77435L48.5523 10.1959H49.257L50.1026 10.477V11.3201L50.5254 11.8822L51.2301 12.1632L51.6529 12.5848H52.4985L53.2032 12.8658L53.7669 13.0063V13.4279H54.3306H55.1762L55.3172 13.1469L55.599 13.0063V12.7253V12.3037L56.0218 12.1632L56.1628 11.8822H56.8675L57.1493 12.3037H57.7131V12.4442V12.7253H58.4177L58.8405 12.5848V12.3037H59.5452L59.968 12.1632L60.1089 11.8822H60.5317L60.8136 12.1632H61.3773L61.8001 12.3037L62.082 11.8822H62.6457L62.9276 12.0227L63.0686 13.99L62.082 14.4115V17.6435L62.3639 18.4866L63.4914 18.6272V19.4703L63.6323 20.4539L64.4779 20.5945L64.6188 21.1565L65.0416 22.4212L65.3235 23.1238L65.8872 23.9669L65.3235 24.8101L59.5452 24.9506L58.8405 24.529L58.4177 24.248L57.1493 23.9669L56.3037 23.5454L55.3172 23.4049L54.6125 23.1238H53.485L53.0622 23.4049L52.4985 23.8264L52.2166 24.3885L51.7938 24.6696L51.6529 25.7937L52.0757 26.7774V27.48L52.4985 27.9015V28.6041H52.0757L50.8073 28.8852L50.5254 29.5878L50.2436 30.993L50.5254 31.8361L50.6664 33.1008L50.9482 33.2413V33.9439L51.371 34.0844V34.6465V39.2837L52.0757 40.1268L52.9213 41.3915L54.4716 42.0941L53.626 42.9373L52.0757 44.2019L51.371 45.7477L50.2436 46.8718V48.1365L49.6798 50.6659C49.351 50.7596 48.5805 50.8907 48.1295 50.6659C47.6786 50.4411 46.5323 50.0101 46.0155 49.8228L43.9015 48.1365H42.6331L40.66 47.5744L38.8279 46.3097L37.4186 44.764L35.4455 44.2019L34.1771 43.4993H30.6537V44.2019H28.8216L26.0029 44.764L24.3117 44.2019L21.493 44.764H19.8018L17.4059 45.3261H16.2784L14.5872 45.7477L12.896 45.3261L14.0235 44.2019L14.8691 42.9373V41.3915L16.2784 40.1268L17.4059 38.7216L19.0971 37.0354L19.8018 35.2086Z" stroke="black"/>
<path d="M10.782 44.764L9.79548 44.2019H9.23174L8.80894 43.6399L7.96334 43.4993H7.3996L6.83586 43.2183H5.99026L5.28559 43.4993L4.86279 43.9209L4.58092 44.6235H4.01718H3.73531V44.0614V43.2183L3.17158 42.9373V42.3752L3.45345 42.2346L4.01718 42.6562L4.58092 42.3752L4.72185 41.6726L5.56746 40.97L6.554 40.4079L7.25867 39.9863L7.3996 39.0027V38.3001L8.38614 37.8785L8.66801 38.3001L8.94987 39.0027V39.8458V40.6889V41.3915L9.79548 42.2346L10.782 42.9373L11.0639 44.0614L10.782 44.764Z" stroke="black"/>
<path d="M0.916634 34.506L0.634766 33.9439L1.1985 33.5224L2.32597 33.9439L2.46691 33.3818L3.17158 33.5224V34.506H3.73531V35.7707H3.17158V36.4733H2.32597V36.0517H1.48037V35.2086L0.916634 34.506Z" stroke="black"/>
</g>
</g>
<g id="Jawa Barat_2">
<path id="Vector 19_2" d="M78.0078 8.0881L76.5985 7.3855V8.50966L76.7394 9.77435L76.4576 9.91487L76.3166 10.477H75.7529V11.1796C75.7529 11.292 75.9408 11.5074 76.0348 11.6011L76.8804 11.7416L77.1622 12.4442L77.585 13.4279H76.8804L76.5985 14.4115H75.3301L74.9073 14.9736V19.1892L73.7798 20.4539L73.4979 20.5944L73.9208 21.4376C73.7798 21.4844 73.4698 21.5781 73.357 21.5781H72.6523V21.8591L72.3705 22.1402L72.5114 22.7023L72.7933 23.2643L72.5114 24.1075L72.6523 24.6695L72.7933 25.3722L72.3705 25.9342L72.0886 26.3558H71.243H70.6793L69.8337 25.7937C69.5988 25.7937 69.0444 25.7656 68.7062 25.6532C68.368 25.5408 68.1894 25.7937 68.1425 25.9342H67.015H65.6056C65.4929 25.9342 64.9949 26.0279 64.76 26.0748C63.7735 26.0748 61.7441 26.0467 61.5186 25.9342C61.2931 25.8218 60.579 25.8874 60.2501 25.9342H59.2636C59.0757 25.9811 58.6717 26.0467 58.5589 25.9342L58.1361 25.5127L57.7133 25.0911L56.7268 25.3722L56.1631 25.7937C55.6933 25.7469 54.7255 25.6532 54.6128 25.6532C54.5 25.6532 54.5658 25.1848 54.6128 24.9506L54.4719 24.3885L53.9081 23.8264L53.3444 24.3885L52.9216 24.9506L52.6397 25.7937L52.9216 26.4963L53.4853 27.1989L53.9081 28.042L53.4853 28.8852L52.9216 29.4473L52.076 29.5878L51.6532 30.5714L51.3713 31.4145L51.6532 32.3982L52.2169 33.3818L52.6397 34.225V38.8621L53.9081 39.8458L54.7537 40.8294L55.3175 41.532L56.0221 42.2346L55.3175 42.9372L54.7537 43.6399L53.9081 43.9209L53.3444 44.764L52.9216 45.3261L52.076 47.1529L51.3713 47.5744L51.0894 47.996L51.2304 48.6986L51.3713 48.9796L51.0894 49.4012L50.9485 49.6822L51.3713 49.8228H51.935L52.4988 49.4012L52.9216 49.8228H53.9081H55.0356L55.7403 49.9633L56.304 50.3848L57.2905 50.8064L57.1496 53.1953L57.2905 54.4599L55.0356 56.1462L54.0491 57.1298L53.7672 57.5514V58.1135V59.2377L53.6262 60.0808H52.7806H51.7941L51.3713 60.3618L50.8076 61.3455V62.0481L50.5257 63.0317L50.3848 63.7343V64.2964C50.5257 64.5774 50.8358 65.1395 50.9485 65.1395C51.0612 65.1395 51.6532 65.7016 51.935 65.9827C52.3578 66.0763 53.2598 66.2637 53.4853 66.2637C53.7108 66.2637 54.5188 66.8258 54.8947 67.1068L57.2905 68.231L59.6864 68.3715L60.9548 68.6525L62.0823 68.9336H66.4512L71.3839 69.0741L72.3705 69.3551C73.0751 69.402 74.5127 69.4957 74.6254 69.4957C74.7382 69.4957 75.7059 69.5894 76.1757 69.6362L77.726 69.7767L81.2493 70.3388L85.0545 71.1819L86.8867 71.463L88.5779 71.744L90.1282 71.8845L92.2422 71.744L93.9334 72.3061L95.2018 72.7276L96.4702 73.4303L98.0205 73.9923C98.3493 74.1329 99.0352 74.4139 99.1479 74.4139C99.2607 74.4139 99.9466 74.6949 100.275 74.8355L101.685 75.8191L103.517 77.5054L103.94 78.3485C104.363 78.5358 105.236 78.9106 105.349 78.9106C105.462 78.9106 106.993 79.0979 107.745 79.1916L108.591 79.4726C108.919 79.66 109.605 80.0628 109.718 80.1752C109.831 80.2877 109.953 80.7842 110 81.0184L110.564 81.5805C110.892 81.6273 111.578 81.721 111.691 81.721C111.804 81.721 111.926 81.4399 111.973 81.2994L112.819 80.8779C113.044 80.7654 113.194 81.2994 113.241 81.5805H115.073C115.355 81.5805 116.765 82.4236 117.188 82.4236C117.526 82.4236 119.208 82.7983 120.006 82.9857L121.275 83.4072C121.697 83.5477 122.599 83.8007 122.825 83.6883C123.05 83.5759 123.389 83.6414 123.53 83.6883L124.939 84.1098C125.221 84.2035 125.869 84.3909 126.207 84.3909H127.053L128.18 84.9529C128.744 84.9529 129.928 84.9811 130.153 85.0935C130.379 85.2059 131.281 85.0466 131.704 84.9529L133.395 85.234C133.724 85.1872 134.41 85.0654 134.522 84.9529C134.635 84.8405 135.227 84.6251 135.509 84.5314L136.495 84.3909C136.589 84.2035 136.806 83.8007 136.918 83.6883C137.031 83.5759 136.683 83.2667 136.495 83.1262V82.4236V81.1589L136.777 80.4563C137.059 80.4094 137.651 80.2877 137.764 80.1752C137.877 80.0628 138.281 79.941 138.469 79.8942C138.797 79.8942 139.54 79.8661 139.878 79.7537C140.216 79.6413 140.301 79.7068 140.301 79.7537C140.395 79.7537 140.667 79.7256 141.005 79.6132C141.344 79.5007 141.428 79.7537 141.428 79.8942H142.978H143.965L144.529 79.4726H145.374L146.361 79.7537L146.925 80.0347H147.77C147.911 79.9879 148.193 79.8661 148.193 79.7537C148.193 79.6132 147.77 78.9106 147.629 78.77C147.488 78.6295 146.361 78.0674 146.361 77.7864V77.0838C146.408 76.8964 146.53 76.4936 146.643 76.3812C146.784 76.2407 146.925 75.257 146.925 74.976V74.1329L146.361 73.0087L145.797 72.025L145.515 71.463V70.9009V70.1983L144.811 69.0741L144.106 67.2473L143.401 66.8258H142.556L139.878 66.5447L139.314 66.1232L139.173 65.4206L139.032 64.4369L138.891 63.5938L139.173 62.8912L139.737 62.3291L139.596 60.9239L139.173 59.9403L138.891 59.2377V58.5351L139.737 58.1135L140.301 57.6919L141.146 57.4109L141.851 57.1298H142.838L143.401 57.6919H144.106C144.219 57.6919 144.811 57.5982 145.092 57.5514L145.515 56.7083C145.75 56.5678 146.248 56.2867 146.361 56.2867C146.474 56.2867 146.878 56.0994 147.066 56.0057L147.77 56.1462L148.052 55.4436V54.1789C148.052 54.0384 148.193 53.6168 148.334 53.3358C148.447 53.111 148.475 52.68 148.475 52.4927L148.334 52.0711L147.488 51.6495V50.6659L147.206 49.5417L146.925 48.6986V48.1365L147.629 47.715V47.1529L147.77 46.5908L148.475 46.4503L149.18 45.7477C149.32 45.6071 149.602 45.298 149.602 45.1856C149.602 45.0732 149.884 44.764 150.025 44.6235C150.072 44.483 150.166 44.1457 150.166 43.9209C150.166 43.6961 149.978 43.5462 149.884 43.4993L149.461 43.6399L148.898 44.2019L148.052 44.483L146.925 44.764L145.797 44.6235L144.811 44.483C144.576 44.3425 144.05 44.0333 143.824 43.9209C143.599 43.8085 143.918 43.6867 144.106 43.6399L143.683 42.9372L143.401 42.6562L142.978 42.9372L142.133 42.7967H141.146L140.442 41.9536C140.207 41.7662 139.709 41.3634 139.596 41.251C139.483 41.1386 139.361 40.4547 139.314 40.1268L139.032 39.4242V38.5811L138.609 37.1759V36.6138L138.328 35.6302V34.6465L138.469 34.0844L138.187 33.1008H137.482V32.6792L138.187 32.3982V31.274L137.905 30.5714H136.777L136.214 29.8688L135.368 29.4473L133.959 28.6041L131.563 25.7937L131.14 24.248L131.563 23.6859L131.14 22.4212H130.153L129.308 21.7186L128.462 21.1565L128.039 21.7186H125.644L124.939 22.4212L125.644 23.1238L124.939 24.248L124.093 24.6695H122.825V25.2316H122.12H120.57L114.792 21.7186H114.228L113.946 21.1565H112.678H111.832V20.5944L110.986 20.3134L110.141 19.4703L109.859 18.9082H109.154L108.591 19.4703L107.181 19.8918L106.477 20.5944H105.208H104.081V21.1565H102.671H101.826V20.5944L101.544 19.8918L99.8526 18.9082L97.7386 18.4866L96.0474 17.784L93.7925 16.5193L93.2287 15.1141L92.2422 13.5684L90.8328 11.3201L89.7054 10.477L89.2826 9.77435L87.3095 9.49331L85.6183 9.77435L84.3499 10.477H82.6587H80.9675L80.2628 9.49331L79.2762 8.50966H78.4306L78.0078 8.0881Z" fill="white" stroke="black"/>
<g id="Vector 15_2">
<path d="M19.8018 35.2086V32.2577L20.0837 31.4145H20.7883V31.8361L21.0702 32.3982L22.4795 32.9603L23.607 32.6792L25.1573 32.3982L26.5666 31.1335L27.1304 30.4309L27.4122 29.0257L27.6941 28.6041L27.835 27.1989L27.6941 26.6368L27.835 25.7937L27.976 24.1075L28.2578 23.2643L28.5397 22.9833L28.2578 22.2807L27.835 21.9997V21.2971V20.4539L28.1169 19.6108L28.2578 18.9082H28.6806V18.0651L28.9625 17.222L29.2444 16.8004L29.5262 16.2383V15.6762L29.949 15.3952L30.2309 15.2547V14.8331V14.1305L30.5128 13.7089L30.7947 13.4279H31.2175L31.6403 13.1469L32.6268 12.1632L33.1905 11.8822L33.7543 11.3201L34.0361 10.758L34.1771 10.1959L34.4589 9.49331L34.8817 9.21227V7.80706L35.0227 7.24498L35.7273 6.40186H37.4186L37.9823 7.10446V7.80706L38.2642 8.65019L37.9823 9.35279V9.77435L38.2642 10.1959L39.5326 11.6011L40.0963 11.8822L40.801 12.1632H42.3512L42.915 11.8822L43.7606 11.7416L44.3243 11.3201L44.6062 10.477L45.029 10.1959V9.91487V9.35279L45.3109 8.93123L45.7337 8.79071L46.2974 8.93123L46.8611 9.35279L47.5658 9.49331L47.9886 9.77435L48.5523 10.1959H49.257L50.1026 10.477V11.3201L50.5254 11.8822L51.2301 12.1632L51.6529 12.5848H52.4985L53.2032 12.8658L53.7669 13.0063V13.4279H54.3306H55.1762L55.3172 13.1469L55.599 13.0063V12.7253V12.3037L56.0218 12.1632L56.1628 11.8822H56.8675L57.1493 12.3037H57.7131V12.4442V12.7253H58.4177L58.8405 12.5848V12.3037H59.5452L59.968 12.1632L60.1089 11.8822H60.5317L60.8136 12.1632H61.3773L61.8001 12.3037L62.082 11.8822H62.6457L62.9276 12.0227L63.0686 13.99L62.082 14.4115V17.6435L62.3639 18.4866L63.4914 18.6272V19.4703L63.6323 20.4539L64.4779 20.5945L64.6188 21.1565L65.0416 22.4212L65.3235 23.1238L65.8872 23.9669L65.3235 24.8101L59.5452 24.9506L58.8405 24.529L58.4177 24.248L57.1493 23.9669L56.3037 23.5454L55.3172 23.4049L54.6125 23.1238H53.485L53.0622 23.4049L52.4985 23.8264L52.2166 24.3885L51.7938 24.6696L51.6529 25.7937L52.0757 26.7774V27.48L52.4985 27.9015V28.6041H52.0757L50.8073 28.8852L50.5254 29.5878L50.2436 30.993L50.5254 31.8361L50.6664 33.1008L50.9482 33.2413V33.9439L51.371 34.0844V34.6465V39.2837L52.0757 40.1268L52.9213 41.3915L54.4716 42.0941L53.626 42.9373L52.0757 44.2019L51.371 45.7477L50.2436 46.8718V48.1365L49.6798 50.6659C49.351 50.7596 48.5805 50.8907 48.1295 50.6659C47.6786 50.4411 46.5323 50.0101 46.0155 49.8228L43.9015 48.1365H42.6331L40.66 47.5744L38.8279 46.3097L37.4186 44.764L35.4455 44.2019L34.1771 43.4993H30.6537V44.2019H28.8216L26.0029 44.764L24.3117 44.2019L21.493 44.764H19.8018L17.4059 45.3261H16.2784L14.5872 45.7477L12.896 45.3261L14.0235 44.2019L14.8691 42.9373V41.3915L16.2784 40.1268L17.4059 38.7216L19.0971 37.0354L19.8018 35.2086Z" fill="white"/>
<path d="M10.782 44.764L9.79548 44.2019H9.23174L8.80894 43.6399L7.96334 43.4993H7.3996L6.83586 43.2183H5.99026L5.28559 43.4993L4.86279 43.9209L4.58092 44.6235H4.01718H3.73531V44.0614V43.2183L3.17158 42.9373V42.3752L3.45345 42.2346L4.01718 42.6562L4.58092 42.3752L4.72185 41.6726L5.56746 40.97L6.554 40.4079L7.25867 39.9863L7.3996 39.0027V38.3001L8.38614 37.8785L8.66801 38.3001L8.94987 39.0027V39.8458V40.6889V41.3915L9.79548 42.2346L10.782 42.9373L11.0639 44.0614L10.782 44.764Z" fill="white"/>
<path d="M0.916634 34.506L0.634766 33.9439L1.1985 33.5224L2.32597 33.9439L2.46691 33.3818L3.17158 33.5224V34.506H3.73531V35.7707H3.17158V36.4733H2.32597V36.0517H1.48037V35.2086L0.916634 34.506Z" fill="white"/>
<path d="M19.8018 35.2086V32.2577L20.0837 31.4145H20.7883V31.8361L21.0702 32.3982L22.4795 32.9603L23.607 32.6792L25.1573 32.3982L26.5666 31.1335L27.1304 30.4309L27.4122 29.0257L27.6941 28.6041L27.835 27.1989L27.6941 26.6368L27.835 25.7937L27.976 24.1075L28.2578 23.2643L28.5397 22.9833L28.2578 22.2807L27.835 21.9997V21.2971V20.4539L28.1169 19.6108L28.2578 18.9082H28.6806V18.0651L28.9625 17.222L29.2444 16.8004L29.5262 16.2383V15.6762L29.949 15.3952L30.2309 15.2547V14.8331V14.1305L30.5128 13.7089L30.7947 13.4279H31.2175L31.6403 13.1469L32.6268 12.1632L33.1905 11.8822L33.7543 11.3201L34.0361 10.758L34.1771 10.1959L34.4589 9.49331L34.8817 9.21227V7.80706L35.0227 7.24498L35.7273 6.40186H37.4186L37.9823 7.10446V7.80706L38.2642 8.65019L37.9823 9.35279V9.77435L38.2642 10.1959L39.5326 11.6011L40.0963 11.8822L40.801 12.1632H42.3512L42.915 11.8822L43.7606 11.7416L44.3243 11.3201L44.6062 10.477L45.029 10.1959V9.91487V9.35279L45.3109 8.93123L45.7337 8.79071L46.2974 8.93123L46.8611 9.35279L47.5658 9.49331L47.9886 9.77435L48.5523 10.1959H49.257L50.1026 10.477V11.3201L50.5254 11.8822L51.2301 12.1632L51.6529 12.5848H52.4985L53.2032 12.8658L53.7669 13.0063V13.4279H54.3306H55.1762L55.3172 13.1469L55.599 13.0063V12.7253V12.3037L56.0218 12.1632L56.1628 11.8822H56.8675L57.1493 12.3037H57.7131V12.4442V12.7253H58.4177L58.8405 12.5848V12.3037H59.5452L59.968 12.1632L60.1089 11.8822H60.5317L60.8136 12.1632H61.3773L61.8001 12.3037L62.082 11.8822H62.6457L62.9276 12.0227L63.0686 13.99L62.082 14.4115V17.6435L62.3639 18.4866L63.4914 18.6272V19.4703L63.6323 20.4539L64.4779 20.5945L64.6188 21.1565L65.0416 22.4212L65.3235 23.1238L65.8872 23.9669L65.3235 24.8101L59.5452 24.9506L58.8405 24.529L58.4177 24.248L57.1493 23.9669L56.3037 23.5454L55.3172 23.4049L54.6125 23.1238H53.485L53.0622 23.4049L52.4985 23.8264L52.2166 24.3885L51.7938 24.6696L51.6529 25.7937L52.0757 26.7774V27.48L52.4985 27.9015V28.6041H52.0757L50.8073 28.8852L50.5254 29.5878L50.2436 30.993L50.5254 31.8361L50.6664 33.1008L50.9482 33.2413V33.9439L51.371 34.0844V34.6465V39.2837L52.0757 40.1268L52.9213 41.3915L54.4716 42.0941L53.626 42.9373L52.0757 44.2019L51.371 45.7477L50.2436 46.8718V48.1365L49.6798 50.6659C49.351 50.7596 48.5805 50.8907 48.1295 50.6659C47.6786 50.4411 46.5323 50.0101 46.0155 49.8228L43.9015 48.1365H42.6331L40.66 47.5744L38.8279 46.3097L37.4186 44.764L35.4455 44.2019L34.1771 43.4993H30.6537V44.2019H28.8216L26.0029 44.764L24.3117 44.2019L21.493 44.764H19.8018L17.4059 45.3261H16.2784L14.5872 45.7477L12.896 45.3261L14.0235 44.2019L14.8691 42.9373V41.3915L16.2784 40.1268L17.4059 38.7216L19.0971 37.0354L19.8018 35.2086Z" stroke="black"/>
<path d="M10.782 44.764L9.79548 44.2019H9.23174L8.80894 43.6399L7.96334 43.4993H7.3996L6.83586 43.2183H5.99026L5.28559 43.4993L4.86279 43.9209L4.58092 44.6235H4.01718H3.73531V44.0614V43.2183L3.17158 42.9373V42.3752L3.45345 42.2346L4.01718 42.6562L4.58092 42.3752L4.72185 41.6726L5.56746 40.97L6.554 40.4079L7.25867 39.9863L7.3996 39.0027V38.3001L8.38614 37.8785L8.66801 38.3001L8.94987 39.0027V39.8458V40.6889V41.3915L9.79548 42.2346L10.782 42.9373L11.0639 44.0614L10.782 44.764Z" stroke="black"/>
<path d="M0.916634 34.506L0.634766 33.9439L1.1985 33.5224L2.32597 33.9439L2.46691 33.3818L3.17158 33.5224V34.506H3.73531V35.7707H3.17158V36.4733H2.32597V36.0517H1.48037V35.2086L0.916634 34.506Z" stroke="black"/>
</g>
</g>
<g id="Vector 23">
<path d="M246.283 65.2801L245.719 64.1559L246.283 63.4533L246.706 63.0317H247.41H247.974H248.538V63.4533L248.256 63.8749V64.999L249.524 65.7016H250.511L250.934 65.4206L252.061 66.2637L253.189 66.9663H254.457L256.007 67.3879H257.135L258.544 67.8094L259.108 67.3879V66.2637V65.4206L258.544 64.718V63.8749L259.108 63.4533H259.672H260.517C260.423 63.1722 260.292 62.5821 260.517 62.4696C260.743 62.3572 261.457 61.9544 261.786 61.767L263.054 60.9239H264.041L263.759 59.9403L264.745 58.5351C264.839 58.3945 265.055 58.0292 265.168 57.6919L265.45 56.8488V55.8652L266.014 54.6005V54.0384C265.92 53.851 265.676 53.392 265.45 53.0548C265.225 52.7175 265.356 52.2585 265.45 52.0711V51.228V50.6659L264.745 49.8228H264.041L263.759 48.9797L264.745 48.4176L265.45 47.4339V46.4503V45.1856H266.014H266.859L267.282 44.483V44.0614L267.564 43.3588L268.128 42.9373L269.819 42.5157L270.946 42.9373L272.779 43.7804H274.329H275.597L276.866 43.3588L277.711 42.9373L278.557 42.2347L279.543 42.9373L282.08 46.8718L283.067 47.996H285.04H287.999L288.986 47.4339H290.536L292.932 46.8718H294.764H297.583L299.133 47.4339L299.838 48.4176L301.67 48.6986L302.516 47.996L303.361 47.4339V46.4503L304.066 46.8718L304.771 48.6986V50.6659H305.193L305.475 52.0711L306.603 52.4927L307.307 53.0548L306.603 53.7574L306.039 54.6005V56.2867V57.6919L307.307 58.5351V59.2377V60.6429L308.012 61.767H309.281H310.69L311.113 61.0644V60.6429L312.381 61.0644L313.649 62.6102L313.931 63.7343H312.804L313.649 64.4369L314.354 65.1395L314.636 66.1232L313.649 66.5447V68.231H314.354V69.0741V71.0414H313.227V71.6035L313.649 72.4466L314.636 73.2897L315.341 74.1329L314.636 74.6949V75.5381L315.341 76.8028L315.904 77.2243L317.173 77.9269L318.441 78.3485L319.851 78.6295C320.179 78.8169 320.95 79.1916 321.401 79.1916H321.824H323.374C323.712 79.1916 323.891 79.8474 323.938 80.1753C324.454 80.6905 325.488 81.7772 325.488 82.002C325.488 82.2269 326.334 82.0957 326.756 82.002L328.729 83.4072H329.716L330.139 82.9857H331.125L332.112 83.6883L332.957 84.8124H333.521V84.3909H335.353L337.467 83.4072L339.581 82.5641L341.132 81.721L342.823 81.4399L345.36 82.002H346.628L348.742 82.5641H349.588L350.433 82.002H351.279L352.688 82.5641H354.098L354.802 82.002L355.789 81.1589L356.352 80.5968H357.762L358.889 81.4399H360.017L361.003 80.5968L363.399 78.3485L363.822 77.6459H364.668L364.949 78.3485L365.795 80.1753L367.627 82.002H370.869H372.842L375.379 83.4072H376.788L378.056 83.9693L380.452 84.8124L381.298 85.9366L380.452 88.747L379.748 89.7307V90.7143V95.211L379.325 97.0377L378.62 98.443V99.8482L378.056 101.394V103.502L377.07 106.031L375.942 109.685L376.365 111.933L377.07 113.198L376.365 114.322V115.024L377.493 115.586H378.62L378.902 116.851L379.748 118.678L381.157 119.943H382.143L382.425 119.521H382.707L383.13 119.943L383.835 120.364L385.103 120.645L386.23 121.348L386.935 122.472V123.596L386.23 124.299L385.103 124.72H383.835L383.13 124.299L382.143 123.877L380.593 123.596H379.325L378.62 123.175L378.902 121.91L378.62 120.645L377.493 119.24L375.942 118.256L374.392 117.835H373.828L371.759 117.413L371.573 119.24L370.164 118.678H368.473C368.144 118.537 367.43 118.172 367.204 117.835C366.979 117.498 366.641 117.413 366.5 117.413V118.256L365.372 118.678H364.386V117.835L364.104 117.413L362.976 116.851L361.99 117.413V116.851V116.149H361.144L360.44 115.868L359.312 116.149C359.077 116.055 358.551 115.868 358.326 115.868H357.762C357.339 115.633 356.437 115.137 356.212 115.024C355.986 114.912 355.836 114.322 355.789 114.041L355.084 113.198L354.802 112.636L353.957 112.917L353.252 113.198L352.688 114.041C352.5 114.134 352.04 114.322 351.702 114.322C351.363 114.322 351.561 113.572 351.702 113.198L351.138 112.636H350.292L350.01 113.198C349.776 113.244 349.249 113.31 349.024 113.198C348.798 113.085 348.93 112.776 349.024 112.636L348.601 111.933L347.192 110.949L346.205 110.387H345.219H343.95H343.246L342.259 109.685L341.695 109.263V108.42L340.004 108.139H339.018L338.595 108.841H338.031L337.467 108.139L337.185 107.717C336.904 107.343 336.283 106.481 336.058 106.031C335.832 105.581 333.333 104.72 332.112 104.345H328.307L327.461 104.626C327.179 104.72 326.559 104.907 326.334 104.907C326.052 104.907 325.77 104.626 325.488 104.345C325.262 104.12 325.018 104.251 324.924 104.345L323.515 104.907L322.106 105.61L320.414 106.031L319.287 106.874V108.139L318.864 108.841L318.441 108.139L317.455 108.42V108.841L316.045 109.263V108.42L315.341 108.139L314.777 107.717C314.636 107.858 314.27 108.139 313.931 108.139C313.593 108.139 313.79 108.607 313.931 108.841H313.227H312.804H311.958L311.676 109.685H310.69L309.562 110.387H308.858L308.435 110.949H307.589L306.603 110.387C306.18 110.2 305.25 109.797 304.912 109.685C304.573 109.572 303.831 109.357 303.502 109.263H302.093L299.415 108.841H298.429L297.301 108.139C296.737 107.717 295.554 106.874 295.328 106.874C295.103 106.874 294.107 106.687 293.637 106.593H292.65L291.946 106.874H290.818L289.691 106.031H288.563L287.013 105.61H284.617H282.644L281.094 105.188L280.107 104.626L278.98 104.345H278.275L277.57 105.188L276.161 104.907L275.456 104.064C275.174 103.83 274.554 103.361 274.329 103.361H273.765H273.06H272.215H271.51H271.228L270.806 104.345V105.188H270.242L269.819 104.626L269.114 104.907L268.41 105.188V106.031L267.564 106.593V107.436C267.329 107.483 266.775 107.549 266.437 107.436C266.014 107.296 266.014 106.874 265.873 106.593C265.76 106.368 265.356 106.125 265.168 106.031L263.618 105.61L262.349 104.907L261.786 105.61L260.235 106.031L259.531 105.61L259.249 104.907L258.403 104.064L257.276 103.361H255.867H255.162H254.598H253.189H251.638L251.216 102.799H250.229L249.384 103.08L247.129 104.064H246.001L245.015 103.08C244.874 102.986 244.535 102.743 244.31 102.518C244.084 102.293 243.934 101.862 243.887 101.675L243.042 101.394L242.619 101.675L242.337 102.237L241.632 102.799H240.364H239.518L238.813 102.237H237.827L237.122 101.675L236.418 101.394L236.136 100.691L236.418 99.5671V98.5835L237.122 97.7403L237.827 96.7567H238.25H238.813L239.518 97.1783H240.364L242.337 96.7567L242.619 96.0541H243.042L243.887 96.7567C244.169 96.6162 244.789 96.2789 245.015 96.0541C245.24 95.8293 245.109 95.492 245.015 95.3515L245.719 94.7894V93.1032V91.698L246.001 91.2764V90.7143L246.706 90.2927L247.129 90.7143L248.115 91.2764L248.961 91.698H250.229L250.793 90.7143L251.638 89.7307L252.202 88.747L252.766 88.0444L253.189 87.2013V86.3582L252.766 85.515L252.202 84.6719V83.6883V83.1262V82.002H250.511L248.961 81.5805L248.115 80.7373L247.692 79.0511L248.115 78.208L248.538 77.3648L247.692 76.2407L246.706 75.6786L246.283 73.8518V72.0251L245.296 71.3224V69.7767V68.512L245.719 68.231V67.1068V65.8421L246.283 65.2801Z" fill="white"/>
<path d="M305.193 3.8725L305.475 2.18625L306.603 0.5H308.012H309.844V2.32677L309.281 3.8725H307.307L306.039 4.43458L305.193 3.8725Z" fill="white"/>
<path d="M334.085 113.619L333.239 113.198L333.803 112.355H334.649H335.494L336.622 112.636H337.749V113.198L336.622 113.619H334.085Z" fill="white"/>
<path d="M310.69 54.1789L309.281 54.6005V55.022L309.985 55.5841L310.408 56.2867L309.844 56.8488V57.6919L310.408 58.254H311.676L313.368 58.1135H314.918H317.173L318.582 59.0971L320.273 59.5187H321.401L322.81 60.0808H324.22L325.347 60.7834L327.32 60.5024L328.307 60.3618L329.716 60.5024H331.266H332.112L335.494 60.3618L336.904 60.5024H338.595H341.413L342.4 60.7834L343.527 61.205L344.091 60.7834L344.232 60.0808L344.655 59.3782V58.3945L345.36 57.6919L346.346 56.7083C346.581 56.6615 347.079 56.5397 347.192 56.4273C347.305 56.3148 348.084 56.2867 348.46 56.2867L349.306 55.8652H350.574C350.997 55.9589 351.871 56.1743 351.984 56.2867C352.096 56.3992 352.594 56.4273 352.829 56.4273H354.098L354.943 56.8488L356.212 56.9893H357.339L357.903 56.8488L357.621 56.4273L356.916 56.2867L357.198 55.5841L357.48 54.46L358.607 53.1953L359.171 52.6332L359.312 51.9306H360.158V52.4927L361.144 52.3521H361.849L362.131 51.6495H363.117L364.245 51.3685H365.795L366.923 50.2443L365.795 49.6823L363.399 47.996C362.601 47.8086 360.919 47.3215 360.58 46.8718C360.242 46.4222 359.312 46.6845 358.889 46.8718H357.198L355.789 47.996H353.534H346.628H335.917H324.642H315.904L315.341 49.2607L313.931 51.3685L312.381 52.4927L310.69 54.1789Z" fill="white"/>
<path d="M362.131 55.5841V55.3031H364.668V56.0057H363.963V55.5841H362.131Z" fill="white"/>
<path d="M374.533 56.4273L374.815 55.3031L375.66 54.741L376.647 55.3031L377.634 56.0057L377.915 57.2704L378.338 58.1135L378.62 58.9566H377.352C376.694 58.6287 375.35 57.9168 375.238 57.6919C375.125 57.4671 374.721 56.7551 374.533 56.4273Z" fill="white"/>
<path d="M246.283 65.2801L245.719 64.1559L246.283 63.4533L246.706 63.0317H247.41H247.974H248.538V63.4533L248.256 63.8749V64.999L249.524 65.7016H250.511L250.934 65.4206L252.061 66.2637L253.189 66.9663H254.457L256.007 67.3879H257.135L258.544 67.8094L259.108 67.3879V66.2637V65.4206L258.544 64.718V63.8749L259.108 63.4533H259.672H260.517C260.423 63.1722 260.292 62.5821 260.517 62.4696C260.743 62.3572 261.457 61.9544 261.786 61.767L263.054 60.9239H264.041L263.759 59.9403L264.745 58.5351C264.839 58.3945 265.055 58.0292 265.168 57.6919L265.45 56.8488V55.8652L266.014 54.6005V54.0384C265.92 53.851 265.676 53.392 265.45 53.0548C265.225 52.7175 265.356 52.2585 265.45 52.0711V51.228V50.6659L264.745 49.8228H264.041L263.759 48.9797L264.745 48.4176L265.45 47.4339V46.4503V45.1856H266.014H266.859L267.282 44.483V44.0614L267.564 43.3588L268.128 42.9373L269.819 42.5157L270.946 42.9373L272.779 43.7804H274.329H275.597L276.866 43.3588L277.711 42.9373L278.557 42.2347L279.543 42.9373L282.08 46.8718L283.067 47.996H285.04H287.999L288.986 47.4339H290.536L292.932 46.8718H294.764H297.583L299.133 47.4339L299.838 48.4176L301.67 48.6986L302.516 47.996L303.361 47.4339V46.4503L304.066 46.8718L304.771 48.6986V50.6659H305.193L305.475 52.0711L306.603 52.4927L307.307 53.0548L306.603 53.7574L306.039 54.6005V56.2867V57.6919L307.307 58.5351V59.2377V60.6429L308.012 61.767H309.281H310.69L311.113 61.0644V60.6429L312.381 61.0644L313.649 62.6102L313.931 63.7343H312.804L313.649 64.4369L314.354 65.1395L314.636 66.1232L313.649 66.5447V68.231H314.354V69.0741V71.0414H313.227V71.6035L313.649 72.4466L314.636 73.2897L315.341 74.1329L314.636 74.6949V75.5381L315.341 76.8028L315.904 77.2243L317.173 77.9269L318.441 78.3485L319.851 78.6295C320.179 78.8169 320.95 79.1916 321.401 79.1916H321.824H323.374C323.712 79.1916 323.891 79.8474 323.938 80.1753C324.454 80.6905 325.488 81.7772 325.488 82.002C325.488 82.2269 326.334 82.0957 326.756 82.002L328.729 83.4072H329.716L330.139 82.9857H331.125L332.112 83.6883L332.957 84.8124H333.521V84.3909H335.353L337.467 83.4072L339.581 82.5641L341.132 81.721L342.823 81.4399L345.36 82.002H346.628L348.742 82.5641H349.588L350.433 82.002H351.279L352.688 82.5641H354.098L354.802 82.002L355.789 81.1589L356.352 80.5968H357.762L358.889 81.4399H360.017L361.003 80.5968L363.399 78.3485L363.822 77.6459H364.668L364.949 78.3485L365.795 80.1753L367.627 82.002H370.869H372.842L375.379 83.4072H376.788L378.056 83.9693L380.452 84.8124L381.298 85.9366L380.452 88.747L379.748 89.7307V90.7143V95.211L379.325 97.0377L378.62 98.443V99.8482L378.056 101.394V103.502L377.07 106.031L375.942 109.685L376.365 111.933L377.07 113.198L376.365 114.322V115.024L377.493 115.586H378.62L378.902 116.851L379.748 118.678L381.157 119.943H382.143L382.425 119.521H382.707L383.13 119.943L383.835 120.364L385.103 120.645L386.23 121.348L386.935 122.472V123.596L386.23 124.299L385.103 124.72H383.835L383.13 124.299L382.143 123.877L380.593 123.596H379.325L378.62 123.175L378.902 121.91L378.62 120.645L377.493 119.24L375.942 118.256L374.392 117.835H373.828L371.759 117.413L371.573 119.24L370.164 118.678H368.473C368.144 118.537 367.43 118.172 367.204 117.835C366.979 117.498 366.641 117.413 366.5 117.413V118.256L365.372 118.678H364.386V117.835L364.104 117.413L362.976 116.851L361.99 117.413V116.851V116.149H361.144L360.44 115.868L359.312 116.149C359.077 116.055 358.551 115.868 358.326 115.868H357.762C357.339 115.633 356.437 115.137 356.212 115.024C355.986 114.912 355.836 114.322 355.789 114.041L355.084 113.198L354.802 112.636L353.957 112.917L353.252 113.198L352.688 114.041C352.5 114.134 352.04 114.322 351.702 114.322C351.363 114.322 351.561 113.572 351.702 113.198L351.138 112.636H350.292L350.01 113.198C349.776 113.244 349.249 113.31 349.024 113.198C348.798 113.085 348.93 112.776 349.024 112.636L348.601 111.933L347.192 110.949L346.205 110.387H345.219H343.95H343.246L342.259 109.685L341.695 109.263V108.42L340.004 108.139H339.018L338.595 108.841H338.031L337.467 108.139L337.185 107.717C336.904 107.343 336.283 106.481 336.058 106.031C335.832 105.581 333.333 104.72 332.112 104.345H328.307L327.461 104.626C327.179 104.72 326.559 104.907 326.334 104.907C326.052 104.907 325.77 104.626 325.488 104.345C325.262 104.12 325.018 104.251 324.924 104.345L323.515 104.907L322.106 105.61L320.414 106.031L319.287 106.874V108.139L318.864 108.841L318.441 108.139L317.455 108.42V108.841L316.045 109.263V108.42L315.341 108.139L314.777 107.717C314.636 107.858 314.27 108.139 313.931 108.139C313.593 108.139 313.79 108.607 313.931 108.841H313.227H312.804H311.958L311.676 109.685H310.69L309.562 110.387H308.858L308.435 110.949H307.589L306.603 110.387C306.18 110.2 305.25 109.797 304.912 109.685C304.573 109.572 303.831 109.357 303.502 109.263H302.093L299.415 108.841H298.429L297.301 108.139C296.737 107.717 295.554 106.874 295.328 106.874C295.103 106.874 294.107 106.687 293.637 106.593H292.65L291.946 106.874H290.818L289.691 106.031H288.563L287.013 105.61H284.617H282.644L281.094 105.188L280.107 104.626L278.98 104.345H278.275L277.57 105.188L276.161 104.907L275.456 104.064C275.174 103.83 274.554 103.361 274.329 103.361H273.765H273.06H272.215H271.51H271.228L270.806 104.345V105.188H270.242L269.819 104.626L269.114 104.907L268.41 105.188V106.031L267.564 106.593V107.436C267.329 107.483 266.775 107.549 266.437 107.436C266.014 107.296 266.014 106.874 265.873 106.593C265.76 106.368 265.356 106.125 265.168 106.031L263.618 105.61L262.349 104.907L261.786 105.61L260.235 106.031L259.531 105.61L259.249 104.907L258.403 104.064L257.276 103.361H255.867H255.162H254.598H253.189H251.638L251.216 102.799H250.229L249.384 103.08L247.129 104.064H246.001L245.015 103.08C244.874 102.986 244.535 102.743 244.31 102.518C244.084 102.293 243.934 101.862 243.887 101.675L243.042 101.394L242.619 101.675L242.337 102.237L241.632 102.799H240.364H239.518L238.813 102.237H237.827L237.122 101.675L236.418 101.394L236.136 100.691L236.418 99.5671V98.5835L237.122 97.7403L237.827 96.7567H238.25H238.813L239.518 97.1783H240.364L242.337 96.7567L242.619 96.0541H243.042L243.887 96.7567C244.169 96.6162 244.789 96.2789 245.015 96.0541C245.24 95.8293 245.109 95.492 245.015 95.3515L245.719 94.7894V93.1032V91.698L246.001 91.2764V90.7143L246.706 90.2927L247.129 90.7143L248.115 91.2764L248.961 91.698H250.229L250.793 90.7143L251.638 89.7307L252.202 88.747L252.766 88.0444L253.189 87.2013V86.3582L252.766 85.515L252.202 84.6719V83.6883V83.1262V82.002H250.511L248.961 81.5805L248.115 80.7373L247.692 79.0511L248.115 78.208L248.538 77.3648L247.692 76.2407L246.706 75.6786L246.283 73.8518V72.0251L245.296 71.3224V69.7767V68.512L245.719 68.231V67.1068V65.8421L246.283 65.2801Z" stroke="black"/>
<path d="M305.193 3.8725L305.475 2.18625L306.603 0.5H308.012H309.844V2.32677L309.281 3.8725H307.307L306.039 4.43458L305.193 3.8725Z" stroke="black"/>
<path d="M334.085 113.619L333.239 113.198L333.803 112.355H334.649H335.494L336.622 112.636H337.749V113.198L336.622 113.619H334.085Z" stroke="black"/>
<path d="M310.69 54.1789L309.281 54.6005V55.022L309.985 55.5841L310.408 56.2867L309.844 56.8488V57.6919L310.408 58.254H311.676L313.368 58.1135H314.918H317.173L318.582 59.0971L320.273 59.5187H321.401L322.81 60.0808H324.22L325.347 60.7834L327.32 60.5024L328.307 60.3618L329.716 60.5024H331.266H332.112L335.494 60.3618L336.904 60.5024H338.595H341.413L342.4 60.7834L343.527 61.205L344.091 60.7834L344.232 60.0808L344.655 59.3782V58.3945L345.36 57.6919L346.346 56.7083C346.581 56.6615 347.079 56.5397 347.192 56.4273C347.305 56.3148 348.084 56.2867 348.46 56.2867L349.306 55.8652H350.574C350.997 55.9589 351.871 56.1743 351.984 56.2867C352.096 56.3992 352.594 56.4273 352.829 56.4273H354.098L354.943 56.8488L356.212 56.9893H357.339L357.903 56.8488L357.621 56.4273L356.916 56.2867L357.198 55.5841L357.48 54.46L358.607 53.1953L359.171 52.6332L359.312 51.9306H360.158V52.4927L361.144 52.3521H361.849L362.131 51.6495H363.117L364.245 51.3685H365.795L366.923 50.2443L365.795 49.6823L363.399 47.996C362.601 47.8086 360.919 47.3215 360.58 46.8718C360.242 46.4222 359.312 46.6845 358.889 46.8718H357.198L355.789 47.996H353.534H346.628H335.917H324.642H315.904L315.341 49.2607L313.931 51.3685L312.381 52.4927L310.69 54.1789Z" stroke="black"/>
<path d="M362.131 55.5841V55.3031H364.668V56.0057H363.963V55.5841H362.131Z" stroke="black"/>
<path d="M374.533 56.4273L374.815 55.3031L375.66 54.741L376.647 55.3031L377.634 56.0057L377.915 57.2704L378.338 58.1135L378.62 58.9566H377.352C376.694 58.6287 375.35 57.9168 375.238 57.6919C375.125 57.4671 374.721 56.7551 374.533 56.4273Z" stroke="black"/>
</g>
</g>
</svg>
