<svg width="452" height="363" viewBox="0 0 452 363" fill="none" xmlns="http://www.w3.org/2000/svg">
<g id="Kalimantan">
<g id="Vector 56">
<path d="M6.95011 26.5703L5.53758 29.0068L6.24385 29.9814L9.06889 31.6869L13.3065 30.7123L12.1294 28.2758L9.06889 26.5703H6.95011Z" fill="white"/>
<path d="M4.83132 24.1338L15.1898 26.5703L17.3086 24.1338L15.1898 20.4791L17.3086 17.5553L10.7168 9.27133L9.06889 7.80945L1.77085 15.3625L0.59375 18.5299L3.88964 21.2101L4.83132 24.1338Z" fill="white"/>
<path d="M6.95011 26.5703L5.53758 29.0068L6.24385 29.9814L9.06889 31.6869L13.3065 30.7123L12.1294 28.2758L9.06889 26.5703H6.95011Z" stroke="black"/>
<path d="M4.83132 24.1338L15.1898 26.5703L17.3086 24.1338L15.1898 20.4791L17.3086 17.5553L10.7168 9.27133L9.06889 7.80945L1.77085 15.3625L0.59375 18.5299L3.88964 21.2101L4.83132 24.1338Z" stroke="black"/>
</g>
<g id="Vector 54">
<path d="M342.425 336.977L344.308 339.413H344.779V335.759L345.956 334.784V331.129H344.308L343.131 332.835V335.271L342.425 336.977Z" fill="white"/>
<path d="M329.947 343.312L332.537 347.21V350.621L331.124 355.738L332.537 356.712H335.127L341.012 350.621L339.835 349.159V345.992H341.012V343.312V341.119L339.835 336.977L337.952 334.784H341.012V331.86L339.835 330.642L339.129 329.911V326.744L339.835 324.307V322.845L335.833 325.769L332.772 329.668L331.124 332.835V337.464L329.947 338.439V343.312Z" fill="white"/>
<path d="M342.425 336.977L344.308 339.413H344.779V335.759L345.956 334.784V331.129H344.308L343.131 332.835V335.271L342.425 336.977Z" stroke="black"/>
<path d="M329.947 343.312L332.537 347.21V350.621L331.124 355.738L332.537 356.712H335.127L341.012 350.621L339.835 349.159V345.992H341.012V343.312V341.119L339.835 336.977L337.952 334.784H341.012V331.86L339.835 330.642L339.129 329.911V326.744L339.835 324.307V322.845L335.833 325.769L332.772 329.668L331.124 332.835V337.464L329.947 338.439V343.312Z" stroke="black"/>
</g>
<path id="Vector 48" d="M94.5268 311.881L91.9372 307.983L94.056 306.034V302.623L92.4081 300.674L91.9372 298.237L90.5247 297.019V296.044L91.2309 295.313V289.709L89.583 287.76L88.8767 283.618L87.4642 281.182V278.745L88.1705 276.552V271.923L86.9934 268.999L82.0495 265.832L80.1662 263.396V261.69L83.9329 257.792L84.1683 256.573L85.3454 253.65V249.264L86.0517 247.315V243.66L85.3454 241.955L82.0495 239.518L80.1662 237.569V235.62L81.1079 234.158V233.183H79.2245L75.9286 232.209L74.0452 228.798L72.1619 227.336H70.9848H68.866L67.218 225.874L64.8638 223.194L62.745 222.706H60.3908L58.0366 221.975V222.706L59.4492 223.925V224.899H57.0949L54.2699 223.925L52.622 221.975L52.1511 221.001V214.91H54.2699L56.6241 216.128H59.4492L61.0971 217.346H64.1576L67.6889 219.295L68.866 218.321L69.3368 213.935L66.9826 214.179L62.745 211.986H59.4492L58.0366 210.524H52.622L50.7386 209.306H47.9135L46.9719 208.331V202.484V199.316L45.7948 197.123L46.501 195.174L47.9135 195.905H51.4449L50.7386 193.956L50.2677 188.596L49.0906 187.378V184.941L52.622 185.428V184.21L49.0906 182.017L47.9135 180.068V177.875L45.0885 174.464L42.2634 173.002L40.3801 172.515L39.6738 171.053V166.668L38.7321 165.449V163.256V156.678L37.7905 155.46V153.267L36.3779 151.318V150.343L40.3801 146.932L41.5572 145.47V140.841L39.6738 139.379V137.673V136.699L41.5572 136.212L42.2634 132.557L44.6177 128.171V122.08L46.0302 119.4L51.2094 116.72L53.3282 114.283L54.2699 111.116L56.1533 107.218V103.806L59.92 103.319L62.5096 101.857H65.5701V104.294H64.393V107.218L66.9826 109.167L69.8077 110.385V111.116L69.1014 111.847V116.232L70.2785 118.182L76.3994 124.029L77.5765 125.735H81.3433V128.171L82.5204 130.364L85.5809 132.557L87.6996 135.237H90.2893L91.4664 136.699L94.7623 141.815V143.277H99.4707L102.767 148.638H108.887L112.654 147.419L127.486 142.303H139.963H146.555L150.086 142.79H153.147H155.736L156.678 143.521H159.503L160.209 141.572L163.27 137.673H170.568L172.451 130.608L174.805 126.953L173.157 125.735V124.273H175.276L178.337 122.324L181.632 121.349L184.928 119.156H191.991L193.874 119.887H195.993L197.17 120.375L199.054 121.349L200.231 120.375L201.408 119.156H207.764L208.47 120.375V122.324L205.41 124.273V125.735H208.47L209.648 124.76L210.354 124.273L211.06 125.735L212.237 127.44H214.121L215.298 126.953H218.123L222.596 130.608L223.537 131.339H224.479L226.127 130.12H229.423L231.542 134.019H233.19L235.073 132.313L239.075 130.608L240.252 127.44L245.196 124.273L249.198 123.542H253.436L254.142 125.735L252.965 126.953L252.494 133.531L251.317 136.699H245.902L244.019 139.866L242.371 141.328V142.546L242.842 144.008L242.371 144.983L241.665 146.445V148.638L242.842 150.343V151.561L241.665 152.292L242.371 153.267V154.729L239.546 157.409L236.956 162.038L232.954 165.206L232.248 167.155L229.894 167.886L225.656 173.002L224.008 173.733H220.948L219.771 173.002L217.416 174.952L216.946 175.682V176.657L222.125 180.312L222.831 184.454V185.672L222.125 188.352L220.241 191.52L217.887 195.662L215.062 198.829V201.509L215.533 203.458V205.407H214.591L212.708 204.676H211.531L210.354 205.407L205.41 206.138L199.995 209.062H196.699L195.051 209.793L192.933 213.204H189.401L188.931 214.179H184.458H181.868L180.691 214.91H177.63L175.982 213.204L174.805 211.499L173.628 211.011H172.451L171.509 213.204L169.626 214.179H166.801L166.095 215.397H164.682L164.211 219.783H163.27L161.622 217.833L160.915 218.808H159.974V221.975L159.032 223.437L154.559 224.168L152.911 225.63L150.792 226.848H149.144L148.674 230.259H147.261L146.319 231.965V236.594L144.201 237.082L142.788 238.056H140.669L137.609 239.762L134.078 244.147L131.488 246.34L128.898 248.289L128.192 250.969H125.838H122.542L120.423 252.431L117.363 254.624V256.573L119.481 258.523L121.365 259.497L122.542 258.523L123.719 259.497L124.19 260.472L123.248 261.934L122.542 263.396V269.487L124.19 270.218H126.779V272.167L125.838 273.141V274.603L126.544 274.847V279.233L125.132 280.694V281.669L126.073 283.375L127.486 286.542L128.192 292.146L128.663 295.07V299.699L129.84 300.43V302.379L126.779 303.841H123.719L122.777 306.277L121.6 306.765H119.717L119.011 307.739L116.186 308.958H114.302L112.89 311.394L111.948 313.587L110.535 314.074H109.829V308.958L108.887 308.47L106.533 306.277H104.415L100.412 308.47L97.3519 310.907L96.4102 311.638L94.5268 311.881Z" fill="white" stroke="black"/>
<path id="Vector 49" d="M61.8025 228.31L60.8608 229.529V232.696L60.1546 235.62V237.325L59.2129 238.543V240.005L60.6254 240.493H63.9213L66.9818 238.543L69.8068 237.325L73.1027 234.401L72.8673 229.041H70.5131H69.5714H68.6297L67.688 228.067H65.8047L64.863 228.554H63.9213L63.215 228.067H62.0379L61.8025 228.31Z" fill="white" stroke="black"/>
<path id="Vector 50" d="M115.009 311.881H118.069L119.717 313.83L121.13 314.805L122.072 315.78H124.661L127.251 314.805L132.901 312.125L137.845 309.445L140.434 308.958L140.905 307.983H142.553V309.445L145.614 312.369L147.262 313.343H148.203L149.851 311.394L151.499 310.907V309.445V307.983L152.441 306.765H153.853L155.266 308.958L156.443 311.394L157.856 313.343V317.973L157.385 320.409V322.358V324.064L158.326 325.038V328.693V330.886L157.385 333.079L156.443 334.541V336.002L157.385 336.49H161.622L166.331 331.617L170.097 329.18L173.393 326.987L175.041 326.257H179.043L181.633 328.206L183.987 329.18L185.4 331.373L187.283 332.104H188.225L190.108 330.886L193.64 328.206L198.112 326.257L201.173 324.551L204.469 322.358L205.411 320.409V319.434L203.763 317.973L204.469 316.754L207.529 312.612H208.706L211.531 316.023H212.709L214.827 318.46L217.652 321.627L219.065 323.82L219.771 324.551H221.655L223.303 322.845L226.128 320.165L227.775 319.434H229.894L231.542 321.871V327.475V329.18L230.365 330.399V332.104L231.542 332.835H235.309L235.544 332.591H239.782L241.901 330.399L244.726 328.693L246.374 327.962H250.14L251.788 328.937L253.436 329.911H255.791L256.261 329.18H256.968L258.851 331.373L260.734 332.591V331.129L261.441 329.18L260.97 327.475L261.911 326.5L262.853 323.82L264.737 322.358V320.165L266.855 317.729L268.268 315.78V315.049L267.326 313.83V312.612L268.268 311.881V309.932L269.21 308.714L270.387 307.496L271.328 306.277V305.059L273.447 304.085L274.389 303.354V301.648L277.214 301.161L278.391 299.699L278.862 299.212L279.333 296.044L280.274 294.339L283.099 291.659L285.218 289.466L287.572 287.273L290.397 284.106L292.752 283.131L295.812 280.938L297.46 279.233V278.258H299.814L300.285 276.065L300.756 273.872L302.875 273.385V271.923V269.974L304.052 269.243V268.025L302.875 266.319L301.462 264.857L300.756 264.126V258.035L301.462 257.548L301.933 254.868V252.919L302.875 252.188V249.751L304.052 249.264V247.071L305.464 245.853L308.289 244.878L311.821 243.66L313.939 242.685L317.235 241.711L318.412 240.249L319.354 237.813L320.531 236.107L321.708 235.132V234.158H318.648L317.706 232.209L315.117 230.747L314.175 228.067L311.35 225.63L309.466 223.437L307.112 221.975L303.816 220.757L303.11 218.564L302.168 215.397L301.698 211.011L300.285 207.844L298.402 205.651L297.931 202.727L296.989 198.585L297.225 197.367L297.931 194.931L298.402 192.007L299.814 190.789L300.285 188.596H298.637L296.047 189.814L294.164 190.789L291.81 192.981L290.162 193.956H285.218L284.276 192.007V189.814L283.335 186.403L282.393 184.454L279.333 182.505V180.068L280.039 176.413L282.158 174.951L283.806 172.271L285.689 171.54H291.339L292.045 170.322L293.222 169.104V168.129L290.868 165.449L288.279 161.064L287.337 156.678V155.46L285.218 153.51H284.276L283.099 154.485V155.46V155.947H281.687L277.92 155.46L274.153 156.678L271.799 158.871L269.916 160.089L268.503 161.551L265.914 162.282L264.737 164.475L262.382 164.718L261.676 163.987H254.849L254.378 163.013L253.201 161.551V158.871L252.024 156.922H250.376L248.493 158.14L243.313 158.871H240.959L239.311 159.845L237.663 162.282L235.309 163.987L234.132 165.693L233.19 167.642L231.071 168.617L228.482 170.809L225.892 173.977L223.773 175.195H222.832L221.655 174.708H219.536L218.83 175.195V176.657L219.536 177.632L221.655 179.093L222.832 179.824L223.773 180.555V184.454V186.647L222.832 188.596L221.184 191.763L219.536 194.687L216.475 198.342L216.004 199.56V200.534L216.946 201.996L217.652 202.727V204.189L216.004 206.138L214.592 207.357L213.415 206.869H211.531L208.236 207.357H205.646L202.115 208.818L200.467 210.037L198.348 211.011H195.994L194.11 212.96L193.64 214.179H190.814L189.637 215.641L186.106 216.128L184.694 217.346H183.752L182.81 216.128H181.162L178.102 216.859H177.395L175.512 214.91V214.179L174.335 212.96H173.393L172.452 213.204V214.666L171.981 216.859H169.627V216.128H166.095L165.389 218.077L164.918 219.783L163.976 221.488H162.329L161.858 223.437L160.21 223.681L158.326 225.386L154.324 225.63L152.676 227.092L149.851 228.067V230.503L147.732 231.721V235.376L148.203 235.62V236.838L146.555 237.325L144.907 238.543L144.672 240.493H143.024L141.612 239.518H140.199L138.316 240.98L136.432 243.416L136.197 246.584L132.666 247.071L132.43 247.315V249.264L130.311 250.239L128.899 252.188H126.074L123.249 252.431L120.895 253.65L119.011 254.624L119.247 256.573L120.188 257.548H121.13L122.307 256.573L124.897 256.817L125.368 258.766L125.132 261.934L123.955 263.152V265.101H124.897V266.319L124.19 267.294V268.268L127.251 269.243L128.193 269.73V272.898L127.251 273.629V275.578L127.957 276.065V277.527L127.251 279.233L126.309 280.694V282.156L127.251 282.887L128.428 285.567L128.899 286.298L129.37 291.171V293.608L130.076 295.557L130.547 297.993L131.724 299.699L131.253 301.404L130.311 302.379L129.37 303.597L126.309 304.572L122.542 307.496L119.482 308.714L115.951 309.688L114.303 310.907V311.638L115.009 311.881Z" fill="white" stroke="black"/>
<path id="Vector 75" d="M272.976 112.822L282.864 114.527L291.81 118.669L298.637 121.593L304.051 126.709L316.529 129.39L320.766 126.709L321.708 119.644L329.948 111.603L344.308 107.461V93.0861L350.194 81.1474H353.019L357.963 86.264H361.259L377.973 77.7363L389.98 76.5181L396.101 78.9545L401.28 83.0965L405.989 85.0457L410.697 83.5838V86.264L412.58 86.5076V88.2131L413.757 88.7004V89.4314L413.287 89.9187L412.58 91.8679H411.639L410.697 93.0861H407.636L407.166 91.8679H400.103L399.397 93.0861L397.749 93.5734L398.455 95.2789L397.984 99.4209H398.455L400.103 98.2027H402.457V99.4209H401.28V101.37H402.928L405.518 102.588L405.047 105.756L405.989 108.192L407.166 109.41L408.343 110.141L411.639 111.116L413.757 112.822L415.17 116.233L419.643 118.669L421.762 120.375L424.587 121.593L426.235 123.786V126.222L429.06 127.928L435.416 128.902L438.477 132.313L441.537 134.019V135.481L440.36 135.968V137.43H442.008L444.598 139.866V141.572L446.481 140.841H448.6L449.777 141.572L450.954 142.059V144.983L447.658 148.394L445.539 149.125L444.598 151.318H441.537L439.418 149.125H437.3L436.122 150.343H435.416L434.945 151.318H431.885V150.343H427.883L427.412 151.318H425.528L425.058 149.612L423.645 149.125H421.762L418.466 148.394H415.641L413.993 147.176L413.051 145.714L411.874 144.983V141.572L409.52 138.648L407.636 137.43L406.459 134.993L404.576 132.313H402.222V133.288H403.399L404.105 135.481L405.753 136.455V138.648L404.576 139.135V139.866L405.753 140.841L406.695 142.79L408.343 144.008L409.52 146.445L409.755 147.419L410.462 148.394L411.874 149.125L411.639 151.318L410.932 152.78H409.755L407.636 150.343H406.695L402.457 152.78L399.632 155.703L398.22 159.115L396.807 161.064L395.865 163.987L394.453 164.962V167.155L392.099 168.373V171.297L389.98 172.759V176.901H388.803V181.286L388.097 182.748L389.98 185.672L391.392 187.134L388.803 188.84V191.276L387.861 191.763V193.712L386.449 194.687L387.861 198.098L387.39 203.946V205.895V208.575L385.272 210.28H380.799L378.444 208.575V210.28L381.74 211.986V214.91L380.799 215.884V219.295L379.621 219.783L380.092 223.925H378.444L369.498 236.838L366.909 237.813L365.732 239.275H363.377L362.671 236.838L359.375 232.696V231.234L362.671 227.092L363.377 224.656L362.671 223.925L358.904 227.579L356.315 228.798V230.016H357.727V231.234L356.315 232.696V233.671L360.082 235.863L359.375 243.173L357.021 244.391L353.019 246.34L350.429 247.802V251.457L351.371 252.919L350.429 254.624H348.781L346.192 256.574H342.896L338.658 260.716L337.952 262.421H341.012L346.192 259.741L347.604 262.421L346.192 264.614L347.604 266.076V269.243L346.192 272.654L343.602 274.847V276.796H350.429L353.019 279.72V285.08L350.429 286.542L344.308 285.08L339.835 283.375H327.593L326.887 284.349H325.004L324.298 286.298H322.885L321.237 278.989L321.943 272.411L318.177 272.167V262.908L316.293 259.01L314.881 253.406V249.995L319.118 242.929L320.06 239.031L322.885 236.594V235.133L321.708 233.427L318.177 231.234L315.587 227.823L311.114 223.681L307.583 221.001L304.051 219.295L303.11 211.255L301.933 208.819L299.578 205.651L298.401 201.022V196.149L299.578 192.738L301.933 190.789V188.84L300.755 187.378H298.401L292.987 190.789L290.632 192.738H285.689V189.814L284.747 187.378V183.967L280.509 182.017V180.556L281.686 176.901L284.747 172.759H290.632L294.164 170.079V168.129L290.632 163.013L288.984 156.678L285.924 152.536H283.334L280.509 154.242H274.388L272.505 156.678L271.563 158.384L266.855 161.064L264.265 162.526L262.382 163.013L261.676 162.038L255.79 161.307L252.494 155.703H250.611L248.728 156.678H242.136L243.548 154.729V152.536L244.49 151.318V149.125L243.548 148.15V146.445L244.49 144.983V140.841L246.138 138.161L252.494 137.186L254.613 132.557V126.953L257.203 124.76L262.617 122.324H264.972L269.68 124.76L272.27 123.542L272.74 119.4L273.447 116.476L272.976 112.822Z" fill="white" stroke="black"/>
<g id="Vector 76">
<path d="M276.271 112.334V108.192L283.099 106.243L283.57 104.05L281.451 103.076L283.57 100.883V99.4208L280.744 97.959L279.097 94.5479L280.744 90.4059H285.217L286.63 86.2639L289.455 85.2893L293.222 82.3655L296.989 80.4164H299.107V78.4672L294.87 75.5434L293.222 74.8125V70.6705H294.87V66.2848H293.222V64.8229L293.928 62.3864L298.636 57.7571H300.991L301.461 58.9754H305.228L308.524 56.7826H310.407V52.6405H311.82V50.6914L310.878 49.2295V42.4074L312.291 40.7018H313.468L316.058 39.9709V38.9963L314.645 38.2653L313.468 33.8797L312.291 31.4432V29.9813L312.997 28.5195V23.8902L313.939 24.6211V21.4537L312.997 20.2354H311.82V18.5299H313.939L315.587 16.0934L316.764 9.27131L317.941 8.05307L319.589 6.83483L321.708 6.10389L323.826 4.88565L324.297 0.5H326.181L328.064 1.47459L329.712 2.69283L331.124 4.88565H332.537L333.95 2.69283L335.362 1.47459H342.425V0.5H343.602L346.898 3.66742H349.016L350.664 2.69283H351.842V0.5H353.254V2.69283H359.375L359.14 1.23094H361.023V2.69283L365.731 1.23094L367.615 1.47459L368.792 2.69283H371.852L375.384 2.20553L378.915 1.96188L381.034 1.47459L383.152 2.69283L386.448 5.37295L386.919 7.56577L389.273 8.78401H391.392L391.863 10.7332L389.98 11.2205L388.332 9.51495H386.448L386.919 10.7332L389.98 13.9006L391.863 15.6061L393.746 19.5045L396.807 20.7227L398.926 23.6465L400.338 24.3774L400.809 25.5957H397.984L397.042 25.1084H390.451V26.5703L386.919 29.494V31.6869H385.036L382.446 32.4178H380.092L378.444 31.6869H372.323L371.381 32.4178H370.44V33.3924H373.029L377.502 33.8797L377.738 35.8289L378.915 37.5344L381.034 39.4836V43.6256L381.74 45.3311H382.446L383.859 42.8946V41.1891L383.152 40.4582V39.9709L384.565 40.4582L385.742 40.9455L386.213 42.651L385.742 43.3819L385.036 45.3311H383.859V47.0367L383.152 49.7168V51.666H385.036L388.332 52.6405L387.861 54.5897V56.5389H390.215L394.453 57.0262V59.219L393.04 59.7063L389.273 60.4373V61.8991L392.334 62.1428L393.511 62.8737L397.042 63.8483V65.3102L394.453 66.0412V67.0157L395.63 67.7467L398.69 68.4776L401.515 69.4522L402.692 74.5688L410.461 83.0965L405.988 84.0711L401.751 82.6092L396.336 78.4672L389.98 75.7871L377.738 77.2489L372.794 79.6854L361.023 85.5329H358.433L353.254 80.66L349.958 80.4164L349.016 81.6346L345.485 89.4313L343.602 92.8424V100.152V106.73L338.423 108.436L329.241 111.116L321.001 119.156L320.766 122.567L320.06 126.222L316.528 128.659L304.287 126.222L299.107 120.862L283.099 114.04L276.507 112.821L276.271 112.334Z" fill="white"/>
<path d="M379.386 34.6106V36.8035L381.034 38.0217H385.271V35.8289L381.034 34.6106H379.386Z" fill="white"/>
<path d="M396.807 32.9051L401.28 30.7123L402.692 29.494V27.7885L399.396 27.3012L391.392 26.5703L390.451 28.0322L391.628 29.0067L393.276 31.6869L394.688 32.6615L396.807 32.9051Z" fill="white"/>
<path d="M401.28 36.8035L404.105 39.2399H405.282L404.811 36.3162L403.399 34.6106H401.751L401.28 36.8035Z" fill="white"/>
<path d="M391.628 42.8946L393.276 46.0621L395.63 47.0367H396.571L396.807 43.1383L395.63 40.4582L392.098 40.9455L391.628 42.8946Z" fill="white"/>
<path d="M395.63 16.5807L397.278 17.3117H398.219L400.574 13.9006L399.867 12.4387L397.278 10.0022H396.101L394.688 12.4387V14.8752L395.63 16.5807Z" fill="white"/>
<path d="M399.867 10.0022L402.222 12.1951L404.811 14.6315H407.401L407.872 13.657L407.401 10.0022L406.224 8.78401L404.811 8.05307H404.105L402.457 8.78401H399.161L399.867 10.0022Z" fill="white"/>
<path d="M276.271 112.334V108.192L283.099 106.243L283.57 104.05L281.451 103.076L283.57 100.883V99.4208L280.744 97.959L279.097 94.5479L280.744 90.4059H285.217L286.63 86.2639L289.455 85.2893L293.222 82.3655L296.989 80.4164H299.107V78.4672L294.87 75.5434L293.222 74.8125V70.6705H294.87V66.2848H293.222V64.8229L293.928 62.3864L298.636 57.7571H300.991L301.461 58.9754H305.228L308.524 56.7826H310.407V52.6405H311.82V50.6914L310.878 49.2295V42.4074L312.291 40.7018H313.468L316.058 39.9709V38.9963L314.645 38.2653L313.468 33.8797L312.291 31.4432V29.9813L312.997 28.5195V23.8902L313.939 24.6211V21.4537L312.997 20.2354H311.82V18.5299H313.939L315.587 16.0934L316.764 9.27131L317.941 8.05307L319.589 6.83483L321.708 6.10389L323.826 4.88565L324.297 0.5H326.181L328.064 1.47459L329.712 2.69283L331.124 4.88565H332.537L333.95 2.69283L335.362 1.47459H342.425V0.5H343.602L346.898 3.66742H349.016L350.664 2.69283H351.842V0.5H353.254V2.69283H359.375L359.14 1.23094H361.023V2.69283L365.731 1.23094L367.615 1.47459L368.792 2.69283H371.852L375.384 2.20553L378.915 1.96188L381.034 1.47459L383.152 2.69283L386.448 5.37295L386.919 7.56577L389.273 8.78401H391.392L391.863 10.7332L389.98 11.2205L388.332 9.51495H386.448L386.919 10.7332L389.98 13.9006L391.863 15.6061L393.746 19.5045L396.807 20.7227L398.926 23.6465L400.338 24.3774L400.809 25.5957H397.984L397.042 25.1084H390.451V26.5703L386.919 29.494V31.6869H385.036L382.446 32.4178H380.092L378.444 31.6869H372.323L371.381 32.4178H370.44V33.3924H373.029L377.502 33.8797L377.738 35.8289L378.915 37.5344L381.034 39.4836V43.6256L381.74 45.3311H382.446L383.859 42.8946V41.1891L383.152 40.4582V39.9709L384.565 40.4582L385.742 40.9455L386.213 42.651L385.742 43.3819L385.036 45.3311H383.859V47.0367L383.152 49.7168V51.666H385.036L388.332 52.6405L387.861 54.5897V56.5389H390.215L394.453 57.0262V59.219L393.04 59.7063L389.273 60.4373V61.8991L392.334 62.1428L393.511 62.8737L397.042 63.8483V65.3102L394.453 66.0412V67.0157L395.63 67.7467L398.69 68.4776L401.515 69.4522L402.692 74.5688L410.461 83.0965L405.988 84.0711L401.751 82.6092L396.336 78.4672L389.98 75.7871L377.738 77.2489L372.794 79.6854L361.023 85.5329H358.433L353.254 80.66L349.958 80.4164L349.016 81.6346L345.485 89.4313L343.602 92.8424V100.152V106.73L338.423 108.436L329.241 111.116L321.001 119.156L320.766 122.567L320.06 126.222L316.528 128.659L304.287 126.222L299.107 120.862L283.099 114.04L276.507 112.821L276.271 112.334Z" stroke="black"/>
<path d="M379.386 34.6106V36.8035L381.034 38.0217H385.271V35.8289L381.034 34.6106H379.386Z" stroke="black"/>
<path d="M396.807 32.9051L401.28 30.7123L402.692 29.494V27.7885L399.396 27.3012L391.392 26.5703L390.451 28.0322L391.628 29.0067L393.276 31.6869L394.688 32.6615L396.807 32.9051Z" stroke="black"/>
<path d="M401.28 36.8035L404.105 39.2399H405.282L404.811 36.3162L403.399 34.6106H401.751L401.28 36.8035Z" stroke="black"/>
<path d="M391.628 42.8946L393.276 46.0621L395.63 47.0367H396.571L396.807 43.1383L395.63 40.4582L392.098 40.9455L391.628 42.8946Z" stroke="black"/>
<path d="M395.63 16.5807L397.278 17.3117H398.219L400.574 13.9006L399.867 12.4387L397.278 10.0022H396.101L394.688 12.4387V14.8752L395.63 16.5807Z" stroke="black"/>
<path d="M399.867 10.0022L402.222 12.1951L404.811 14.6315H407.401L407.872 13.657L407.401 10.0022L406.224 8.78401L404.811 8.05307H404.105L402.457 8.78401H399.161L399.867 10.0022Z" stroke="black"/>
</g>
<path id="Vector 51" d="M273.68 362.316H276.27L285.216 357.931L294.633 353.789L306.639 347.941L317.468 343.799L323.354 340.144L328.769 338.195V333.322L329.946 329.424L332.535 325.038L334.419 324.064L336.302 321.627V319.191L337.479 317.972L336.302 316.267L334.419 313.83H332.535V315.049H329.946L332.535 311.394V307.739L330.887 306.765L334.419 303.597L336.302 309.445L338.892 312.612H340.304L343.129 307.739L344.306 305.059V298.724L345.719 296.044L344.306 294.582L339.833 299.699L338.892 293.12L341.246 292.146H347.602L349.956 294.582V290.684L351.84 289.222L347.602 286.542L341.246 285.08H326.65L323.354 288.004H321.706L320.058 279.72V274.116L316.527 271.923V267.294L317.468 264.857L316.527 262.421L315.114 259.01L313.702 254.381V250.482L316.527 244.635L317.468 243.66H314.173L308.052 246.097L304.991 248.533L303.814 251.7L302.872 256.573L302.401 259.984L302.872 264.37L304.991 267.781V269.73V271.923L305.462 272.41L304.991 273.629L301.931 274.847L300.989 278.014L300.047 280.938H296.987L291.808 284.593L289.453 286.298L285.451 290.684L282.626 293.364L280.507 296.044L279.095 300.674L275.328 304.085L273.209 305.546L272.738 309.201H270.149L269.443 312.125L268.972 313.1V314.318L270.149 315.292V316.267L267.559 318.703L266.147 320.409V321.384L266.618 322.602L264.263 324.064L262.851 327.231L262.145 328.449V330.886L262.851 332.591L264.97 334.053L267.559 335.028L270.149 336.977L271.561 338.926L272.738 341.363V343.799V345.017V352.083L273.68 353.789V357.931V359.88V362.316Z" fill="white" stroke="black"/>
</g>
</svg>
