<svg width="2288" height="2685" viewBox="0 0 2288 2685" fill="none" xmlns="http://www.w3.org/2000/svg">
<path d="M981.32 363.558L991.25 330.354L1020.73 354.869C1021.97 363.972 1023.71 386.708 1020.73 404.831C1017.01 427.484 1010.8 404.831 991.25 398.935C975.61 394.218 978.113 373.385 981.32 363.558Z" stroke="black" stroke-width="6"/>
<path d="M1067.59 354.869L1033.45 370.385L1048.97 398.935V463.482H1077.52V479.308L1112.59 487.066L1124.38 524.305L1134.31 547.579L1155.72 587.921L1187.06 567.439L1222.44 547.579L1244.78 524.305C1248.09 518.719 1256.27 503.451 1262.47 487.066C1268.68 470.681 1249.33 475.067 1238.89 479.308L1213.44 463.482C1200.72 464.413 1170.37 465.716 1150.76 463.482C1131.14 461.247 1131.62 442.897 1134.31 434.001C1132.34 424.278 1127.61 403.652 1124.38 398.935C1121.15 394.218 1115.17 389.108 1112.59 387.142L1089.31 379.384V363.558L1067.59 354.869Z" stroke="black" stroke-width="6"/>
<path d="M1179.31 587.921L1150.76 599.713L1160.69 620.194L1187.06 662.398L1244.78 717.014L1256.58 703.36L1280.16 692.499L1310.57 674.19L1289.78 655.571L1270.23 630.124V599.713L1289.78 577.059L1262.47 567.439L1251.61 577.059L1179.31 587.921Z" stroke="black" stroke-width="6"/>
<path d="M1280.16 800.491L1238.89 737.806L1270.23 729.737L1300.64 737.806V795.526L1280.16 800.491Z" stroke="black" stroke-width="6"/>
<path d="M1213.44 189.778L1251.61 148.505L1270.23 140.747L1310.57 131.437L1360.84 119.335L1353.09 94.1989L1360.84 80.855L1335.71 72.7867L1353.09 62.2357H1392.81H1415.46L1434.08 47.6506C1446.49 45.3749 1473.74 42.189 1483.42 47.6506C1493.1 53.1123 1506.9 55.3052 1512.59 55.719C1522.73 61.4082 1544.62 72.7867 1551.07 72.7867H1604.14L1641.37 55.719V19.7217L1673.34 3.58496L1691.96 19.7217L1673.34 40.8236V94.1989L1741.3 148.505L1771.71 211.19V240.36V290.943L1753.09 317.63L1762.4 338.732V363.558L1782.57 379.384V424.071L1741.3 434.001L1727.95 457.275V499.789L1710.58 547.579L1673.34 534.235L1641.37 524.305H1616.24L1604.14 499.789H1579C1572.79 495.548 1558.52 487.066 1551.07 487.066C1543.62 487.066 1516.11 481.894 1503.28 479.308L1489.94 457.275H1564.41L1551.07 434.001L1503.28 416.002L1512.59 404.831L1560.38 416.002L1567.21 398.935L1543 379.384L1489.94 365.42L1471.32 338.732L1535.24 330.354L1543 317.63L1503.28 299.011L1535.24 271.082L1567.21 280.392L1585.83 245.636L1543 240.36L1520.66 227.017L1479.39 240.36L1483.42 227.017H1446.18V245.636C1441.22 248.739 1428.68 258.173 1418.25 271.082C1407.83 283.992 1396.94 276.461 1392.81 271.082C1385.77 266.634 1369.53 255.318 1360.84 245.636C1352.15 235.954 1340.47 229.189 1335.71 227.017C1331.67 236.326 1329.5 258.173 1353.09 271.082C1376.67 283.992 1358.36 295.08 1346.26 299.011H1280.16H1222.44C1210.65 298.08 1195.5 291.191 1229.27 271.082C1263.03 250.973 1232.78 222.775 1213.44 211.19V189.778Z" stroke="black" stroke-width="6"/>
<path d="M1591.1 636.641L1592.34 592.886L1604.14 577.059L1641.37 563.405H1678.61L1715.85 572.715L1771.71 577.059L1741.3 620.194H1689.47L1664.03 599.713H1626.79L1591.1 636.641Z" stroke="black" stroke-width="6"/>
<path d="M1753.09 487.066L1741.3 547.579H1799.64V515.616L1782.57 479.308L1753.09 487.066Z" stroke="black" stroke-width="6"/>
<path d="M1810.5 434.001L1795.91 469.067L1810.5 499.789L1836.88 518.409C1834.7 505.375 1830.36 477.26 1830.36 469.067C1830.36 460.875 1840.91 457.792 1846.19 457.275L1830.36 434.001H1810.5Z" stroke="black" stroke-width="6"/>
<path d="M617.623 287.529L591.246 257.428L612.658 262.704L617.623 232.602L636.243 242.533L652.69 257.428V303.976V352.697L636.243 332.836L617.623 287.529Z" stroke="black" stroke-width="6"/>
<path d="M707.617 332.836V287.529H730.27V257.428H772.784L782.715 287.529L821.505 297.77L857.812 312.665L879.225 346.491L877.983 372.868L857.812 409.175H877.983V432.76L842.917 425.312L807.851 392.728L761.613 372.868L707.617 332.836Z" stroke="black" stroke-width="6"/>
<path d="M799.162 249.98V213.673L782.715 172.4L799.162 157.505L821.505 209.949L835.469 188.847L828.021 172.4L835.469 147.264L815.298 123.68L842.917 119.956C847.882 114.887 860.605 107.791 871.777 119.956C882.948 132.12 903.119 125.024 911.808 119.956L921.739 92.3371V67.2011C921.739 53.0504 943.461 53.8572 954.322 56.0295L972.011 75.8901C985.768 81.3724 1008.75 92.3371 990.63 92.3371C972.507 92.3371 983.079 115.715 990.63 127.403C1000.66 127.403 1022.97 122.873 1031.9 104.75C1040.84 86.6272 1023.21 88.9236 1013.28 92.3371C1011.21 85.1997 1008.32 67.9458 1013.28 56.0295C1018.25 44.1131 1039.56 40.9272 1049.59 40.8237C1062.11 48.7887 1090.62 68.7527 1104.52 84.8894C1112.07 94.4059 1125.43 116.232 1118.48 127.403C1111.53 138.575 1115.59 152.126 1118.48 157.505L1111.03 198.777V232.602L1098.31 257.428L1062 262.704V232.602V198.777L1040.9 213.673L1013.28 209.949L998.078 188.847L972.011 179.848L998.078 213.673L1007.08 249.98L1049.59 242.533V257.428L1031.9 287.529L1040.9 321.354L1020.73 303.976L998.078 312.665L990.63 303.976L972.011 332.836L941.91 321.354L921.739 287.529L871.777 296.529L842.917 287.529L799.162 273.875V249.98Z" stroke="black" stroke-width="6"/>
<path d="M575.109 526.167L547.801 464.723L607.693 447.035L639.966 464.723L676.895 511.582L709.478 556.889L730.27 590.714H719.098V615.229L696.445 639.434C692.1 625.366 682.108 595.927 676.895 590.714C671.681 585.501 628.588 565.992 607.693 556.889L575.109 526.167Z" stroke="black" stroke-width="6"/>
<path d="M730.27 447.035L676.895 437.415L696.445 490.79L719.098 526.167L756.337 545.717L777.128 574.577L801.334 545.717L793.265 511.582L756.337 474.343L730.27 447.035Z" stroke="black" stroke-width="6"/>
<path d="M801.334 615.229L793.265 574.577L820.884 545.717L841.986 564.957L850.054 602.196L801.334 615.229Z" stroke="black" stroke-width="6"/>
<path d="M124.212 314.527H181.001L193.724 303.045L181.001 274.185L163.002 249.98C157.623 243.981 145.252 231.982 138.797 231.982C132.342 231.982 126.384 208.397 124.212 196.605L111.489 173.951V138.265L95.352 120.576H72.6986L28.9432 138.265L3.18652 183.571L14.3581 231.982L28.9432 274.185L95.352 285.357L124.212 314.527Z" stroke="black" stroke-width="6"/>
<path d="M250.513 796.146L220.722 784.354L258.271 721.359L287.751 710.808V721.359L273.476 748.357L250.513 796.146Z" stroke="black" stroke-width="6"/>
<path d="M173.764 773.493L128.876 755.266L113.688 710.712L67.1123 631.392V580.425L74.1999 529.458L88.3752 506.168L94.4504 450.138L133.939 471.74L141.026 506.168L194.015 547.684L231.816 570.299L271.304 631.392L247.003 690.123L205.153 767.417L173.764 773.493Z" stroke="black" stroke-width="6"/>
<path d="M151.21 496.997V453.862L132.901 429.967V394.901L145.625 361.386L199.931 337.802L233.446 355.8L258.582 394.901L283.718 407.624L297.682 453.862L292.096 483.032C283.304 483.963 264.292 486.384 258.582 488.618C252.872 490.852 256.202 504.444 258.582 510.961L297.682 538.89L310.405 561.233L333.99 569.612L342.368 594.748L320.025 624.229L258.582 577.991L233.446 548.82L187.518 526.477L151.21 496.997Z" stroke="black" stroke-width="6"/>
<path d="M573.868 623.608L517.7 616.47L468.98 528.649L534.458 553.785V573.025L573.868 623.608Z" stroke="black" stroke-width="6"/>
<path d="M522.355 686.293L517.7 656.812H522.355L595.281 645.951L573.868 686.293L581.316 708.636L559.283 715.153L522.355 686.293Z" stroke="black" stroke-width="6"/>
<path d="M511.183 824.696L494.736 810.111V776.907L541.905 810.111L511.183 824.696Z" stroke="black" stroke-width="6"/>
<path d="M360.057 880.864L345.472 899.484L389.537 936.102L398.847 973.03L419.949 965.893V950.066L403.502 932.688L393.261 919.655L360.057 880.864Z" stroke="black" stroke-width="6"/>
<path d="M617.313 873.417L605.211 846.729H595.281L581.316 873.417L610.797 892.036L617.313 919.655L635.002 907.552L644.001 892.036L617.313 873.417Z" stroke="black" stroke-width="6"/>
<path d="M1203.4 1972.5L1175.97 1924.64C1224.99 1903.63 1206.51 1836.91 1191.14 1806.18C1187.88 1789.37 1117.81 1813.18 1083.18 1827.19C1018.29 1781.9 991.949 1816.1 986.891 1838.86C997.629 1907.95 1080.85 1917.45 1121.11 1913.55L1083.18 1958.49C1083.18 2138.7 955.183 2098.94 891.184 2056.53C867.374 1959.89 846.637 1942.73 839.245 1946.24L824.072 2056.53C795.127 2064.94 763.38 2060.03 751.125 2056.53C710.508 2132.63 699.576 2240.36 699.187 2284.71C772.017 2363.61 822.905 2369.33 839.245 2362.33C868.191 2600.89 923.281 2674.54 947.208 2681.54C978.954 2670.81 997.006 2575.92 1002.06 2529.81C986.307 2558.6 964.248 2598.21 1002.06 2526.31C1039.88 2454.42 1071.9 2459.4 1083.18 2470.87C1118.66 2551.64 1199.9 2590.9 1236.08 2600.43V2539.73C1319.65 2282.03 1410.18 2250.67 1445 2267.2L1432.16 2204.76C1380.81 2158.07 1322.84 2049.92 1300.27 2001.68L1203.4 1972.5Z" stroke="black" stroke-width="6"/>
<path d="M1178.89 1175.91C1050.97 1081.6 910.442 883.733 856.169 796.585L992.726 836.268L1320.11 1134.48L1589.14 1369.66L1700.61 1495.13L1725.12 1481.12V1421.6L1767.72 1507.38L1725.12 1603.09H1789.9L1835.41 1643.94L1879.18 1627.02C1851.17 1517.77 1890.85 1484.24 1914.2 1481.12C1956.68 1523.61 2003.48 1607.37 2021.58 1643.94C2097.21 1784 2228.16 1789.84 2284.19 1775.25V1859.87L2159.88 1812.01C1996.48 1781.67 2066.12 1856.17 2121.37 1897.21L2101.53 1932.23L1983.06 1876.21L1957.38 1897.21C1925.64 1864.07 1862.84 1802.09 1835.41 1775.25L1736.79 1733.23L1757.21 1709.89L1639.33 1643.94C1448.38 1745.25 1370.3 1735.17 1355.13 1717.47C1243.08 1843.53 1215.46 1780.5 1215.65 1733.23C1125.55 1751.9 1069.95 1725.45 1053.42 1709.89V1603.09C1080.03 1520.92 1172.66 1487.54 1215.65 1481.12C1245.07 1370.94 1203.4 1231.74 1178.89 1175.91Z" stroke="black" stroke-width="6"/>
</svg>
