<svg width="35" height="29" viewBox="0 0 35 29" fill="none" xmlns="http://www.w3.org/2000/svg">
<g id="Lombok">
<path id="Vector 16" d="M0.5 22.7067V21.9515L0.907328 21.1684L1.5319 21.588L1.91207 21.9515L3.07974 22.7067L3.67715 23.0423H4.62759L4.95345 22.7346L5.36078 21.9515L6.31121 21.588H7.18017L8.6194 22.3711H8.99957L9.48836 22.7626H10.5474V21.9515C10.5746 21.9795 10.5474 22.0075 10.5474 21.3083C10.8081 19.8987 11.1901 19.9938 10.9276 19.9099V19.2946V18.8471V17.3648L11.3078 17.0012V15.9664V14.9315L11.2263 13.8688L10.9276 13.0017V12.3025L9.84138 11.2118V9.25402L10.1944 8.47091L10.6017 8.13529L11.6608 7.74374L12.8013 6.56908L13.9418 5.81394L15.028 5.42239L16.1142 3.54852L17.2819 2.3459L18.3681 1.50685L20.2418 0.5H23.609L24.4237 0.807649L25.9444 1.1992L28.144 1.92637L31.484 3.07307L32.4888 3.49259L33.7922 5.11474L34.4711 5.45036V7.71577L34.0366 9.33792L32.2715 11.2118V11.5754L32.5703 11.6872V12.3025L32.1629 12.3585L32.2715 14.2323L30.8323 15.6587V17.0292L28.9043 19.8819L28.4698 20.4413L28.0625 21.6998L26.5418 22.8186L26.2159 23.3779L25.5642 24.2729L24.8582 24.6644H23.9349H22.9845L22.8215 25.4476L22.197 25.8391L22.0069 27.3214L21.7082 27.7409H21.0293V27.3214H20.6763V27.7409H19.2914L18.4767 27.0417H17.6621V27.3214L14.2405 27.7409L13.8875 26.1468H13.5888H10.9276L10.4931 25.4476H9.59698L9.46121 25.6993H8.6194L8.29353 25.7832L7.94052 25.8391L7.5875 26.5942L7.20733 26.4824H6.82715L6.12112 26.1468L4.9806 25.0001L2.34655 24.2729L1.96638 24.189L0.853017 23.8254V23.5178L1.23319 23.4898L0.853017 23.0703L0.5 22.7067Z" fill="white" stroke="black"/>
<path id="Vector 20" d="M25.1572 28.1046V27.4054L25.6189 26.4545H25.9176L26.2977 27.0698V27.4054L25.9176 27.741L25.1572 28.1046Z" fill="white" stroke="black"/>
</g>
</svg>
