<svg width="273" height="272" viewBox="0 0 273 272" fill="none" xmlns="http://www.w3.org/2000/svg">
<g id="Maluku">
<path id="Vector 58" d="M157.652 58.1204H160.251H160.935L161.618 59.4923L162.165 60.3155V61.6874L161.208 62.9221L160.251 63.8825H155.737L154.233 64.5684L152.591 65.3916L151.497 68.2726L150.677 70.0561V71.7024L151.087 72.7999L150.677 73.623L147.12 76.9156H143.701L142.47 76.6413L140.555 74.7206H138.914L138.64 76.6413L137.136 78.6991L136.726 79.3851L135.358 79.6595L134.811 82.8149L134.127 84.7355V85.5587H134.811V86.519L134.127 87.0678V87.6166L135.631 88.7141L136.042 92.1439L136.726 92.967L138.093 93.653V94.7505L139.188 95.4365H140.692L141.376 95.0249L142.607 96.6712V97.9059L141.649 99.5522L140.966 102.022V104.08L141.649 106.549L142.333 106.961V108.195L141.376 109.43V111.351V114.232L140.692 115.741L140.008 117.524V119.033L140.692 119.994L141.376 121.366L142.333 122.6L143.975 123.424L145.206 123.972L147.257 124.795L148.762 125.893L149.309 127.676L150.54 130.42L151.771 132.478L152.455 134.399L153.412 135.771L153.959 137.554L156.011 139.612L158.609 140.435L161.071 141.533H162.713L162.986 140.71L162.713 140.024L161.071 137.554L160.524 136.32L158.609 133.438L156.695 130.832L155.327 127.676L153.412 124.247L153.002 122.189L151.771 119.445V117.524L150.266 113.82L148.215 110.39V107.235V106.275L149.719 105.04V100.924L149.446 98.8663L147.668 97.9059L147.257 96.6712L148.488 95.0249L149.035 93.653V91.7323L150.266 90.2232H151.497L152.728 89.8116H155.327H156.558L157.515 90.6348H160.661L162.302 92.5555L165.038 93.2414H170.235H172.834L174.475 95.4365L176.8 96.6712H178.852L180.903 97.4943L183.092 97.9059L185.417 98.3175L188.016 99.0035V98.3175L186.511 97.4943L183.912 97.0828L180.903 96.2596L180.356 95.4365V94.7505L181.314 93.2414V91.0464L180.63 89.8116V89.4001L181.314 88.5769V87.6166L179.672 87.205L175.98 86.9306L175.433 86.1075L172.423 85.4215L171.466 84.4612L167.5 83.7752L166.132 83.2264L164.901 80.6198L163.26 79.9338L161.208 77.7388V76.9156L162.986 75.8181L164.217 74.5834L166.679 72.1139L169.688 71.7024L172.013 70.6048L175.433 69.3701L178.305 65.9403H179.672L181.314 65.3916V63.8825L181.587 59.4923L182.134 58.1204V55.9254L183.639 55.1022V52.2212L181.314 49.3402V47.2823L181.587 46.0476L182.545 45.7732V45.0872L181.314 44.6757H179.946L178.715 45.0872L176.527 45.7732L175.022 47.2823H173.928L172.834 46.4591H172.013L168.731 48.517L166.953 50.0261L163.26 51.5352L161.618 52.77L159.567 54.8278L159.156 56.1997L158.336 57.1601L157.652 57.4345V58.1204Z" fill="white" stroke="black"/>
<path id="Vector 59" d="M162.987 14.7679L165.723 11.4753C165.768 10.7436 165.914 9.19793 166.133 8.86868C166.352 8.53942 168.686 6.26204 169.826 5.16451H170.783L172.561 2.69506H173.656V3.10664H175.16L175.981 2.1463L176.528 0.5H177.349L178.306 3.6554L179.263 4.75293L181.725 6.8108V9.55463L179.81 12.0241V14.7679L178.306 18.4721L177.349 21.3531L175.16 23.6853L169.826 24.2341L167.364 25.1945H166.133V22.725L164.629 22.039V16.277L162.987 15.1795V14.7679Z" fill="white" stroke="black"/>
<path id="Vector 60" d="M159.567 14.2192H160.388L160.662 12.1613L160.388 10.9266L159.978 10.515H159.567V11.8869L159.294 12.7101V13.5332L159.567 14.2192Z" fill="white" stroke="black"/>
<path id="Vector 61" d="M139.462 181.181L141.377 179.397L144.523 180.221H147.395L148.763 179.397H150.131L152.593 180.221L154.234 181.181H157.516L159.705 179.397V177.751L158.611 175.968L157.516 176.516H156.149L153.55 173.635L149.31 170.068H146.574L144.523 169.52V168.697L142.061 166.639H138.368L135.769 167.736L133.581 170.068L132.897 171.029H132.35L131.256 170.068H130.435L129.615 172.675L128.794 173.635V176.516V178.437L132.35 181.181L134.265 181.73H137.411L139.462 181.181Z" fill="white" stroke="black"/>
<path id="Vector 62" d="M132.897 162.386C132.897 162.249 133.034 161.947 133.581 161.837C134.128 161.727 134.903 161.791 135.222 161.837L137.821 162.386L140.419 163.346C140.602 162.843 140.857 161.837 140.419 161.837C139.982 161.837 138.869 161.471 138.368 161.288H136.316L135.222 159.916L133.581 159.368L132.897 160.74L131.939 161.288V162.386H132.897Z" fill="white" stroke="black"/>
<path id="Vector 63" d="M125.647 169.794L127.288 168.971L127.562 168.285H125.647L124.69 168.971L124.553 169.52L125.647 169.794Z" fill="white" stroke="black"/>
<path id="Vector 64" d="M135.358 141.807L131.939 143.316L130.297 141.121V139.887L131.939 137.691V135.634L129.887 135.359L126.878 133.713L124.279 129.872V128.637L125.237 127.951L126.057 124.933V124.11H126.878L128.109 124.933L129.34 127.951H130.297L131.939 126.716L131.528 125.344L133.853 123.149H135.358V124.933L136.862 125.344V126.716L138.777 127.951L140.008 129.323L139.461 130.695L136.862 133.713L136.315 134.399V135.634L136.862 136.457L138.367 136.868V138.926L139.461 139.887H140.829L142.06 138.926H145.206L146.71 139.887L147.804 141.121V143.316L145.889 145.1H143.017H140.829L140.008 143.316L139.461 141.121L138.367 139.887L136.862 140.435V141.396H135.631L135.358 141.807Z" fill="white" stroke="black"/>
<g id="Vector 65">
<path d="M120.998 141.944L121.545 141.396L122.365 141.944L124.007 142.63L124.417 141.944L123.323 140.435V138.652L122.365 137.966L121.545 136.731H120.998V137.966L119.356 139.612V141.396L120.04 141.944H120.998Z" fill="white"/>
<path d="M117.441 122.875L117.988 123.424V125.207L117.441 126.579V128.5L118.536 129.186V130.42H117.988V131.518H119.356L120.587 130.832V129.186L121.545 129.872L122.365 129.186V127.677L121.818 127.402V126.579L123.323 126.03L122.639 125.344L121.545 124.247V123.424L121.818 122.875V121.777V121.366H119.356L117.988 121.777H117.441V122.875Z" fill="white"/>
<path d="M120.998 141.944L121.545 141.396L122.365 141.944L124.007 142.63L124.417 141.944L123.323 140.435V138.652L122.365 137.966L121.545 136.731H120.998V137.966L119.356 139.612V141.396L120.04 141.944H120.998Z" stroke="black"/>
<path d="M117.441 122.875L117.988 123.424V125.207L117.441 126.579V128.5L118.536 129.186V130.42H117.988V131.518H119.356L120.587 130.832V129.186L121.545 129.872L122.365 129.186V127.677L121.818 127.402V126.579L123.323 126.03L122.639 125.344L121.545 124.247V123.424L121.818 122.875V121.777V121.366H119.356L117.988 121.777H117.441V122.875Z" stroke="black"/>
</g>
<g id="Vector 66">
<path d="M126.605 97.3573L127.699 98.0432H129.067L129.477 97.3573V95.711L128.657 95.2994H127.699L126.605 96.6713V97.3573Z" fill="white"/>
<path d="M126.605 77.8761L127.699 77.0529L127.289 75.5438L125.921 74.5835H125.237L124.28 75.5438V77.0529L125.237 78.2877H126.605V77.8761Z" fill="white"/>
<path d="M127.699 83.2266L128.657 83.9125L129.888 82.815L130.435 81.1687V79.934L129.067 79.3852L128.246 79.934L127.699 81.1687L127.289 82.129L127.699 83.2266Z" fill="white"/>
<path d="M99.5241 270.081L102.807 268.984L107.32 267.337L110.466 266.103L114.432 262.81H116.757H120.04L121.818 260.341V252.658V251.423L118.809 250.189L116.757 251.423H114.432L112.928 247.445V245.798H116.757L111.697 241.271H110.466L107.32 239.899L102.807 237.841H96.9254L88.3086 239.899H83.7951H81.8803L80.239 241.271V242.643L78.5977 243.741L74.221 241.271L71.0752 242.643V248.542L72.0326 251.423L74.221 255.265L76.8197 257.734V260.341L80.239 261.438L89.4028 266.103L99.5241 270.081Z" fill="white"/>
<path d="M167.637 248.542L169.689 250.874V252.246L170.92 253.344H175.023L177.758 252.246L178.989 252.658H181.041V252.246L180.22 251.423V250.189C181.634 249 184.542 246.539 184.871 246.21C185.199 245.881 186.284 244.975 186.785 244.564H187.743L188.7 242.917H191.436L193.351 243.741L193.898 246.21L193.351 247.445L191.983 248.542V249.091H194.992L198.548 248.542L203.745 250.874L206.481 251.423H210.721L214.277 252.658L216.329 254.03H217.833V252.246L217.012 250.874L215.098 248.542V247.445L216.329 246.21L217.559 247.033L221.526 247.445H225.082L226.723 247.993H228.501L231.374 248.542H233.425L235.066 250.189V252.658L237.255 255.127H239.443L241.495 256.637L246.008 258.283L250.932 260.478H252.984L255.172 262.399L255.856 263.77L257.224 264.319L259.822 265.005L262.968 268.023H265.02L266.114 269.121H267.892L269.397 270.63L269.944 269.121V265.005V262.399L271.722 261.164L272.269 259.518L271.038 258.283L269.397 255.676V255.127L269.944 254.03L268.849 252.658L263.515 252.246L262.011 249.365V245.25L261.053 243.055V241.683L258.181 239.762H256.403L255.172 237.978L253.941 237.293L252.984 235.509L249.838 233.863H246.555L245.188 235.509H243.273L242.452 234.96H241.495L236.708 235.509L229.869 231.393H227.817L226.723 229.61L222.073 227.552L215.098 226.18H210.721L209.49 228.924L203.745 232.079V233.04H200.052L199.779 233.451L197.591 232.079L196.633 230.159L197.18 227.14L196.36 226.592L194.445 227.552L188.7 229.61H184.871H181.725L180.767 228.512L179.536 228.924H175.707L174.202 228.512L173.245 228.924H171.604H170.92L169.689 230.159L167.637 229.61H163.944L161.072 228.924L159.294 230.845V232.079L158.2 233.451L158.747 234.411V235.235L157.379 236.195L158.747 237.841L160.115 237.155H161.072L161.893 238.527V240.036L160.115 241.957L162.303 243.192L163.944 242.917L165.449 244.564L166.817 247.445L167.637 248.542Z" fill="white"/>
<path d="M133.581 248.405H135.085L136.59 249.091L137.41 249.503V248.817L137 248.405L135.632 246.759L135.085 246.073H133.854L132.76 247.445V248.131L133.034 248.405H133.581Z" fill="white"/>
<path d="M142.061 244.838L143.975 244.564V243.192L143.702 242.231L142.881 241.683H141.377L139.735 243.192L138.778 243.741V244.289L139.735 245.112H141.787L142.061 244.838Z" fill="white"/>
<path d="M156.285 240.036L155.464 243.741L154.917 247.445V249.091L153.413 250.189H152.045L151.498 252.246L150.404 254.167L149.857 255.265L150.404 256.499C150.221 257.048 149.857 257.981 149.857 257.322C149.857 256.664 149.218 255.676 148.899 255.265L150.404 252.246L150.951 250.189L150.404 247.445L147.942 244.564V241.957L151.498 240.036L152.866 239.488V238.664L154.917 238.253H157.516V239.076L157.379 239.488L156.285 240.036Z" fill="white"/>
<path d="M148.899 235.921L150.13 235.646L151.498 234.411V233.451L152.592 232.491V232.079H151.224L149.857 232.491L148.899 233.726L148.215 234V234.686L147.942 235.235V235.646L148.899 235.921Z" fill="white"/>
<path d="M126.605 97.3573L127.699 98.0432H129.067L129.477 97.3573V95.711L128.657 95.2994H127.699L126.605 96.6713V97.3573Z" stroke="black"/>
<path d="M126.605 77.8761L127.699 77.0529L127.289 75.5438L125.921 74.5835H125.237L124.28 75.5438V77.0529L125.237 78.2877H126.605V77.8761Z" stroke="black"/>
<path d="M127.699 83.2266L128.657 83.9125L129.888 82.815L130.435 81.1687V79.934L129.067 79.3852L128.246 79.934L127.699 81.1687L127.289 82.129L127.699 83.2266Z" stroke="black"/>
<path d="M99.5241 270.081L102.807 268.984L107.32 267.337L110.466 266.103L114.432 262.81H116.757H120.04L121.818 260.341V252.658V251.423L118.809 250.189L116.757 251.423H114.432L112.928 247.445V245.798H116.757L111.697 241.271H110.466L107.32 239.899L102.807 237.841H96.9254L88.3086 239.899H83.7951H81.8803L80.239 241.271V242.643L78.5977 243.741L74.221 241.271L71.0752 242.643V248.542L72.0326 251.423L74.221 255.265L76.8197 257.734V260.341L80.239 261.438L89.4028 266.103L99.5241 270.081Z" stroke="black"/>
<path d="M167.637 248.542L169.689 250.874V252.246L170.92 253.344H175.023L177.758 252.246L178.989 252.658H181.041V252.246L180.22 251.423V250.189C181.634 249 184.542 246.539 184.871 246.21C185.199 245.881 186.284 244.975 186.785 244.564H187.743L188.7 242.917H191.436L193.351 243.741L193.898 246.21L193.351 247.445L191.983 248.542V249.091H194.992L198.548 248.542L203.745 250.874L206.481 251.423H210.721L214.277 252.658L216.329 254.03H217.833V252.246L217.012 250.874L215.098 248.542V247.445L216.329 246.21L217.559 247.033L221.526 247.445H225.082L226.723 247.993H228.501L231.374 248.542H233.425L235.066 250.189V252.658L237.255 255.127H239.443L241.495 256.637L246.008 258.283L250.932 260.478H252.984L255.172 262.399L255.856 263.77L257.224 264.319L259.822 265.005L262.968 268.023H265.02L266.114 269.121H267.892L269.397 270.63L269.944 269.121V265.005V262.399L271.722 261.164L272.269 259.518L271.038 258.283L269.397 255.676V255.127L269.944 254.03L268.849 252.658L263.515 252.246L262.011 249.365V245.25L261.053 243.055V241.683L258.181 239.762H256.403L255.172 237.978L253.941 237.293L252.984 235.509L249.838 233.863H246.555L245.188 235.509H243.273L242.452 234.96H241.495L236.708 235.509L229.869 231.393H227.817L226.723 229.61L222.073 227.552L215.098 226.18H210.721L209.49 228.924L203.745 232.079V233.04H200.052L199.779 233.451L197.591 232.079L196.633 230.159L197.18 227.14L196.36 226.592L194.445 227.552L188.7 229.61H184.871H181.725L180.767 228.512L179.536 228.924H175.707L174.202 228.512L173.245 228.924H171.604H170.92L169.689 230.159L167.637 229.61H163.944L161.072 228.924L159.294 230.845V232.079L158.2 233.451L158.747 234.411V235.235L157.379 236.195L158.747 237.841L160.115 237.155H161.072L161.893 238.527V240.036L160.115 241.957L162.303 243.192L163.944 242.917L165.449 244.564L166.817 247.445L167.637 248.542Z" stroke="black"/>
<path d="M133.581 248.405H135.085L136.59 249.091L137.41 249.503V248.817L137 248.405L135.632 246.759L135.085 246.073H133.854L132.76 247.445V248.131L133.034 248.405H133.581Z" stroke="black"/>
<path d="M142.061 244.838L143.975 244.564V243.192L143.702 242.231L142.881 241.683H141.377L139.735 243.192L138.778 243.741V244.289L139.735 245.112H141.787L142.061 244.838Z" stroke="black"/>
<path d="M156.285 240.036L155.464 243.741L154.917 247.445V249.091L153.413 250.189H152.045L151.498 252.246L150.404 254.167L149.857 255.265L150.404 256.499C150.221 257.048 149.857 257.981 149.857 257.322C149.857 256.664 149.218 255.676 148.899 255.265L150.404 252.246L150.951 250.189L150.404 247.445L147.942 244.564V241.957L151.498 240.036L152.866 239.488V238.664L154.917 238.253H157.516V239.076L157.379 239.488L156.285 240.036Z" stroke="black"/>
<path d="M148.899 235.921L150.13 235.646L151.498 234.411V233.451L152.592 232.491V232.079H151.224L149.857 232.491L148.899 233.726L148.215 234V234.686L147.942 235.235V235.646L148.899 235.921Z" stroke="black"/>
</g>
<g id="Vector 67">
<path d="M152.592 266.789L154.917 264.868L156.558 264.319L157.242 263.359L159.157 262.399C159.75 261.987 161.017 261.109 161.345 260.889C161.674 260.67 162.759 260.615 163.26 260.615L163.807 260.203L166.816 260.889L167.227 260.203L165.722 259.38V258.42L166.816 256.911V256.225H165.722L164.354 255.676L161.345 258.008L160.525 259.38L154.233 260.203L152.182 261.438L149.993 263.77V265.417L150.814 266.789H152.592Z" fill="white"/>
<path d="M159.841 265.417H162.85L164.354 263.77L164.765 262.947L163.671 261.713L162.44 262.399L160.525 263.359L159.841 264.319L159.431 265.005L159.841 265.417Z" fill="white"/>
<path d="M171.33 260.203H173.792L174.749 259.38H175.98V258.42L173.792 256.911H170.783V257.597V259.38V260.203H171.33Z" fill="white"/>
<path d="M177.758 257.597L178.305 258.42H179.81L180.494 258.008L181.588 258.42L182.272 259.38H182.956V257.597V256.225L181.861 256.088V257.597L181.177 257.871L180.494 257.597L179.126 257.322L177.895 256.088L176.801 255.539L176.39 256.088V256.911H177.348L177.758 257.597Z" fill="white"/>
<path d="M152.592 266.789L154.917 264.868L156.558 264.319L157.242 263.359L159.157 262.399C159.75 261.987 161.017 261.109 161.345 260.889C161.674 260.67 162.759 260.615 163.26 260.615L163.807 260.203L166.816 260.889L167.227 260.203L165.722 259.38V258.42L166.816 256.911V256.225H165.722L164.354 255.676L161.345 258.008L160.525 259.38L154.233 260.203L152.182 261.438L149.993 263.77V265.417L150.814 266.789H152.592Z" stroke="black"/>
<path d="M159.841 265.417H162.85L164.354 263.77L164.765 262.947L163.671 261.713L162.44 262.399L160.525 263.359L159.841 264.319L159.431 265.005L159.841 265.417Z" stroke="black"/>
<path d="M171.33 260.203H173.792L174.749 259.38H175.98V258.42L173.792 256.911H170.783V257.597V259.38V260.203H171.33Z" stroke="black"/>
<path d="M177.758 257.597L178.305 258.42H179.81L180.494 258.008L181.588 258.42L182.272 259.38H182.956V257.597V256.225L181.861 256.088V257.597L181.177 257.871L180.494 257.597L179.126 257.322L177.895 256.088L176.801 255.539L176.39 256.088V256.911H177.348L177.758 257.597Z" stroke="black"/>
</g>
<path id="Vector 57" d="M135.359 46.322L134.402 47.8311V49.7518L133.444 51.6724L132.487 52.6328L131.94 55.1022L130.162 57.5717L129.204 59.218V60.8643L130.162 62.099V63.4709V64.294L128.521 65.3916V66.2147H130.162L131.256 65.3916H131.94L133.034 66.4891L132.76 68.547L133.308 69.2329V71.0164L132.76 71.8396L132.487 72.114V72.5255L132.76 73.0743L133.308 73.8974H134.128L134.812 73.3487H135.769V73.6231L137 73.8974H138.505V72.7999L137.548 72.5255V71.8396L137.274 70.6048L137.548 68.8214L138.779 67.5866L139.736 66.7635L141.24 66.2147V64.98H141.788V65.3916H143.018L144.249 64.294L145.207 63.4709L145.891 62.099L147.258 61.6874L149.037 61.413L149.31 60.1783L149.857 58.9436L151.635 57.1601L151.909 55.9254L152.593 55.1022V54.0047L152.182 53.5931L152.593 52.2212L153.14 51.2609L153.824 49.7518V47.8311V45.4988V44.2641L152.593 43.3038L152.182 42.755V40.4227L153.14 39.874L153.55 39.5996V39.0508L153.14 38.0905L152.593 36.9929L150.951 36.8558L150.131 35.8954L149.173 36.1698L148.489 36.4442H147.942V36.1698L146.985 35.8954L146.164 34.7979V32.8772V30.6821L146.711 29.859L147.942 28.6243L149.447 28.3499L149.857 27.5267L150.678 26.8408V25.6061L151.498 24.3713L152.593 23.2738L153.96 22.3135L154.918 20.9416L155.328 19.9812L155.602 19.4324V19.0209H154.644L153.96 19.4324H153.14L153.003 20.1184H152.593L152.182 19.7068L151.772 19.4324H151.498L150.951 19.9812L150.131 20.9416L148.216 22.5879L146.985 23.2738L145.48 25.1945L144.933 26.292L144.523 26.8408L143.429 27.9383L142.198 29.173L140.693 30.1334L140.009 31.5053L139.052 33.1516V34.7979L137.821 35.4838L135.906 37.5417L135.496 38.9136V39.5996L136.317 40.4227V41.3831L135.906 41.7946L134.949 42.3434V43.0294V44.5385L133.991 45.2244V45.4988L134.539 45.636H134.949L135.359 46.322Z" fill="white" stroke="black"/>
<g id="Vector 68">
<path d="M9.2535 192.431L12.2625 193.528L19.1012 190.236L23.0676 188.864L24.7089 190.236H29.3592V188.864H32.3682L34.6933 187.766H37.8391L40.301 188.864H42.2159L41.8056 184.474C41.4864 184.748 40.7934 185.297 40.5746 185.297H39.8907V185.023L39.754 184.337L40.5746 183.651V182.69L38.9333 182.553V183.925L37.8391 185.023H36.4714L36.0611 184.474V183.925L36.4714 183.376V182.279L36.0611 181.867H35.2404L34.5566 182.004L34.1462 181.044H33.7359V182.279V182.69V183.376L32.9153 183.925L31.8211 184.337H30.1798L29.3592 183.651L28.9489 183.376V182.69L28.265 182.279L27.034 181.867L24.7089 181.593L23.7515 181.318L23.4779 181.044L20.8792 180.77H20.0586L18.007 180.221L16.0922 179.398C15.6363 179.26 14.615 178.986 14.1773 178.986H11.0315L9.80059 179.26L9.2535 179.946L7.47544 179.672H4.05611L3.09869 180.77V181.593L3.50901 182.004V182.827L3.09869 183.239V183.513L3.50901 183.788L2.82515 184.062L2.41483 184.337L2.00451 185.846L2.14128 187.355L2.00451 188.864L2.14128 189.413L3.50901 191.059L4.05611 192.019L4.46643 192.705V194.214H7.74899L8.56963 193.528V192.431H9.2535Z" fill="white"/>
<path d="M1.59419 194.214L2.41483 193.528V192.431H0.91032V193.117L0.5 193.528V193.803L1.04709 194.077L1.59419 194.214Z" fill="white"/>
<path d="M43.7204 187.766V186.806H44.6778L46.1823 187.766L47.1397 188.452L47.55 190.51H48.9178H52.3371L53.2945 189.961H60.1332L62.8687 189.275L63.5525 188.864H64.6467L66.4248 189.961L66.9719 190.51H67.5189L68.6131 189.687H70.6647L73.2634 188.178H77.9137L79.1447 187.629H79.9653H80.5124L81.4698 187.904L81.8802 187.218H82.8376V186.394H81.8802L79.1447 185.983H75.1783L73.537 185.708L72.306 185.297H65.7409L64.9203 185.983H62.8687H60.1332L59.1758 186.394L57.2609 186.669H55.0726L53.2945 185.983L52.6107 185.708H51.3797L50.1487 186.394H49.1913L48.2339 185.297H47.1397L46.7294 185.708H46.4558L45.772 185.297L45.2249 185.023H44.6778V185.708H43.7204L43.1733 185.983V186.806L43.0365 187.629L43.7204 187.766Z" fill="white"/>
<path d="M40.5746 185.297C40.7934 185.297 41.4864 184.748 41.8056 184.474L42.2159 188.864H40.301L37.8391 187.766H34.6933L32.3682 188.864H29.3592V190.236H24.7089L23.0676 188.864L19.1012 190.236L12.2625 193.528L9.2535 192.431H8.56963V193.528L7.74899 194.214H4.46643V192.705L4.05611 192.019L3.50901 191.059L2.14128 189.413L2.00451 188.864L2.14128 187.355L2.00451 185.846L2.41483 184.337L2.82515 184.062L3.50901 183.788L3.09869 183.513V183.239L3.50901 182.827V182.004L3.09869 181.593V180.77L4.05611 179.672H7.47544L9.2535 179.946L9.80059 179.26L11.0315 178.986M40.5746 185.297C40.3558 185.297 40.0275 185.297 39.8907 185.297M40.5746 185.297H39.8907M39.8907 185.297V185.023L39.754 184.337L40.5746 183.651V182.69L38.9333 182.553V183.925L37.8391 185.023H36.4714L36.0611 184.474V183.925L36.4714 183.376V182.279L36.0611 181.867H35.2404L34.5566 182.004L34.1462 181.044H33.7359V182.279V182.69V183.376L32.9153 183.925L31.8211 184.337H30.1798L29.3592 183.651L28.9489 183.376V182.69L28.265 182.279L27.034 181.867L24.7089 181.593L23.7515 181.318L23.4779 181.044L20.8792 180.77H20.0586L18.007 180.221L16.0922 179.398C15.6363 179.26 14.615 178.986 14.1773 178.986M14.1773 178.986C13.7397 178.986 11.8978 178.986 11.0315 178.986M14.1773 178.986H11.0315M1.59419 194.214L2.41483 193.528V192.431H0.91032V193.117L0.5 193.528V193.803L1.04709 194.077L1.59419 194.214ZM43.7204 187.766V186.806H44.6778L46.1823 187.766L47.1397 188.452L47.55 190.51H48.9178H52.3371L53.2945 189.961H60.1332L62.8687 189.275L63.5525 188.864H64.6467L66.4248 189.961L66.9719 190.51H67.5189L68.6131 189.687H70.6647L73.2634 188.178H77.9137L79.1447 187.629H79.9653H80.5124L81.4698 187.904L81.8802 187.218H82.8376V186.394H81.8802L79.1447 185.983H75.1783L73.537 185.708L72.306 185.297H65.7409L64.9203 185.983H62.8687H60.1332L59.1758 186.394L57.2609 186.669H55.0726L53.2945 185.983L52.6107 185.708H51.3797L50.1487 186.394H49.1913L48.2339 185.297H47.1397L46.7294 185.708H46.4558L45.772 185.297L45.2249 185.023H44.6778V185.708H43.7204L43.1733 185.983V186.806L43.0365 187.629L43.7204 187.766Z" stroke="black"/>
</g>
<path id="Vector 69" d="M66.0142 198.467V200.799V201.348V202.308L67.382 204.641L68.7497 206.699V209.168L70.6645 212.186L71.8955 212.872H72.7161L73.1264 212.186L72.7161 210.266L71.0748 207.11L70.2542 204.641L68.7497 201.348L68.2026 200.251V198.467L69.2968 196.135L69.8439 194.351L67.7923 192.705H66.5613L65.1936 195.037L64.6465 195.723V197.781L66.0142 198.467Z" fill="white" stroke="black"/>
<path id="Vector 70" d="M232.33 192.568L240.126 193.94L241.22 195.312H246.691L246.828 194.489L245.05 193.117H246.828L249.7 192.568L250.795 190.647L249.974 190.099V189.413L252.573 188.452L253.53 186.669H254.351V185.297L252.573 183.102H250.795L249.974 182.004L251.615 180.358L250.795 179.535L247.922 180.358L247.375 181.455L245.05 182.004H238.485L234.245 183.788H232.33L229.048 186.669H224.944V188.452L227.133 190.099L229.731 191.333L232.33 192.568Z" fill="white" stroke="black"/>
<path id="Vector 71" d="M163.671 142.767L165.449 144.414L164.902 145.374V146.197H165.722L166.27 145.374L167.501 146.197H168.458V145.374L165.722 142.767L164.355 141.121H163.671V142.767Z" fill="white" stroke="black"/>
</g>
</svg>
