<svg width="1357" height="429" viewBox="0 0 1357 429" fill="none" xmlns="http://www.w3.org/2000/svg">
<path d="M2.5 308.446V300.185L7.08967 291.618L14.1272 296.207L18.4108 300.185L31.5679 308.446L38.2994 312.118H49.0086L52.6803 308.752L57.27 300.185L67.9792 296.207H77.7705L93.9873 304.775H98.271L103.779 309.058H115.712V300.185C116.018 300.491 115.712 300.797 115.712 293.147C118.649 277.726 122.953 278.766 119.995 277.849V271.117V266.221V250.005L124.279 246.027V234.706V223.384L123.361 211.757L119.995 202.272V194.623L107.756 182.689V161.271L111.734 152.704L116.324 149.032L128.257 144.748L141.108 131.897L153.959 123.636L166.198 119.352L178.437 98.8516L191.594 85.6945L203.833 76.5152L224.946 65.5H262.887L272.066 68.8658L289.201 73.1494L313.985 81.1049L351.621 93.6499L362.942 98.2396L377.629 115.986L385.278 119.658V144.442L380.382 162.189L360.494 182.689V186.667L363.86 187.891V194.623L359.27 195.235L360.494 215.735L344.277 231.34V246.333L322.553 277.543L317.657 283.662L313.067 297.431L295.933 309.67L292.261 315.79L284.917 325.581L276.962 329.865H266.559H255.85L254.014 338.432L246.976 342.716L244.834 358.933L241.469 363.522H233.819V358.933H229.841V363.522H214.237L205.057 355.873H195.878V358.933L157.325 363.522L153.347 346.082H149.981H119.995L115.1 338.432H105.003L103.473 341.186H93.9873L90.3156 342.104L86.3379 342.716L82.3602 350.977L78.0765 349.753H73.7928L65.8374 346.082L52.9863 333.536L23.3065 325.581L19.0228 324.663L6.47771 320.685V317.32L10.7614 317.014L6.47771 312.424L2.5 308.446Z" stroke="black" stroke-width="5"/>
<path d="M280.328 367.5V359.851L285.53 349.447H288.896L293.179 356.179V359.851L288.896 363.522L280.328 367.5Z" stroke="black" stroke-width="5"/>
<path d="M354.063 381.098L351.5 376.338V362.79L359.189 357.664V354.735L356.992 346.68V333.498L369.441 317.022L384.82 308.966L382.989 303.108L372.737 285.899V263.93L369.441 261.367V247.087H365.047V237.201L369.441 228.78L372.737 213.768L400.93 190.334L423.631 186.673L442.671 182.279L451.092 177.519L466.837 180.082L470.864 165.07L482.215 153.719L497.227 146.763L506.015 133.215L509.676 127.723H526.153L534.574 137.975L558.008 140.538L574.484 149.326L598.65 156.282L615.493 167.267H629.773L635.265 153.719L638.194 143.101H688.723L685.794 156.282L688.723 169.464L693.117 179.35L701.538 184.11H708.129L710.326 174.224V167.267L708.129 161.775L705.199 156.282L708.129 153.719L712.522 156.282L717.282 159.578L715.818 166.535L713.621 174.224L713.987 180.082V184.11L711.424 188.503L710.326 191.066L715.818 194.362L722.042 202.051L737.054 207.177L756.46 212.303L765.248 219.26L771.106 244.89L781.725 272.718L796.37 275.281L818.706 263.93L837.379 275.281L853.49 280.407L872.529 272.718L895.963 244.89H942.83L954.547 253.312L979.811 244.89L991.161 233.174L992.26 212.303L968.094 194.362L954.547 191.066L920.495 161.775L905.849 149.326L863.742 153.719L802.961 114.175L756.46 67.3083V41.3117L781.725 20.4413H802.961L837.379 2.5H846.533L858.982 12.386L881.683 7.62608L891.569 10.5553L914.27 12.386L929.282 20.4413V50.0993L953.082 83.785L960.771 88.5449V105.388L993.725 123.329H1010.2L1038.76 96.9663L1061.83 74.9974H1090.75L1120.78 80.8558L1150.44 96.9663L1158.49 114.175V153.719L1150.44 166.535V180.082L1142.01 202.051H1150.44L1165.81 184.11L1178.26 157.747V127.723L1182.66 114.175L1213.05 86.348H1261.75L1287.01 96.9663V123.695L1302.39 149.326V180.082L1294.33 194.362V216.697L1302.39 233.174L1314.1 239.032H1329.12L1334.97 233.174H1348.16L1354.01 244.89V259.536L1334.97 266.859H1314.1L1281.52 272.718L1261.75 253.312L1250.76 244.89H1239.41L1226.96 259.536L1197.67 249.284H1186.32L1158.49 280.407L1172.04 283.702L1173.87 292.49L1150.8 297.616L1117.12 314.825L1075.01 330.569H1044.62L1032.17 311.896V295.785L1050.48 272.718V233.174L1038.76 216.697H1024.85V233.174L1026.68 249.284H1015.69L1004.71 259.536L979.811 285.533L942.83 319.951L920.495 330.569L905.849 311.896L896.695 317.388L868.868 319.951L857.883 337.892L840.308 340.089L818.706 353.27L796.37 337.892L775.866 353.27L756.46 347.412H737.054L717.282 363.522L693.117 377.802L663.092 389.519L629.773 402.7H574.484L548.488 389.519H534.574L518.83 410.756L504.184 422.106L478.187 426.5H466.837L434.616 402.7L423.631 410.756H414.111L397.269 402.7L377.863 398.307L356.992 387.322L354.063 381.098Z" stroke="black" stroke-width="5"/>
<path d="M677.738 122.597L694.215 100.994L700.805 79.3912L707.03 73.899L710.325 61.8161L737.42 41.6779V32.5242H704.101L691.652 27.7643L683.963 32.5242L671.514 36.5518L665.289 41.6779V69.1391L671.514 73.899V87.8126L667.486 98.7971L659.431 105.754V111.978L667.486 117.105L677.738 122.597Z" stroke="black" stroke-width="5"/>
<path d="M1195.47 295.419L1222.2 311.163L1240.14 315.923H1261.75L1265.77 311.163V302.009L1249.66 290.659L1225.5 289.194L1195.47 290.659V295.419Z" stroke="black" stroke-width="5"/>
<path d="M1317.77 67.6744L1330.58 62.9145L1337.54 51.5639V38.0164L1328.02 25.2012H1310.08L1297.99 35.4533V60.3514L1307.51 67.6744H1317.77Z" stroke="black" stroke-width="5"/>
</svg>
