<svg width="257" height="154" viewBox="0 0 257 154" fill="none" xmlns="http://www.w3.org/2000/svg">
<g id="NTT">
<g id="Vector 32">
<path d="M0.640006 95.559L1.74587 93.3988L4.78698 90.8629H7.64378L10.2241 88.6087L11.4221 89.3601H12.2515L14.2789 88.4209H15.3848L16.3985 88.9844H18.1494L18.7945 89.3601L19.2553 88.9844L20.9141 88.6087L21.2827 88.2331L22.1121 88.0452L23.9552 88.9844H25.1532L26.9963 87.5756L27.8257 87.2938H28.7473L30.6825 88.6087L31.7884 88.9844L34.7373 89.3601L36.0275 89.6419L40.9117 85.3215H41.6489L45.3351 89.6419L46.2567 91.0507L48.2841 93.0231L49.4821 93.3048H50.1272L50.6801 92.8352H51.9703L53.0761 94.0562L53.4448 95.0893V98.4705L53.9977 98.8462V99.9733H55.7486L56.8545 101.57H57.4074L59.3427 99.9733L60.6328 99.5037H63.0289L64.6877 102.697H65.7935L66.7151 103.261L67.6366 104.388L68.2817 105.796L68.9268 106.83L69.7562 109.084L71.3228 110.962L74.1796 111.995L76.9443 114.437L77.5894 116.41L76.9443 118.476L76.207 119.697L75.009 120.166L73.6267 121.481L71.8757 123.829H69.7562L68.9268 124.863L67.0837 124.205H65.7935L63.5818 125.52L63.0289 127.774L58.8819 124.863L55.2879 125.05L53.0761 124.863L51.9703 123.829H50.1272L48.2841 122.045L45.3351 119.697V117.818L42.847 115.001V113.874L41.9254 112.934H40.8195V111.995L38.2392 110.962H36.0275L31.7884 108.52V105.796L28.1943 104.388H25.1532L22.3886 103.824L20.9141 103.261L19.6239 104.669V105.796L16.9514 104.388L15.0162 103.261H8.93395L5.89284 101.852L4.04974 100.443L3.22034 98.2827L1.10078 96.4982L0.547852 96.4043L0.640006 95.559Z" fill="white"/>
<path d="M114.82 139.42L117.585 140.36H120.441L123.667 137.542L125.233 136.978V134.067H123.667L122.561 133.222L120.441 134.067V135.851L115.557 138.293L114.82 139.42Z" fill="white"/>
<path d="M109.106 141.581L109.751 141.205V140.641L108.369 140.735L107.816 141.205V141.581H109.106Z" fill="white"/>
<path d="M20.3612 58.0842L19.3475 56.2057V54.4212L20.3612 53.7638L21.5592 51.7914L22.0199 50.9461H23.218L24.5081 51.7914H25.1532V53.2002L25.8905 53.7638V55.1726L24.5081 53.7638H23.218L22.7572 55.1726H21.5592V57.051L20.3612 58.0842Z" fill="white"/>
<path d="M19.7161 60.0565L20.8219 60.9957V59.493H19.9004L19.7161 60.0565Z" fill="white"/>
<path d="M29.761 60.6201L29.0237 61.935V62.4985L30.7747 62.6863L31.3276 63.062H32.0648V61.935L31.5119 61.3714L31.0511 60.6201H29.761Z" fill="white"/>
<path d="M33.0785 58.5538L34.6452 57.7085L35.3824 57.3328V56.5814H34.1844L33.1707 56.9571L32.7099 57.9902V58.5538H33.0785Z" fill="white"/>
<path d="M36.5804 54.9847L36.3961 54.2334L37.2255 53.2942L38.4235 52.9185L39.1608 51.8853L39.6215 50.3826H40.8195L41.3725 49.6312L42.847 49.2555H43.3077L43.7685 49.6312L44.3214 49.2555L45.0587 48.8798V47.5649L45.5194 46.8136H45.7959L47.1782 47.5649L47.639 48.4102V48.8798H48.837L49.4821 47.9406V45.9683H50.7723L51.3252 45.029L52.2468 43.3384L54.7349 42.1175H58.2368L58.5133 42.4931H59.8956L60.0799 42.1175L61.0936 41.46L61.3701 40.7086H62.1995V41.8357L62.8446 42.4931H64.5955L65.1484 41.8357H65.8857L66.8994 42.8688H68.5582L69.0189 41.46H69.8483L70.6777 42.1175L71.7836 43.8081L72.8895 44.1837L74.2718 44.7473H77.958L79.5246 45.3108L80.0775 46.0622H80.5383L80.8148 45.6865H82.2893L83.4873 46.0622L86.4362 48.2224H87.8185L89.3852 48.5981L92.9792 49.4434L94.638 50.5704H96.4811L97.2183 51.3218L99.1536 54.5151L101.181 54.8908L101.918 55.3604L102.563 55.1726L103.485 54.5151H104.038L104.959 55.5483V57.1449H105.789L107.448 55.5483L110.12 54.5151H111.042L110.489 53.482V51.3218H111.042V52.1671H112.147V53.482H112.977L113.438 52.6367L114.912 51.7914H115.926L117.308 52.1671L118.23 52.6367L119.52 51.7914H120.718H123.114L123.943 50.9461L125.418 50.1008H126.155V52.8245H126.616L129.012 53.3881L131.592 53.6698L132.422 54.1394L134.08 56.1118L135.923 57.3328L137.49 57.7085L138.688 57.8963L139.978 56.9571L141.453 56.4875H145.508L146.245 56.1118L147.535 53.9516V52.4489L146.245 51.4157V50.9461L146.706 50.5704H148.641L149.747 48.9738L150.945 47.7528L152.051 46.9075H152.603L154.078 47.0953L155.552 46.25L157.764 45.9683L158.409 44.6533L159.699 43.3384L160.344 43.0567H161.542H162.188L163.109 42.2114L163.478 40.8965L163.846 39.7694L164.307 39.2998L165.137 39.018L165.874 39.7694L166.242 41.3661L166.98 42.2114L167.348 42.681V43.3384L166.427 44.1837L165.874 44.6533H165.505L164.584 43.7141H163.478L162.372 45.2169L161.911 46.25V47.3771L162.188 48.4102L161.542 48.9738L160.621 48.5981L159.423 47.7528H158.041V50.5704L159.884 52.9185L160.344 53.2002V54.6091L159.699 55.1726L158.317 55.6422H155.829L155.368 56.2997L152.788 56.5814L152.327 57.051L151.221 57.3328L150.115 57.7085L149.102 58.272L147.719 59.8687L146.982 60.2444L145.692 60.5261L142.835 61.4653L141.453 61.7471L140.715 61.4653L139.241 61.2775H138.043V61.7471H137.121L136.753 61.2775H134.08L133.251 60.9018H130.578L129.657 61.2775L129.012 61.7471L128.551 62.5924L126.984 63.7195L125.418 64.5648L123.759 64.9405L120.718 65.2222L118.23 66.9128L117.492 67.2885L116.663 67.3824L115.281 66.9128L113.991 66.0675H111.687L110.304 65.2222L109.844 64.9405L109.106 64.0952L108.277 63.7195H107.448L106.895 64.0952H105.789L105.512 63.7195H104.775L104.222 63.3438H100.628L99.4301 64.6587V67.946L98.5085 68.4156H96.9419L96.4811 68.2277L95.7439 67.946L92.5184 67.7581H90.8597L88.3715 68.8852L85.5147 70.2001H84.8696L83.3951 69.4487H82.6579L80.9991 68.4156L79.3403 66.1614L78.4187 64.6587H76.76L75.4698 65.0344L75.2855 66.4432H74.9169H72.9816L71.7836 65.8797L70.6777 65.6918L69.3876 64.6587L68.2817 63.3438H66.3465H65.1484H61.5544L60.8172 63.8134H60.3564L59.527 63.3438L57.6839 64.6587L57.0388 65.0344H55.7486L53.8134 64.6587L52.0624 63.6255L51.4174 62.4046L49.5743 61.7471L48.837 62.7803L46.2567 63.6255L43.5842 64.6587H41.5568L40.9117 65.0344H40.4509L39.4372 63.6255L37.502 63.3438L36.5804 62.4046V54.9847Z" fill="white"/>
<path d="M167.717 45.7804L168.546 44.1837L169.283 43.3384L170.481 42.5871L171.219 42.2114L172.417 41.3661L172.878 40.9904H177.854L179.421 41.3661L179.513 42.1175L179.052 42.5871V45.2169L178.683 45.7804V46.1561H176.287V45.7804H173.615V46.1561H171.68V46.5318H168.823H167.717V45.7804Z" fill="white"/>
<path d="M163.478 55.6422L164.584 54.1394L164.952 53.3881L165.413 52.9185L165.782 51.7914L166.15 51.3218L166.519 50.9461L167.256 50.1947L167.348 49.7251L166.98 49.3494H166.15L165.782 49.7251L165.321 50.9461L164.584 51.6975L163.846 52.1671L163.017 52.5428L162.648 53.0124L162.464 53.3881V53.6698L162.556 53.7638V54.5151L162.372 54.6091V54.7969L162.556 54.9847L162.648 55.3604L163.017 55.7361H163.478V55.6422Z" fill="white"/>
<path d="M168.454 50.0069L168.915 50.2887L169.283 50.4765L169.652 50.6643L170.113 50.2887L170.389 50.1947L170.85 49.7251H171.219H171.68L171.864 49.3494H172.601V48.9738H171.68H171.219H170.574L170.113 49.0677L169.744 48.9738H169.191L168.915 49.0677L168.454 49.3494L168.178 49.4434V49.819L168.454 50.0069Z" fill="white"/>
<path d="M163.478 37.5153L163.846 37.891H165.505V36.1065L163.846 35.0733L162.188 34.228L161.911 33.7584H161.542L160.621 34.6976L159.423 35.0733L158.594 35.449L158.409 35.8247V36.1065H159.146V36.8578L158.686 36.9518L157.764 37.891L157.488 39.018V39.2998H158.409L158.686 38.7363L159.423 38.1727L160.344 37.891L160.621 37.5153H163.478Z" fill="white"/>
<path d="M176.84 52.1671L178.683 50.4765L179.881 49.4434L181.356 47.3771L183.107 46.5318L185.226 46.25L186.056 45.2169H186.793L187.254 45.7804L188.728 46.25H190.11L190.848 45.7804L191.585 44.6533L192.23 43.7141L193.336 42.681L193.612 41.8357L195.455 41.3661L196.561 40.6147V39.8633L198.497 37.9849H199.602L201.538 39.8633L202.551 40.1451V39.8633H203.473L203.934 40.1451V40.6147L202.92 40.9904L201.538 41.3661H201.169L199.05 40.9904L198.681 41.6479L196.561 43.7141L196.285 45.2169L195.087 47.0953L194.626 47.3771L194.073 47.0953H192.23L189.558 49.3494L189.281 49.7251V50.4765L190.387 51.8853V52.7306L189.558 53.482L188.544 53.5759L188.083 51.8853H187.53H186.424L185.226 52.7306L184.028 54.2334H182.462L181.356 52.7306L180.526 52.1671H179.513L178.683 52.7306H177.485L176.84 52.1671Z" fill="white"/>
<path d="M187.254 44.1837L188.544 42.681V41.8357L188.728 41.3661V40.9904H187.254L186.424 41.8357L186.056 42.1175L185.226 42.3053V42.5871L185.779 43.0567L186.424 43.7141L186.793 44.1837H187.254Z" fill="white"/>
<path d="M206.145 47.3771V46.1561L207.159 45.2169L207.712 44.6533L209.832 43.4324H210.938V45.7804L211.398 46.6257H213.149V45.4986L214.071 44.1837L215.453 42.4931L217.112 40.6147L218.955 37.9849L220.614 38.1727V40.1451L219.692 40.9904L219.969 43.7141L217.757 45.2169L216.098 47.5649L215.914 50.1947H214.992L214.624 51.2279L213.149 52.6367L210.753 52.7306V51.7914V50.1947L209.832 48.7859L209.002 47.3771H207.343L206.514 48.1285H206.145V47.3771Z" fill="white"/>
<path d="M224.945 40.9904L225.959 40.6147L226.88 40.1451L227.433 39.5816L228.539 39.3937L229.461 39.018H231.212L231.58 39.3937V39.7694L229.461 41.3661L228.539 41.6479H227.249L225.959 42.9628L224.945 43.4324L224.3 44.1837L222.457 46.6257L222.088 47.0953V48.0345L222.733 48.5041H224.484L224.945 48.3163L225.498 48.7859H225.959L226.512 48.5041L227.433 47.5649L228.263 47.3771H229.092L229.461 47.7528L230.566 48.5041H230.843L231.212 48.3163L232.041 48.0345L233.239 47.3771L234.621 46.6257H237.017L237.57 46.8136H240.98L241.809 46.4379L242.639 46.25L243.652 45.7804L245.311 45.4047L246.509 44.9351H248.445H249.458L251.025 44.7473H252.131H252.684L253.974 44.0898V42.9628H253.513V42.3992L253.974 42.0235L254.25 41.3661V40.5208L253.974 39.7694L253.513 39.3937L253.144 38.8302L252.684 37.7971H251.394L251.025 37.3275H250.38L249.735 37.7971H248.629L247.707 37.3275H246.878L246.233 38.0788H241.256L240.243 37.5153L238.308 37.3275L237.57 37.7971H235.819L234.806 38.0788L233.608 39.018L232.87 39.3937H232.41L232.041 38.8302L231.857 37.3275L231.58 36.2004H229.092L228.078 36.5761L227.802 36.2004H227.433L224.945 39.3937L224.484 39.7694L224.945 40.9904Z" fill="white"/>
<path d="M0.640006 95.559L1.74587 93.3988L4.78698 90.8629H7.64378L10.2241 88.6087L11.4221 89.3601H12.2515L14.2789 88.4209H15.3848L16.3985 88.9844H18.1494L18.7945 89.3601L19.2553 88.9844L20.9141 88.6087L21.2827 88.2331L22.1121 88.0452L23.9552 88.9844H25.1532L26.9963 87.5756L27.8257 87.2938H28.7473L30.6825 88.6087L31.7884 88.9844L34.7373 89.3601L36.0275 89.6419L40.9117 85.3215H41.6489L45.3351 89.6419L46.2567 91.0507L48.2841 93.0231L49.4821 93.3048H50.1272L50.6801 92.8352H51.9703L53.0761 94.0562L53.4448 95.0893V98.4705L53.9977 98.8462V99.9733H55.7486L56.8545 101.57H57.4074L59.3427 99.9733L60.6328 99.5037H63.0289L64.6877 102.697H65.7935L66.7151 103.261L67.6366 104.388L68.2817 105.796L68.9268 106.83L69.7562 109.084L71.3228 110.962L74.1796 111.995L76.9443 114.437L77.5894 116.41L76.9443 118.476L76.207 119.697L75.009 120.166L73.6267 121.481L71.8757 123.829H69.7562L68.9268 124.863L67.0837 124.205H65.7935L63.5818 125.52L63.0289 127.774L58.8819 124.863L55.2879 125.05L53.0761 124.863L51.9703 123.829H50.1272L48.2841 122.045L45.3351 119.697V117.818L42.847 115.001V113.874L41.9254 112.934H40.8195V111.995L38.2392 110.962H36.0275L31.7884 108.52V105.796L28.1943 104.388H25.1532L22.3886 103.824L20.9141 103.261L19.6239 104.669V105.796L16.9514 104.388L15.0162 103.261H8.93395L5.89284 101.852L4.04974 100.443L3.22034 98.2827L1.10078 96.4982L0.547852 96.4043L0.640006 95.559Z" stroke="black"/>
<path d="M114.82 139.42L117.585 140.36H120.441L123.667 137.542L125.233 136.978V134.067H123.667L122.561 133.222L120.441 134.067V135.851L115.557 138.293L114.82 139.42Z" stroke="black"/>
<path d="M109.106 141.581L109.751 141.205V140.641L108.369 140.735L107.816 141.205V141.581H109.106Z" stroke="black"/>
<path d="M20.3612 58.0842L19.3475 56.2057V54.4212L20.3612 53.7638L21.5592 51.7914L22.0199 50.9461H23.218L24.5081 51.7914H25.1532V53.2002L25.8905 53.7638V55.1726L24.5081 53.7638H23.218L22.7572 55.1726H21.5592V57.051L20.3612 58.0842Z" stroke="black"/>
<path d="M19.7161 60.0565L20.8219 60.9957V59.493H19.9004L19.7161 60.0565Z" stroke="black"/>
<path d="M29.761 60.6201L29.0237 61.935V62.4985L30.7747 62.6863L31.3276 63.062H32.0648V61.935L31.5119 61.3714L31.0511 60.6201H29.761Z" stroke="black"/>
<path d="M33.0785 58.5538L34.6452 57.7085L35.3824 57.3328V56.5814H34.1844L33.1707 56.9571L32.7099 57.9902V58.5538H33.0785Z" stroke="black"/>
<path d="M36.5804 54.9847L36.3961 54.2334L37.2255 53.2942L38.4235 52.9185L39.1608 51.8853L39.6215 50.3826H40.8195L41.3725 49.6312L42.847 49.2555H43.3077L43.7685 49.6312L44.3214 49.2555L45.0587 48.8798V47.5649L45.5194 46.8136H45.7959L47.1782 47.5649L47.639 48.4102V48.8798H48.837L49.4821 47.9406V45.9683H50.7723L51.3252 45.029L52.2468 43.3384L54.7349 42.1175H58.2368L58.5133 42.4931H59.8956L60.0799 42.1175L61.0936 41.46L61.3701 40.7086H62.1995V41.8357L62.8446 42.4931H64.5955L65.1484 41.8357H65.8857L66.8994 42.8688H68.5582L69.0189 41.46H69.8483L70.6777 42.1175L71.7836 43.8081L72.8895 44.1837L74.2718 44.7473H77.958L79.5246 45.3108L80.0775 46.0622H80.5383L80.8148 45.6865H82.2893L83.4873 46.0622L86.4362 48.2224H87.8185L89.3852 48.5981L92.9792 49.4434L94.638 50.5704H96.4811L97.2183 51.3218L99.1536 54.5151L101.181 54.8908L101.918 55.3604L102.563 55.1726L103.485 54.5151H104.038L104.959 55.5483V57.1449H105.789L107.448 55.5483L110.12 54.5151H111.042L110.489 53.482V51.3218H111.042V52.1671H112.147V53.482H112.977L113.438 52.6367L114.912 51.7914H115.926L117.308 52.1671L118.23 52.6367L119.52 51.7914H120.718H123.114L123.943 50.9461L125.418 50.1008H126.155V52.8245H126.616L129.012 53.3881L131.592 53.6698L132.422 54.1394L134.08 56.1118L135.923 57.3328L137.49 57.7085L138.688 57.8963L139.978 56.9571L141.453 56.4875H145.508L146.245 56.1118L147.535 53.9516V52.4489L146.245 51.4157V50.9461L146.706 50.5704H148.641L149.747 48.9738L150.945 47.7528L152.051 46.9075H152.603L154.078 47.0953L155.552 46.25L157.764 45.9683L158.409 44.6533L159.699 43.3384L160.344 43.0567H161.542H162.188L163.109 42.2114L163.478 40.8965L163.846 39.7694L164.307 39.2998L165.137 39.018L165.874 39.7694L166.242 41.3661L166.98 42.2114L167.348 42.681V43.3384L166.427 44.1837L165.874 44.6533H165.505L164.584 43.7141H163.478L162.372 45.2169L161.911 46.25V47.3771L162.188 48.4102L161.542 48.9738L160.621 48.5981L159.423 47.7528H158.041V50.5704L159.884 52.9185L160.344 53.2002V54.6091L159.699 55.1726L158.317 55.6422H155.829L155.368 56.2997L152.788 56.5814L152.327 57.051L151.221 57.3328L150.115 57.7085L149.102 58.272L147.719 59.8687L146.982 60.2444L145.692 60.5261L142.835 61.4653L141.453 61.7471L140.715 61.4653L139.241 61.2775H138.043V61.7471H137.121L136.753 61.2775H134.08L133.251 60.9018H130.578L129.657 61.2775L129.012 61.7471L128.551 62.5924L126.984 63.7195L125.418 64.5648L123.759 64.9405L120.718 65.2222L118.23 66.9128L117.492 67.2885L116.663 67.3824L115.281 66.9128L113.991 66.0675H111.687L110.304 65.2222L109.844 64.9405L109.106 64.0952L108.277 63.7195H107.448L106.895 64.0952H105.789L105.512 63.7195H104.775L104.222 63.3438H100.628L99.4301 64.6587V67.946L98.5085 68.4156H96.9419L96.4811 68.2277L95.7439 67.946L92.5184 67.7581H90.8597L88.3715 68.8852L85.5147 70.2001H84.8696L83.3951 69.4487H82.6579L80.9991 68.4156L79.3403 66.1614L78.4187 64.6587H76.76L75.4698 65.0344L75.2855 66.4432H74.9169H72.9816L71.7836 65.8797L70.6777 65.6918L69.3876 64.6587L68.2817 63.3438H66.3465H65.1484H61.5544L60.8172 63.8134H60.3564L59.527 63.3438L57.6839 64.6587L57.0388 65.0344H55.7486L53.8134 64.6587L52.0624 63.6255L51.4174 62.4046L49.5743 61.7471L48.837 62.7803L46.2567 63.6255L43.5842 64.6587H41.5568L40.9117 65.0344H40.4509L39.4372 63.6255L37.502 63.3438L36.5804 62.4046V54.9847Z" stroke="black"/>
<path d="M167.717 45.7804L168.546 44.1837L169.283 43.3384L170.481 42.5871L171.219 42.2114L172.417 41.3661L172.878 40.9904H177.854L179.421 41.3661L179.513 42.1175L179.052 42.5871V45.2169L178.683 45.7804V46.1561H176.287V45.7804H173.615V46.1561H171.68V46.5318H168.823H167.717V45.7804Z" stroke="black"/>
<path d="M163.478 55.6422L164.584 54.1394L164.952 53.3881L165.413 52.9185L165.782 51.7914L166.15 51.3218L166.519 50.9461L167.256 50.1947L167.348 49.7251L166.98 49.3494H166.15L165.782 49.7251L165.321 50.9461L164.584 51.6975L163.846 52.1671L163.017 52.5428L162.648 53.0124L162.464 53.3881V53.6698L162.556 53.7638V54.5151L162.372 54.6091V54.7969L162.556 54.9847L162.648 55.3604L163.017 55.7361H163.478V55.6422Z" stroke="black"/>
<path d="M168.454 50.0069L168.915 50.2887L169.283 50.4765L169.652 50.6643L170.113 50.2887L170.389 50.1947L170.85 49.7251H171.219H171.68L171.864 49.3494H172.601V48.9738H171.68H171.219H170.574L170.113 49.0677L169.744 48.9738H169.191L168.915 49.0677L168.454 49.3494L168.178 49.4434V49.819L168.454 50.0069Z" stroke="black"/>
<path d="M163.478 37.5153L163.846 37.891H165.505V36.1065L163.846 35.0733L162.188 34.228L161.911 33.7584H161.542L160.621 34.6976L159.423 35.0733L158.594 35.449L158.409 35.8247V36.1065H159.146V36.8578L158.686 36.9518L157.764 37.891L157.488 39.018V39.2998H158.409L158.686 38.7363L159.423 38.1727L160.344 37.891L160.621 37.5153H163.478Z" stroke="black"/>
<path d="M176.84 52.1671L178.683 50.4765L179.881 49.4434L181.356 47.3771L183.107 46.5318L185.226 46.25L186.056 45.2169H186.793L187.254 45.7804L188.728 46.25H190.11L190.848 45.7804L191.585 44.6533L192.23 43.7141L193.336 42.681L193.612 41.8357L195.455 41.3661L196.561 40.6147V39.8633L198.497 37.9849H199.602L201.538 39.8633L202.551 40.1451V39.8633H203.473L203.934 40.1451V40.6147L202.92 40.9904L201.538 41.3661H201.169L199.05 40.9904L198.681 41.6479L196.561 43.7141L196.285 45.2169L195.087 47.0953L194.626 47.3771L194.073 47.0953H192.23L189.558 49.3494L189.281 49.7251V50.4765L190.387 51.8853V52.7306L189.558 53.482L188.544 53.5759L188.083 51.8853H187.53H186.424L185.226 52.7306L184.028 54.2334H182.462L181.356 52.7306L180.526 52.1671H179.513L178.683 52.7306H177.485L176.84 52.1671Z" stroke="black"/>
<path d="M187.254 44.1837L188.544 42.681V41.8357L188.728 41.3661V40.9904H187.254L186.424 41.8357L186.056 42.1175L185.226 42.3053V42.5871L185.779 43.0567L186.424 43.7141L186.793 44.1837H187.254Z" stroke="black"/>
<path d="M206.145 47.3771V46.1561L207.159 45.2169L207.712 44.6533L209.832 43.4324H210.938V45.7804L211.398 46.6257H213.149V45.4986L214.071 44.1837L215.453 42.4931L217.112 40.6147L218.955 37.9849L220.614 38.1727V40.1451L219.692 40.9904L219.969 43.7141L217.757 45.2169L216.098 47.5649L215.914 50.1947H214.992L214.624 51.2279L213.149 52.6367L210.753 52.7306V51.7914V50.1947L209.832 48.7859L209.002 47.3771H207.343L206.514 48.1285H206.145V47.3771Z" stroke="black"/>
<path d="M224.945 40.9904L225.959 40.6147L226.88 40.1451L227.433 39.5816L228.539 39.3937L229.461 39.018H231.212L231.58 39.3937V39.7694L229.461 41.3661L228.539 41.6479H227.249L225.959 42.9628L224.945 43.4324L224.3 44.1837L222.457 46.6257L222.088 47.0953V48.0345L222.733 48.5041H224.484L224.945 48.3163L225.498 48.7859H225.959L226.512 48.5041L227.433 47.5649L228.263 47.3771H229.092L229.461 47.7528L230.566 48.5041H230.843L231.212 48.3163L232.041 48.0345L233.239 47.3771L234.621 46.6257H237.017L237.57 46.8136H240.98L241.809 46.4379L242.639 46.25L243.652 45.7804L245.311 45.4047L246.509 44.9351H248.445H249.458L251.025 44.7473H252.131H252.684L253.974 44.0898V42.9628H253.513V42.3992L253.974 42.0235L254.25 41.3661V40.5208L253.974 39.7694L253.513 39.3937L253.144 38.8302L252.684 37.7971H251.394L251.025 37.3275H250.38L249.735 37.7971H248.629L247.707 37.3275H246.878L246.233 38.0788H241.256L240.243 37.5153L238.308 37.3275L237.57 37.7971H235.819L234.806 38.0788L233.608 39.018L232.87 39.3937H232.41L232.041 38.8302L231.857 37.3275L231.58 36.2004H229.092L228.078 36.5761L227.802 36.2004H227.433L224.945 39.3937L224.484 39.7694L224.945 40.9904Z" stroke="black"/>
</g>
<g id="Vector 41">
<path d="M82.75 0.979619L84.0402 1.26138L84.9617 1.63707H86.8048V0.979619L85.699 0.697853L84.0402 0.51001L82.75 0.979619Z" fill="white"/>
<path d="M88.8322 3.23374L88.6479 3.70335L89.2008 4.3608L90.8596 3.51551L91.0439 2.76413L90.1224 1.91884H88.6479L88.8322 2.76413V3.23374Z" fill="white"/>
<path d="M191.124 116.128L191.585 111.244H193.52L195.271 108.896V106.642L194.35 105.984L195.271 104.951V101.57V99.8792L196.377 98.4704L197.391 97.3434L199.971 96.2163V94.5257H200.893L201.722 93.3986H202.92L204.21 91.2384H205.5H206.145V89.8296H206.975L207.62 88.2329L210.108 87.7633L211.583 90.6749H212.873L213.426 91.2384H214.716L215.637 89.8296L216.19 88.9843H217.48L218.955 91.2384V92.4594V93.8683L219.876 94.5257L221.351 93.8683L222.825 93.3986L223.378 92.4594V90.6749L224.116 88.2329L225.314 87.1998H226.419L227.618 85.791V83.4429V80.7192H229.461L230.382 81.5645L231.212 80.7192V81.5645H232.041V80.7192L233.884 79.5921L234.713 78.4651H235.911L237.017 77.0563V75.4596H237.755V75.9292L241.256 74.1447H243.468L244.666 72.0784H246.048V74.1447L247.247 75.4596H249.643L251.578 74.1447H252.499L253.697 72.7359H254.619L255.817 74.1447V75.9292V77.0563V78.4651V79.5921L254.342 79.2165L253.697 80.1557L252.499 79.2165L249.643 79.5921L247.892 80.7192V83.4429L248.721 85.791L250.564 87.1998V88.2329L251.578 88.9843V92.4594L248.721 95.5588L247.892 96.7798V99.8792L246.786 98.4704H245.311L243.468 97.3434L244.666 99.8792L246.048 100.443L244.666 101.57L240.335 106.642L237.939 110.117L236.096 111.15H234.99V112.277L231.119 114.719H230.106L229.276 115.752L228.908 116.034V117.912L224.116 121.199H218.033L216.19 120.73H213.426L211.583 122.327L210.108 123.641L208.449 124.675V125.52H205.5L202.92 127.68L200.893 128.995L197.391 129.465H195.824H192.967H191.585L190.018 128.525H189.281L186.793 129.465L187.714 127.68V125.52V124.675H188.544V122.89L190.018 122.327L191.585 121.669H193.52L195.824 119.979L197.391 119.415L198.404 118.476L198.865 116.597L197.391 115.752L195.824 114.719H193.52L191.124 116.128Z" fill="white"/>
<path d="M159.884 153.321L160.437 151.442L159.423 148.531H160.897L161.358 149.094V147.685L161.819 147.216H163.386L163.846 146.558H166.334L169.099 146.183L172.325 142.989H173.799L175.55 140.923H179.42L180.25 140.36H181.632L182.185 140.923H183.567L184.489 142.05L183.567 143.553L182.462 143.647L180.803 142.989L180.25 143.553L178.499 145.15L176.472 146.183V147.216V147.685L175.55 149.094H174.444L172.325 148.531L170.666 150.221L168.731 150.973H166.334L163.846 152.382V152.945H161.819L159.884 153.321Z" fill="white"/>
<path d="M177.024 139.702L178.499 138.857L178.868 138.387L179.144 137.73L178.868 137.26H177.854L177.024 138.387L176.287 139.139L176.472 139.702H177.024Z" fill="white"/>
<path d="M180.25 139.139L180.987 139.514L181.632 139.139V138.387L180.619 138.575L180.25 138.387L179.973 138.857L180.25 139.139Z" fill="white"/>
<path d="M180.711 128.15L181.264 127.398L183.015 127.21L183.66 126.741V125.802L182.646 125.05V124.299H182.093L180.25 125.802L179.881 126.553V126.741L180.25 126.929V128.15H180.711Z" fill="white"/>
<path d="M183.015 123.36H184.489L184.765 123.641H185.134V123.36H185.411L185.871 122.89V122.327H185.411V120.824H184.765L183.66 121.199V122.327L183.015 122.608V123.36Z" fill="white"/>
<path d="M82.75 0.979619L84.0402 1.26138L84.9617 1.63707H86.8048V0.979619L85.699 0.697853L84.0402 0.51001L82.75 0.979619Z" stroke="black"/>
<path d="M88.8322 3.23374L88.6479 3.70335L89.2008 4.3608L90.8596 3.51551L91.0439 2.76413L90.1224 1.91884H88.6479L88.8322 2.76413V3.23374Z" stroke="black"/>
<path d="M191.124 116.128L191.585 111.244H193.52L195.271 108.896V106.642L194.35 105.984L195.271 104.951V101.57V99.8792L196.377 98.4704L197.391 97.3434L199.971 96.2163V94.5257H200.893L201.722 93.3986H202.92L204.21 91.2384H205.5H206.145V89.8296H206.975L207.62 88.2329L210.108 87.7633L211.583 90.6749H212.873L213.426 91.2384H214.716L215.637 89.8296L216.19 88.9843H217.48L218.955 91.2384V92.4594V93.8683L219.876 94.5257L221.351 93.8683L222.825 93.3986L223.378 92.4594V90.6749L224.116 88.2329L225.314 87.1998H226.419L227.618 85.791V83.4429V80.7192H229.461L230.382 81.5645L231.212 80.7192V81.5645H232.041V80.7192L233.884 79.5921L234.713 78.4651H235.911L237.017 77.0563V75.4596H237.755V75.9292L241.256 74.1447H243.468L244.666 72.0784H246.048V74.1447L247.247 75.4596H249.643L251.578 74.1447H252.499L253.697 72.7359H254.619L255.817 74.1447V75.9292V77.0563V78.4651V79.5921L254.342 79.2165L253.697 80.1557L252.499 79.2165L249.643 79.5921L247.892 80.7192V83.4429L248.721 85.791L250.564 87.1998V88.2329L251.578 88.9843V92.4594L248.721 95.5588L247.892 96.7798V99.8792L246.786 98.4704H245.311L243.468 97.3434L244.666 99.8792L246.048 100.443L244.666 101.57L240.335 106.642L237.939 110.117L236.096 111.15H234.99V112.277L231.119 114.719H230.106L229.276 115.752L228.908 116.034V117.912L224.116 121.199H218.033L216.19 120.73H213.426L211.583 122.327L210.108 123.641L208.449 124.675V125.52H205.5L202.92 127.68L200.893 128.995L197.391 129.465H195.824H192.967H191.585L190.018 128.525H189.281L186.793 129.465L187.714 127.68V125.52V124.675H188.544V122.89L190.018 122.327L191.585 121.669H193.52L195.824 119.979L197.391 119.415L198.404 118.476L198.865 116.597L197.391 115.752L195.824 114.719H193.52L191.124 116.128Z" stroke="black"/>
<path d="M159.884 153.321L160.437 151.442L159.423 148.531H160.897L161.358 149.094V147.685L161.819 147.216H163.386L163.846 146.558H166.334L169.099 146.183L172.325 142.989H173.799L175.55 140.923H179.42L180.25 140.36H181.632L182.185 140.923H183.567L184.489 142.05L183.567 143.553L182.462 143.647L180.803 142.989L180.25 143.553L178.499 145.15L176.472 146.183V147.216V147.685L175.55 149.094H174.444L172.325 148.531L170.666 150.221L168.731 150.973H166.334L163.846 152.382V152.945H161.819L159.884 153.321Z" stroke="black"/>
<path d="M177.024 139.702L178.499 138.857L178.868 138.387L179.144 137.73L178.868 137.26H177.854L177.024 138.387L176.287 139.139L176.472 139.702H177.024Z" stroke="black"/>
<path d="M180.25 139.139L180.987 139.514L181.632 139.139V138.387L180.619 138.575L180.25 138.387L179.973 138.857L180.25 139.139Z" stroke="black"/>
<path d="M180.711 128.15L181.264 127.398L183.015 127.21L183.66 126.741V125.802L182.646 125.05V124.299H182.093L180.25 125.802L179.881 126.553V126.741L180.25 126.929V128.15H180.711Z" stroke="black"/>
<path d="M183.015 123.36H184.489L184.765 123.641H185.134V123.36H185.411L185.871 122.89V122.327H185.411V120.824H184.765L183.66 121.199V122.327L183.015 122.608V123.36Z" stroke="black"/>
</g>
</g>
</svg>
