<svg width="1273" height="1144" viewBox="0 0 1273 1144" fill="none" xmlns="http://www.w3.org/2000/svg">
<path d="M75.7472 43.7468L72.4405 32.1049L75.7472 29.1944L80.7072 24.8286H85.6673H92.2806V29.1944L88.974 36.4706V43.7468L93.934 51.023L100.547 58.2992L102.201 72.8517L110.467 84.4936L117.081 91.7698H135.268V100.501C136.921 103.412 140.558 110.106 141.881 113.598C143.204 117.091 150.148 123.785 153.454 126.696L163.374 129.606H174.948L188.175 123.785L198.095 113.598L204.708 109.233C211.322 108.263 225.21 106.322 227.855 106.322C230.5 106.322 242.184 103.412 247.695 101.957L259.269 97.5908L270.842 88.8593L280.762 78.6726L293.989 68.4859C296.744 67.5158 302.917 65.5754 305.562 65.5754C308.869 65.5754 313.829 61.2097 317.136 59.7545C319.781 58.5903 321.545 57.3291 322.096 56.844L327.056 48.1125L333.669 39.3811L340.282 32.1049L343.589 24.8286L348.549 13.1867L358.469 3H365.083L370.043 10.2762L375.003 20.4629H391.536L406.416 26.2839V39.3811C406.416 40.5453 408.621 45.6871 409.723 48.1125C411.376 50.5379 414.683 55.6798 414.683 56.844C414.683 58.2992 417.99 64.1202 419.643 65.5754C421.296 67.0307 421.296 74.3069 421.296 75.7621C421.296 76.9263 429.012 80.1279 432.87 81.5831C436.728 83.5234 444.443 87.6951 444.443 88.8593C444.443 90.0235 459.874 89.3444 467.59 88.8593H487.43L492.39 93.2251L494.044 101.957L495.697 104.867L500.657 107.777L512.23 106.322L520.497 107.777V115.054L518.844 126.696L527.11 132.517C528.764 135.427 532.401 141.539 533.724 142.703C535.377 144.159 540.337 145.614 541.991 145.614C543.313 145.614 549.155 147.554 551.911 148.524L558.524 152.89L563.484 161.621V170.353C561.831 172.293 558.524 176.465 558.524 177.629C558.524 178.793 559.626 182.965 560.177 184.905L568.444 190.726L563.484 200.913L555.217 205.279L546.951 208.189H553.564L563.484 212.555L565.137 219.831H561.831L558.524 224.197L550.257 228.563L543.644 230.018V235.839V243.115L551.911 246.026L565.137 260.578V267.854L560.177 272.22C560.177 274.16 560.508 278.332 561.831 279.496C563.153 280.66 557.973 283.862 555.217 285.317L548.604 289.683L528.764 288.228L523.804 296.959V312.967C525.457 314.907 529.094 318.788 530.417 318.788C532.07 318.788 540.337 328.974 541.991 330.43C543.313 331.594 550.257 336.736 553.564 339.161L568.444 343.527L588.284 363.9L594.898 365.355L603.164 363.9C606.471 364.385 613.415 365.355 614.738 365.355H627.964V372.632C630.72 376.512 636.562 384.565 637.885 385.729C639.207 386.893 643.947 389.124 646.151 390.095L651.111 401.737V404.647L654.418 410.468L661.031 414.834L669.298 417.744L677.565 419.199L684.178 417.744H690.792L699.058 414.834L705.672 413.379H713.938L712.285 416.289C711.734 417.259 710.301 419.491 708.978 420.655C707.656 421.819 704.018 424.05 702.365 425.02L695.752 429.386L690.792 432.297H682.525L669.298 430.841L662.685 433.752L661.031 441.028V448.304L664.338 452.67L669.298 454.125L674.258 451.215L677.565 448.304H685.832H690.792L694.098 449.76C694.649 450.73 695.752 452.961 695.752 454.125C695.752 455.29 697.956 454.61 699.058 454.125H705.672H710.632L712.285 457.036L713.938 459.946L710.632 462.857L708.978 465.767V470.133L707.325 473.043L702.365 474.499V478.864L705.672 481.775L712.285 483.23L713.938 486.141L710.632 487.596L707.325 490.506L702.365 493.417L700.712 496.327L702.365 503.604L705.672 502.148L712.285 503.604L717.245 505.059L723.859 507.969L728.819 512.335L733.779 510.88C736.534 511.365 742.707 512.044 745.352 510.88L751.965 507.969L778.419 509.425L788.339 507.969L793.299 505.059V499.238L791.646 493.417L788.339 487.596L785.032 484.685L781.726 481.775L783.379 477.409V473.043L788.339 474.499L791.646 477.409L796.606 486.141L803.219 494.872L806.526 502.148L808.179 512.335C807.628 515.731 806.195 522.813 804.872 523.977C803.55 525.141 806.526 528.343 808.179 529.798V535.619L803.219 539.985L799.912 548.716V555.992L803.219 561.813L809.832 569.09L799.912 585.097L789.992 590.918L778.419 592.373C775.112 591.403 768.168 589.463 766.846 589.463C765.523 589.463 762.988 584.612 761.885 582.187L753.619 576.366L745.352 567.634L737.085 560.358L725.512 557.448L715.592 560.358L710.632 566.179V572L713.938 577.821L720.552 580.731L723.859 582.187L725.512 586.552L728.819 592.373C730.472 593.344 734.109 595.575 735.432 596.739C736.755 597.903 738.188 601.105 738.739 602.56C740.392 603.53 744.029 605.471 745.352 605.471C747.005 605.471 751.965 606.926 753.619 606.926C754.941 606.926 753.068 611.777 751.965 614.202L750.312 618.568L742.045 620.023L738.739 617.113L737.085 611.292L732.125 609.836L720.552 602.56C717.245 600.62 710.301 596.739 708.978 596.739C707.325 596.739 707.325 590.918 705.672 589.463C704.349 588.299 697.405 585.097 694.098 583.642C690.792 583.157 683.848 582.187 682.525 582.187C680.872 582.187 677.565 585.097 675.911 586.552C674.589 587.717 664.338 593.829 659.378 596.739C657.174 599.165 652.103 604.306 649.458 605.471C646.813 606.635 646.151 603.045 646.151 601.105C643.947 599.165 638.877 595.575 636.231 596.739C633.586 597.903 619.698 596.254 613.084 595.284L606.471 601.105L591.591 606.926L571.751 611.292L563.484 615.657C561.28 616.142 556.871 616.821 556.871 615.657C556.871 614.493 551.359 612.262 548.604 611.292L541.991 608.381L537.031 606.926V612.747L528.764 620.023L518.844 624.389L513.884 628.755H508.924L503.964 625.844H497.35L495.697 627.299L492.39 631.665L484.123 634.575L479.163 636.031L477.51 640.396L475.857 644.762L472.55 643.307H469.243L467.59 644.762V652.038L462.63 654.949L464.283 657.859L469.243 660.77L464.283 668.046L457.67 669.501L456.017 675.322L454.363 701.517L459.323 707.338C459.874 709.763 461.307 714.614 462.63 714.614C463.953 714.614 464.283 719.465 464.283 721.89L472.55 724.801H479.163L482.47 729.166H489.083V734.987L484.123 737.898L479.163 739.353L475.857 742.263L467.59 748.084L457.67 750.995L452.71 756.816H431.216L422.95 753.905L408.07 755.361C405.314 753.905 399.472 750.995 398.15 750.995C396.827 750.995 392.087 747.114 389.883 745.174L378.309 737.898L370.043 736.442L345.242 737.898H336.976C335.653 737.898 336.425 739.838 336.976 740.808L330.362 743.719L322.096 740.808V733.532C322.096 731.204 318.789 729.651 317.136 729.166C313.278 727.711 305.232 724.801 303.909 724.801C302.586 724.801 302.255 719.95 302.255 717.524L295.642 714.614L292.335 717.524L284.069 718.98L275.802 717.524L267.535 711.703L260.922 704.427L254.308 697.151L241.082 684.054V669.501V656.404C241.082 655.24 242.184 651.068 242.735 649.128L247.695 637.486L251.002 625.844C252.104 622.934 254.308 616.821 254.308 615.657C254.308 614.493 258.717 607.411 260.922 604.015L262.575 599.65L260.922 588.008V572L262.575 560.358L265.882 551.627L270.842 547.261L279.109 541.44L285.722 534.164L289.029 523.977L295.642 513.79L302.255 505.059V494.872C301.153 492.932 298.949 488.76 298.949 487.596V481.775L302.255 473.043L298.949 464.312L289.029 461.402L275.802 454.125L255.962 449.76C251.553 448.789 241.743 446.849 237.775 446.849H226.202L212.975 442.483H203.055L191.481 436.662L186.521 433.752V422.11C183.215 418.229 176.271 410.468 174.948 410.468C173.295 410.468 171.641 404.647 171.641 403.192C171.641 402.028 162.823 401.737 158.414 401.737L161.721 398.826L158.414 394.46L156.761 388.639L151.801 381.363L131.961 378.453V384.274H122.041V375.542C122.041 374.378 117.632 373.117 115.427 372.632C113.774 370.206 110.137 365.064 108.814 363.9C107.161 362.445 98.894 358.079 97.2407 356.624C95.5873 355.169 97.2407 352.258 93.934 347.893C91.2886 344.4 86.2184 341.587 84.0139 340.616L77.4005 337.706L65.8271 334.795H64.1738L59.2137 331.885C58.6626 329.945 57.2297 325.773 55.907 324.609C54.5844 323.445 44.3336 316.362 39.3736 312.967L9.61338 286.772L7.96004 275.13L3 269.309V260.578C3.55112 257.182 4.98401 249.809 6.30669 247.481C7.62937 245.152 12.369 244.57 14.5734 244.57V238.749L17.8801 234.384L24.4935 227.107L31.1069 221.286L39.3736 216.921V211.1V203.824L42.6803 198.003L47.6403 195.092L52.6004 192.182L60.8671 187.816L64.1738 184.905L65.8271 179.084L70.7872 174.719L72.4405 176.174H79.0539L84.0139 173.263L85.6673 165.987H80.7072L79.0539 163.077V158.711V151.435H80.7072L84.0139 148.524L79.0539 145.614V136.882L80.7072 126.696L79.0539 117.964L80.7072 113.598L88.974 109.233L95.5873 103.412V96.1356L92.2806 91.7698V84.4936V75.7621L88.974 68.4859V61.2097V55.3887L85.6673 49.5678L84.0139 43.7468H75.7472Z" stroke="black" stroke-width="6"/>
<path d="M571.751 296.959V289.683L583.324 285.317V292.593L571.751 296.959Z" stroke="black" stroke-width="6"/>
<path d="M619.698 259.123C619.698 257.959 621.902 254.757 623.004 253.302L626.311 251.847L627.964 257.668C629.067 256.697 631.602 254.757 632.925 254.757C634.247 254.757 637.885 256.697 639.538 257.668L632.925 260.578L623.004 263.488C621.902 262.518 619.698 260.287 619.698 259.123Z" stroke="black" stroke-width="6"/>
<path d="M599.858 244.57V241.66H598.204L593.244 240.205L598.204 237.294L603.164 240.205L599.858 244.57Z" stroke="black" stroke-width="6"/>
<path d="M884.233 314.422L880.926 305.691H884.233L892.5 301.325L904.073 298.414L917.3 301.325L920.607 305.691L912.34 310.056L904.073 307.146L897.46 310.056L892.5 315.877L884.233 314.422Z" stroke="black" stroke-width="6"/>
<path d="M857.779 458.491V451.215L862.74 446.849L872.66 454.125L880.926 457.036L885.886 461.402H897.46H904.073L909.033 457.036H917.3H927.22L937.14 464.312L945.407 470.133C947.06 475.469 950.036 486.141 948.713 486.141C947.391 486.141 943.753 490.021 942.1 491.962C938.793 495.357 931.849 502.439 930.527 503.604L920.607 512.335C919.284 513.499 913.442 517.671 910.687 519.611C910.135 521.552 909.364 525.723 910.687 526.887C912.009 528.052 906.829 533.194 904.073 535.619L897.46 534.164C894.704 533.679 888.862 532.708 887.54 532.708C886.217 532.708 880.375 529.798 877.62 528.343L867.7 522.522L861.086 518.156L852.819 512.335L851.166 502.148C848.411 500.693 842.238 497.783 839.593 497.783C836.947 497.783 836.286 490.991 836.286 487.596V481.775L839.593 475.954L848.728 473.043L849.513 465.767L854.473 461.402L857.779 458.491Z" stroke="black" stroke-width="6"/>
<path d="M846.206 563.269L848.728 557.448L857.779 555.992V561.813L854.473 567.634H848.728L846.206 563.269Z" stroke="black" stroke-width="6"/>
<path d="M77.4005 416.289V410.468L88.974 409.013L87.3206 416.289H77.4005Z" stroke="black" stroke-width="6"/>
<path d="M718.898 673.867L723.859 669.501L730.472 668.046L733.779 670.957L737.085 675.322L738.739 681.143V686.964L735.432 689.875V694.24V700.061L740.392 707.338L742.045 713.159V720.435V727.711L745.352 732.077L740.392 736.442C739.29 738.383 737.085 742.555 737.085 743.719V751.757C737.085 753.531 740.392 756.839 742.045 758.271L751.965 762.637L750.312 777.189L743.699 781.555L737.085 785.921C735.432 788.831 732.125 794.943 732.125 796.107C732.125 797.563 725.512 803.384 723.859 803.384C722.536 803.384 716.694 808.234 713.938 810.66C710.632 813.085 703.688 818.227 702.365 819.391C700.712 820.847 695.752 828.123 694.098 828.123C692.445 828.123 694.098 833.944 694.098 835.399V842.675L689.138 848.496L687.485 854.317L682.525 858.683V863.049V867.414L684.178 870.325L689.138 873.235L687.485 879.056L682.525 880.512L679.218 884.877C678.667 885.847 677.565 888.079 677.565 889.243C677.565 890.698 679.218 890.698 680.872 892.153C682.194 893.318 688.036 894.579 690.792 895.064L697.405 893.609H702.365L704.018 899.43L705.672 911.072L704.018 916.893L697.405 918.348L687.485 922.714C684.178 924.169 687.485 927.079 685.832 928.535C684.178 929.99 684.178 934.356 684.178 935.811C684.178 936.975 685.28 939.206 685.832 940.177L679.218 943.087L674.258 945.997L667.645 951.818L662.685 948.908V944.542C662.685 943.378 663.787 941.147 664.338 940.177L665.991 934.356L667.645 929.99L670.365 924.169V919.803L672.605 912.527L667.645 911.072L664.338 908.161L665.991 903.795C667.449 903.31 670.365 902.049 670.365 900.885C670.365 899.43 670.951 897.974 670.951 896.519C670.951 895.355 670.56 893.124 670.365 892.153L665.991 889.243L661.031 892.153L654.418 895.064L647.805 897.974C645.6 899.43 640.861 902.631 639.538 903.795C638.215 904.96 637.885 906.221 637.885 906.706V911.072L639.538 915.437C641.191 915.922 644.829 917.184 646.151 918.348C647.474 919.512 646.702 921.743 646.151 922.714H641.191L636.231 924.169V928.535C636.231 929.99 637.885 932.9 637.885 934.356C637.885 935.52 634.578 935.811 632.925 935.811L626.311 937.266H621.351L614.738 934.356L613.084 931.445C612.533 929.99 611.431 926.788 611.431 925.624V921.258L614.738 918.348H623.004L629.618 915.437L632.925 912.527V908.161L631.271 905.251L624.658 906.706L614.738 905.251H608.124C606.471 906.221 602.834 908.452 601.511 909.616C600.188 910.781 598.755 913.012 598.204 913.982C597.653 914.952 595.89 917.184 593.244 918.348C590.599 919.512 593.244 920.773 594.898 921.258L598.204 927.079L596.551 931.445L589.938 934.356H578.364L566.791 935.811L563.484 931.445L565.137 922.714V912.527L566.791 908.161L570.097 902.34L575.057 897.974L576.711 892.153L581.671 889.243L583.324 880.512V879.056L581.671 876.146L578.364 873.235L583.324 868.87C582.773 866.929 581.671 862.758 581.671 861.593C581.671 860.138 583.324 855.772 583.324 854.317C583.324 853.153 585.529 849.951 586.631 848.496L584.978 841.22L594.898 839.765L603.164 836.854L609.778 833.944L614.738 828.123L618.044 822.302C619.367 819.973 615.289 820.361 613.084 820.847L609.778 815.026L608.124 810.66L609.778 804.839L611.431 799.018L613.084 794.652L611.431 787.376L608.124 781.555L603.164 775.734L599.858 765.547L593.244 758.271L588.284 752.45L586.631 742.263L589.938 734.987L594.898 729.166L601.511 721.89L606.471 717.524L618.044 716.069H629.618L634.578 714.614L644.498 713.159L651.111 708.793L652.765 704.427H664.338L674.258 698.606C678.116 695.696 686.162 689.875 687.485 689.875C688.808 689.875 691.343 685.994 692.445 684.054L699.058 681.143C702.365 680.658 709.309 679.688 710.632 679.688C711.954 679.688 716.694 675.807 718.898 673.867Z" stroke="black" stroke-width="6"/>
<path d="M866.046 583.642H875.966L877.62 586.552L869.353 592.373L864.393 596.739V602.56C864.393 603.724 868.802 604.986 871.006 605.471L877.62 611.292L884.233 615.657L890.846 621.478L897.46 624.389C899.113 626.329 902.75 630.21 904.073 630.21C905.396 630.21 907.931 634.09 909.033 636.031L913.993 641.852L918.953 650.583L922.26 656.404C923.913 658.344 926.889 662.225 925.567 662.225C924.244 662.225 923.913 665.136 923.913 666.591L915.647 679.688L912.34 681.143L913.993 688.419L915.647 692.785L920.607 697.151L928.873 698.606L930.527 704.427V711.703C930.527 712.868 929.424 716.069 928.873 717.524L925.567 720.435L920.607 714.614L918.953 710.248C917.3 707.338 913.663 701.517 912.34 701.517C911.017 701.517 906.278 697.636 904.073 695.696L897.46 692.785L889.193 694.24L890.846 707.338L885.886 708.793H875.966H866.046C864.393 708.793 859.433 710.248 857.779 708.793C856.126 707.338 851.166 708.793 849.513 708.793C848.19 708.793 847.859 710.733 847.859 711.703L851.166 713.159L852.819 717.524L854.473 723.345L859.433 724.801V729.166L854.473 730.622L849.513 734.987L846.206 737.898L844.553 746.629L847.859 750.995V759.726C847.859 761.182 849.513 764.092 849.513 765.547C849.513 766.712 848.411 768.943 847.859 769.913L841.246 775.734L832.979 788.831V796.107L828.019 801.928L824.713 807.749C825.815 809.205 828.35 812.406 829.673 813.57C830.995 814.735 834.633 815.026 836.286 815.026L839.593 828.123L834.633 831.033V845.586L829.673 851.407L821.406 855.772L816.446 861.593L814.792 865.959L824.713 877.601L829.673 880.512H831.326L836.286 877.601C837.388 876.146 839.923 872.944 841.246 871.78C842.899 870.325 846.206 865.959 847.859 865.959C849.513 865.959 851.166 861.593 851.166 860.138C851.166 858.974 854.473 855.772 856.126 854.317H862.74C864.393 854.317 867.7 857.228 869.353 855.772C871.006 854.317 872.66 857.228 874.313 857.228C875.636 857.228 874.864 860.138 874.313 861.593L871.006 865.959L872.66 870.325L874.313 871.78H877.62L884.233 868.87C886.878 867.705 888.642 870.325 889.193 871.78L884.233 873.235V880.512C885.886 880.512 889.193 880.803 889.193 881.967C889.193 883.422 897.46 880.512 899.113 879.056C900.436 877.892 900.766 881.482 900.766 883.422C901.869 885.362 904.404 889.243 905.727 889.243C907.38 889.243 910.687 892.153 912.34 892.153C913.993 892.153 920.607 895.064 922.26 895.064C923.913 895.064 927.22 897.974 927.22 899.43C927.22 900.885 930.527 900.885 932.18 899.43C933.503 898.266 936.038 899.915 937.14 900.885L933.833 906.706H932.18L928.873 911.072L920.607 918.348L910.687 928.535L905.727 931.445L897.46 937.266L887.54 940.177C884.784 941.147 878.942 943.087 877.62 943.087C876.297 943.087 872.66 945.027 871.006 945.997C869.904 947.453 867.7 950.654 867.7 951.818C867.7 952.983 863.291 953.274 861.086 953.274C859.984 951.818 857.449 948.617 856.126 947.453C854.803 946.289 855.575 943.087 856.126 941.632L852.819 937.266H837.939L829.673 943.087L824.713 948.908L818.099 951.818H808.179C804.321 953.759 796.606 957.93 796.606 959.095C796.606 960.259 791.095 967.341 788.339 970.737C787.237 973.647 785.032 979.759 785.032 980.923V986.744C786.135 987.714 788.67 989.655 789.992 989.655C791.315 989.655 793.85 988.685 794.952 988.2C796.606 987.714 800.243 986.453 801.566 985.289C802.888 984.125 805.424 984.804 806.526 985.289C807.077 989.655 808.179 998.677 808.179 999.841C808.179 1001.3 801.566 1001.3 799.912 1001.3C798.259 1001.3 794.952 1008.57 794.952 1010.03C794.952 1011.48 788.339 1017.3 786.686 1018.76L778.419 1026.04L771.806 1036.22L768.499 1043.5H763.539H758.579C759.13 1042.04 760.563 1038.55 761.885 1036.22C763.539 1033.31 758.579 1030.4 758.579 1028.95C758.579 1027.49 751.965 1024.58 750.312 1024.58C748.989 1024.58 746.454 1021.67 745.352 1020.21C741.494 1018.76 733.448 1015.85 732.125 1015.85C730.803 1015.85 731.574 1016.82 732.125 1017.3C729.37 1019.73 723.859 1024.87 723.859 1026.04C723.859 1027.2 720.552 1034.28 718.898 1037.68L713.938 1040.59H705.672C705.121 1039.13 704.018 1035.93 704.018 1034.77C704.018 1033.31 700.712 1026.04 700.712 1024.58C700.712 1023.13 695.752 1015.85 694.098 1014.39C692.445 1012.94 689.138 998.386 687.485 996.931C685.832 995.476 682.525 992.565 684.178 991.11C685.501 989.946 681.423 986.744 679.218 985.289V975.102C679.218 973.647 685.832 969.281 685.832 967.826C685.832 966.371 690.792 966.371 692.445 966.371C693.768 966.371 701.814 965.401 705.672 964.916L710.632 960.55L713.938 956.184L715.592 951.818C715.041 950.363 713.938 947.162 713.938 945.997C713.938 944.833 710.632 944.542 708.978 944.542C708.427 942.602 707.656 938.721 708.978 938.721C710.632 938.721 712.285 932.9 713.938 931.445C715.261 930.281 713.387 927.079 712.285 925.624L717.245 919.803L727.165 918.348L730.472 912.527L733.779 908.161C735.432 905.736 738.739 900.594 738.739 899.43C738.739 898.266 740.943 897.004 742.045 896.519L743.699 893.609H747.005L751.965 895.064H760.232C761.555 895.064 764.09 894.094 765.192 893.609L770.152 892.153L775.112 887.788L780.072 881.967C779.521 879.541 778.75 874.399 780.072 873.235C781.726 871.78 775.112 867.414 775.112 865.959C775.112 864.795 771.806 863.534 770.152 863.049H756.925C756.374 862.078 754.941 859.847 753.619 858.683C751.965 857.228 756.925 854.317 756.925 852.862C756.925 851.407 760.232 848.496 761.885 848.496C763.208 848.496 766.846 845.586 768.499 844.13L770.152 838.309V832.489C770.152 831.033 771.806 826.668 773.459 825.212C775.112 823.757 775.112 819.391 775.112 817.936C775.112 816.481 776.766 815.026 778.419 812.115C779.742 809.787 776.766 808.234 775.112 807.749L771.806 800.473L778.419 797.563L781.726 791.742V787.376L783.379 780.1C784.481 778.645 787.016 775.734 788.339 775.734C789.992 775.734 789.992 771.368 789.992 769.913V762.637C789.992 759.726 788.339 758.271 786.686 756.816C785.363 755.652 783.93 755.361 783.379 755.361C782.277 753.905 780.403 750.704 781.726 749.54C783.379 748.084 786.686 748.084 788.339 748.084C789.992 748.084 791.646 745.174 791.646 742.263C791.646 739.935 794.952 738.383 796.606 737.898L798.259 729.166V724.801C797.708 722.375 796.275 717.524 794.952 717.524C793.63 717.524 794.401 710.733 794.952 707.338C794.401 704.427 793.299 698.315 793.299 697.151V692.785L789.992 685.509L794.952 672.412C796.055 668.531 798.259 660.479 798.259 659.315C798.259 658.15 799.361 653.979 799.912 652.038L803.219 638.941C805.424 636.516 809.832 631.374 809.832 630.21C809.832 629.046 814.241 623.904 816.446 621.478C818.099 620.023 821.737 616.53 823.059 614.202C824.713 611.292 831.326 608.381 832.979 606.926C834.633 605.471 839.593 601.105 842.899 599.65C845.545 598.485 847.888 596.254 848.728 595.284L861.086 589.463L866.046 583.642Z" stroke="black" stroke-width="6"/>
<path d="M877.62 737.898L880.926 736.442L884.233 732.077L890.846 734.987L894.153 739.353L885.886 737.898L887.54 740.808L882.58 742.263L875.966 740.808L877.62 737.898Z" stroke="black" stroke-width="6"/>
<path d="M923.913 743.719V726.256L927.22 729.166L932.18 734.987L928.873 740.808L932.18 745.174L927.22 748.084L923.913 743.719Z" stroke="black" stroke-width="6"/>
<path d="M408.07 849.951C406.747 848.787 408.621 844.616 409.723 842.675C409.172 842.19 408.07 840.929 408.07 839.765C408.07 838.309 404.763 833.944 406.416 832.489C407.739 831.324 411.376 833.944 413.03 835.399L419.643 839.765L431.216 841.22V825.212H439.483V845.586L442.79 848.496V857.228L447.75 860.138L454.363 861.593L460.977 863.049V860.138L464.283 857.228V861.593L467.59 863.049L469.243 870.325L474.203 871.78V879.056H469.243L464.283 880.512L460.977 883.422V887.788L467.59 893.609V902.34L464.283 911.072L460.977 918.348V924.169L467.59 935.811L464.283 953.274V962.005L460.977 963.46L457.67 959.095H449.403L446.097 963.46H439.483L434.523 959.095V953.274C432.87 950.363 429.232 944.251 427.91 943.087C426.587 941.923 426.256 936.781 426.256 934.356L413.03 935.811L404.763 931.445L396.496 921.258L393.189 913.982C390.434 910.101 384.923 902.049 384.923 900.885C384.923 899.721 382.718 898.46 381.616 897.974L375.003 896.519V889.243H381.616C381.065 886.333 380.293 880.22 381.616 879.056C382.939 877.892 386.576 876.631 388.229 876.146C390.434 874.691 394.843 871.198 394.843 868.87C394.843 865.959 388.229 864.504 388.229 863.049C388.229 861.593 386.576 858.683 388.229 857.228C389.552 856.063 394.292 859.653 396.496 861.593C400.905 860.138 410.054 856.646 411.376 854.317C413.03 851.407 409.723 851.407 408.07 849.951Z" stroke="black" stroke-width="6"/>
<path d="M647.805 1040.59L661.031 1028.95L667.645 1040.59L654.418 1043.5L647.805 1040.59Z" stroke="black" stroke-width="6"/>
<path d="M646.151 999.841L641.191 986.744L654.418 985.289V996.931L646.151 999.841Z" stroke="black" stroke-width="6"/>
<path d="M1074.37 919.803C1072.71 916.893 1067.75 908.452 1061.14 897.974L1084.29 893.609L1105.78 911.072V927.079L1090.9 934.356L1074.37 919.803Z" stroke="black" stroke-width="6"/>
<path d="M1171.92 1005.66L1150.42 989.655V975.102C1157.59 979.468 1171.92 988.782 1171.92 991.11V1005.66Z" stroke="black" stroke-width="6"/>
<path d="M1233.09 1066.78C1228.68 1066.78 1219.86 1065.62 1219.86 1060.96L1233.09 1043.5L1251.28 1060.96L1233.09 1066.78Z" stroke="black" stroke-width="6"/>
<path d="M1251.28 1141V1120.63H1267.81C1269.46 1127.42 1271.78 1141 1267.81 1141H1251.28Z" stroke="black" stroke-width="6"/>
<path d="M682.525 219.831V195.092L694.098 187.816L700.712 211.1L682.525 219.831Z" stroke="black" stroke-width="6"/>
</svg>
