<svg width="102" height="44" viewBox="0 0 102 44" fill="none" xmlns="http://www.w3.org/2000/svg">
<g id="Sumbawa">
<path id="Vector 28" d="M0.758071 38.3532L0.5 37.8773V36.5228L1.27421 36.0103V35.7174L1.05301 34.912V33.5941L2.3065 31.9467L3.85493 31.1413L3.67059 30.5556L2.63831 28.835V26.6385L2.3065 26.3822V24.9545H1.86409V23.9661L2.3065 23.1241L2.63831 21.6231L5.47709 19.2802L7.76286 18.9141L9.67997 18.4748L10.5279 17.9989L12.1132 18.2551L12.5188 16.7542L13.6616 15.6193L15.1732 14.9238L16.058 13.5692L16.4267 13.0201H18.0857L18.9337 14.0451L21.2932 14.3014L22.9522 15.18L25.3854 15.8756L27.0813 16.9738H28.5192L29.0722 15.6193L29.3671 14.5577H34.4548L34.1599 15.8756L34.4548 17.1935L34.8972 18.1819L35.7452 18.6578H36.4088L36.63 17.6694V16.9738L36.4088 16.4247L36.1138 15.8756L36.4088 15.6193L36.8512 15.8756L37.3305 16.2051L37.183 16.9006L36.9618 17.6694L36.9987 18.2551V18.6578L36.7406 19.0971L36.63 19.3534L37.183 19.6829L37.8097 20.4516L39.3213 20.9642L41.2753 21.4767L42.1601 22.1722L42.75 24.7348L43.8191 27.5171L45.2938 27.7733L47.5427 26.6385L49.4229 27.7733L51.0451 28.2859L52.9622 27.5171L55.3217 24.7348H60.0407L61.2205 25.5768L63.7643 24.7348L64.9072 23.5634L65.0178 21.4767L62.5846 19.6829L61.2205 19.3534L57.7918 16.4247L56.3171 15.18L52.0774 15.6193L45.9574 11.6656L41.2753 6.97971V4.3805L43.8191 2.29382H45.9574L49.4229 0.5H50.3446L51.5981 1.48843L53.8839 1.01252L54.8793 1.30539L57.1651 1.48843L58.6766 2.29382V5.25911L61.073 8.62709L61.8472 9.103V10.787L65.1653 12.5808H66.8243L69.7 9.945L72.0226 7.74848H74.9351L77.9583 8.33422L80.9445 9.945L81.7556 11.6656V15.6193L80.9445 16.9006V18.2551L80.0966 20.4516H80.9445L82.4929 18.6578L83.7464 16.022V13.0201L84.1888 11.6656L87.2488 8.88335H92.1522L94.696 9.945V12.6174L96.2445 15.18V18.2551L95.4334 19.6829V21.916L96.2445 23.5634L97.4242 24.1491H98.9358L99.5257 23.5634H100.853L101.443 24.7348V26.1992L99.5257 26.9313H97.4242L94.143 27.5171L92.1522 25.5768L91.0462 24.7348H89.9033L88.6498 26.1992L85.7004 25.1741H84.5575L81.7556 28.2859L83.1197 28.6153L83.304 29.4939L80.9814 30.0065L77.5896 31.7271L73.3498 33.3012H70.2899L69.0364 31.4342V29.8234L70.8797 27.5171V23.5634L69.7 21.916H68.299V23.5634L68.4834 25.1741H67.3773L66.2713 26.1992L63.7643 28.7984L60.0407 32.2396L57.7918 33.3012L56.3171 31.4342L55.3955 31.9833L52.5935 32.2396L51.4875 34.0334L49.7179 34.253L47.5427 35.571L45.2938 34.0334L43.2292 35.571L41.2753 34.9852H39.3213L37.3305 36.596L34.8972 38.0237L31.8741 39.1952L28.5192 40.5131H22.9522L20.3346 39.1952H18.9337L17.3484 41.3185L15.8737 42.4534L13.2561 42.8927H12.1132L8.86888 40.5131L7.76286 41.3185H6.80431L5.10842 40.5131L3.15445 40.0738L1.05301 38.9755L0.758071 38.3532Z" fill="white" stroke="black"/>
<path id="Vector 30" d="M33.3492 12.5077L35.0083 10.3478L35.6719 8.18792L36.2986 7.6388L36.6304 6.43071L39.3586 4.41725V3.50203H36.0037L34.7502 3.02612L33.976 3.50203L32.7225 3.90473L32.0957 4.41725V7.16289L32.7225 7.6388V9.02992L32.3169 10.1282L31.5059 10.8237V11.4461L32.3169 11.9586L33.3492 12.5077Z" fill="white" stroke="black"/>
<g id="Vector 31">
<path d="M85.4795 29.7869L88.1708 31.361L89.9773 31.8369H92.1525L92.558 31.361V30.4458L90.9359 29.3109L88.5026 29.1645L85.4795 29.3109V29.7869Z" fill="white"/>
<path d="M97.7932 7.01636L99.0835 6.54045L99.784 5.40559V4.05107L98.8255 2.76978H97.019L95.8023 3.79481V6.28419L96.7609 7.01636H97.7932Z" fill="white"/>
<path d="M85.4795 29.7869L88.1708 31.361L89.9773 31.8369H92.1525L92.558 31.361V30.4458L90.9359 29.3109L88.5026 29.1645L85.4795 29.3109V29.7869Z" stroke="black"/>
<path d="M97.7932 7.01636L99.0835 6.54045L99.784 5.40559V4.05107L98.8255 2.76978H97.019L95.8023 3.79481V6.28419L96.7609 7.01636H97.7932Z" stroke="black"/>
</g>
</g>
</svg>
